G04 #@! TF.GenerationSoftware,KiCad,Pcbnew,(5.1.5)-3*
G04 #@! TF.CreationDate,2020-04-06T12:51:18+10:00*
G04 #@! TF.ProjectId,discipline-pcb,64697363-6970-46c6-996e-652d7063622e,rev?*
G04 #@! TF.SameCoordinates,Original*
G04 #@! TF.FileFunction,Legend,Top*
G04 #@! TF.FilePolarity,Positive*
%FSLAX46Y46*%
G04 Gerber Fmt 4.6, Leading zero omitted, Abs format (unit mm)*
G04 Created by KiCad (PCBNEW (5.1.5)-3) date 2020-04-06 12:51:18*
%MOMM*%
%LPD*%
G04 APERTURE LIST*
%ADD10C,0.150000*%
%ADD11C,0.100000*%
%ADD12C,0.120000*%
%ADD13C,0.200000*%
%ADD14C,0.203200*%
%ADD15C,0.250000*%
%ADD16C,1.500000*%
%ADD17C,0.010000*%
%ADD18C,1.702000*%
%ADD19R,1.302000X1.302000*%
%ADD20C,1.302000*%
%ADD21C,3.102000*%
%ADD22C,4.089800*%
%ADD23C,1.852000*%
%ADD24C,3.150000*%
%ADD25C,0.802000*%
%ADD26C,4.502000*%
%ADD27R,1.702000X1.702000*%
%ADD28O,1.702000X1.702000*%
%ADD29R,1.802000X1.802000*%
%ADD30C,1.802000*%
%ADD31C,1.602000*%
%ADD32C,1.502000*%
%ADD33O,1.502000X1.502000*%
%ADD34C,1.902000*%
%ADD35R,1.902000X1.902000*%
%ADD36O,0.752000X1.102000*%
%ADD37O,1.002000X2.502000*%
%ADD38O,1.002000X1.802000*%
%ADD39C,2.102000*%
G04 APERTURE END LIST*
D10*
X128419785Y-152017780D02*
X128419785Y-151017780D01*
X128657880Y-151017780D01*
X128800738Y-151065400D01*
X128895976Y-151160638D01*
X128943595Y-151255876D01*
X128991214Y-151446352D01*
X128991214Y-151589209D01*
X128943595Y-151779685D01*
X128895976Y-151874923D01*
X128800738Y-151970161D01*
X128657880Y-152017780D01*
X128419785Y-152017780D01*
X129800738Y-151970161D02*
X129705500Y-152017780D01*
X129515023Y-152017780D01*
X129419785Y-151970161D01*
X129372166Y-151874923D01*
X129372166Y-151493971D01*
X129419785Y-151398733D01*
X129515023Y-151351114D01*
X129705500Y-151351114D01*
X129800738Y-151398733D01*
X129848357Y-151493971D01*
X129848357Y-151589209D01*
X129372166Y-151684447D01*
X130276928Y-152017780D02*
X130276928Y-151351114D01*
X130276928Y-151541590D02*
X130324547Y-151446352D01*
X130372166Y-151398733D01*
X130467404Y-151351114D01*
X130562642Y-151351114D01*
X130895976Y-152017780D02*
X130895976Y-151351114D01*
X130895976Y-151017780D02*
X130848357Y-151065400D01*
X130895976Y-151113019D01*
X130943595Y-151065400D01*
X130895976Y-151017780D01*
X130895976Y-151113019D01*
X131276928Y-151351114D02*
X131515023Y-152017780D01*
X131753119Y-151351114D01*
X132515023Y-151970161D02*
X132419785Y-152017780D01*
X132229309Y-152017780D01*
X132134071Y-151970161D01*
X132086452Y-151874923D01*
X132086452Y-151493971D01*
X132134071Y-151398733D01*
X132229309Y-151351114D01*
X132419785Y-151351114D01*
X132515023Y-151398733D01*
X132562642Y-151493971D01*
X132562642Y-151589209D01*
X132086452Y-151684447D01*
X133419785Y-152017780D02*
X133419785Y-151017780D01*
X133419785Y-151970161D02*
X133324547Y-152017780D01*
X133134071Y-152017780D01*
X133038833Y-151970161D01*
X132991214Y-151922542D01*
X132943595Y-151827304D01*
X132943595Y-151541590D01*
X132991214Y-151446352D01*
X133038833Y-151398733D01*
X133134071Y-151351114D01*
X133324547Y-151351114D01*
X133419785Y-151398733D01*
X134515023Y-151351114D02*
X134895976Y-151351114D01*
X134657880Y-152017780D02*
X134657880Y-151160638D01*
X134705500Y-151065400D01*
X134800738Y-151017780D01*
X134895976Y-151017780D01*
X135229309Y-152017780D02*
X135229309Y-151351114D01*
X135229309Y-151541590D02*
X135276928Y-151446352D01*
X135324547Y-151398733D01*
X135419785Y-151351114D01*
X135515023Y-151351114D01*
X135991214Y-152017780D02*
X135895976Y-151970161D01*
X135848357Y-151922542D01*
X135800738Y-151827304D01*
X135800738Y-151541590D01*
X135848357Y-151446352D01*
X135895976Y-151398733D01*
X135991214Y-151351114D01*
X136134071Y-151351114D01*
X136229309Y-151398733D01*
X136276928Y-151446352D01*
X136324547Y-151541590D01*
X136324547Y-151827304D01*
X136276928Y-151922542D01*
X136229309Y-151970161D01*
X136134071Y-152017780D01*
X135991214Y-152017780D01*
X136753119Y-152017780D02*
X136753119Y-151351114D01*
X136753119Y-151446352D02*
X136800738Y-151398733D01*
X136895976Y-151351114D01*
X137038833Y-151351114D01*
X137134071Y-151398733D01*
X137181690Y-151493971D01*
X137181690Y-152017780D01*
X137181690Y-151493971D02*
X137229309Y-151398733D01*
X137324547Y-151351114D01*
X137467404Y-151351114D01*
X137562642Y-151398733D01*
X137610261Y-151493971D01*
X137610261Y-152017780D01*
X138848357Y-152017780D02*
X138848357Y-151017780D01*
X139086452Y-151017780D01*
X139229309Y-151065400D01*
X139324547Y-151160638D01*
X139372166Y-151255876D01*
X139419785Y-151446352D01*
X139419785Y-151589209D01*
X139372166Y-151779685D01*
X139324547Y-151874923D01*
X139229309Y-151970161D01*
X139086452Y-152017780D01*
X138848357Y-152017780D01*
X139848357Y-152017780D02*
X139848357Y-151017780D01*
X140276928Y-151970161D02*
X140419785Y-152017780D01*
X140657880Y-152017780D01*
X140753119Y-151970161D01*
X140800738Y-151922542D01*
X140848357Y-151827304D01*
X140848357Y-151732066D01*
X140800738Y-151636828D01*
X140753119Y-151589209D01*
X140657880Y-151541590D01*
X140467404Y-151493971D01*
X140372166Y-151446352D01*
X140324547Y-151398733D01*
X140276928Y-151303495D01*
X140276928Y-151208257D01*
X140324547Y-151113019D01*
X140372166Y-151065400D01*
X140467404Y-151017780D01*
X140705500Y-151017780D01*
X140848357Y-151065400D01*
X141848357Y-151922542D02*
X141800738Y-151970161D01*
X141657880Y-152017780D01*
X141562642Y-152017780D01*
X141419785Y-151970161D01*
X141324547Y-151874923D01*
X141276928Y-151779685D01*
X141229309Y-151589209D01*
X141229309Y-151446352D01*
X141276928Y-151255876D01*
X141324547Y-151160638D01*
X141419785Y-151065400D01*
X141562642Y-151017780D01*
X141657880Y-151017780D01*
X141800738Y-151065400D01*
X141848357Y-151113019D01*
X142276928Y-152017780D02*
X142276928Y-151017780D01*
X142753119Y-152017780D02*
X142753119Y-151017780D01*
X143134071Y-151017780D01*
X143229309Y-151065400D01*
X143276928Y-151113019D01*
X143324547Y-151208257D01*
X143324547Y-151351114D01*
X143276928Y-151446352D01*
X143229309Y-151493971D01*
X143134071Y-151541590D01*
X142753119Y-151541590D01*
X144229309Y-152017780D02*
X143753119Y-152017780D01*
X143753119Y-151017780D01*
X144562642Y-152017780D02*
X144562642Y-151017780D01*
X145038833Y-152017780D02*
X145038833Y-151017780D01*
X145610261Y-152017780D01*
X145610261Y-151017780D01*
X146086452Y-151493971D02*
X146419785Y-151493971D01*
X146562642Y-152017780D02*
X146086452Y-152017780D01*
X146086452Y-151017780D01*
X146562642Y-151017780D01*
X147753119Y-152017780D02*
X147753119Y-151351114D01*
X147753119Y-151541590D02*
X147800738Y-151446352D01*
X147848357Y-151398733D01*
X147943595Y-151351114D01*
X148038833Y-151351114D01*
X148753119Y-151970161D02*
X148657880Y-152017780D01*
X148467404Y-152017780D01*
X148372166Y-151970161D01*
X148324547Y-151874923D01*
X148324547Y-151493971D01*
X148372166Y-151398733D01*
X148467404Y-151351114D01*
X148657880Y-151351114D01*
X148753119Y-151398733D01*
X148800738Y-151493971D01*
X148800738Y-151589209D01*
X148324547Y-151684447D01*
X149134071Y-151351114D02*
X149372166Y-152017780D01*
X149610261Y-151351114D01*
X150515023Y-152017780D02*
X149943595Y-152017780D01*
X150229309Y-152017780D02*
X150229309Y-151017780D01*
X150134071Y-151160638D01*
X150038833Y-151255876D01*
X149943595Y-151303495D01*
X135753119Y-153620161D02*
X135657880Y-153667780D01*
X135467404Y-153667780D01*
X135372166Y-153620161D01*
X135324547Y-153572542D01*
X135276928Y-153477304D01*
X135276928Y-153191590D01*
X135324547Y-153096352D01*
X135372166Y-153048733D01*
X135467404Y-153001114D01*
X135657880Y-153001114D01*
X135753119Y-153048733D01*
X136324547Y-153667780D02*
X136229309Y-153620161D01*
X136181690Y-153572542D01*
X136134071Y-153477304D01*
X136134071Y-153191590D01*
X136181690Y-153096352D01*
X136229309Y-153048733D01*
X136324547Y-153001114D01*
X136467404Y-153001114D01*
X136562642Y-153048733D01*
X136610261Y-153096352D01*
X136657880Y-153191590D01*
X136657880Y-153477304D01*
X136610261Y-153572542D01*
X136562642Y-153620161D01*
X136467404Y-153667780D01*
X136324547Y-153667780D01*
X137038833Y-153620161D02*
X137134071Y-153667780D01*
X137324547Y-153667780D01*
X137419785Y-153620161D01*
X137467404Y-153524923D01*
X137467404Y-153477304D01*
X137419785Y-153382066D01*
X137324547Y-153334447D01*
X137181690Y-153334447D01*
X137086452Y-153286828D01*
X137038833Y-153191590D01*
X137038833Y-153143971D01*
X137086452Y-153048733D01*
X137181690Y-153001114D01*
X137324547Y-153001114D01*
X137419785Y-153048733D01*
X138276928Y-153620161D02*
X138181690Y-153667780D01*
X137991214Y-153667780D01*
X137895976Y-153620161D01*
X137848357Y-153524923D01*
X137848357Y-153143971D01*
X137895976Y-153048733D01*
X137991214Y-153001114D01*
X138181690Y-153001114D01*
X138276928Y-153048733D01*
X138324547Y-153143971D01*
X138324547Y-153239209D01*
X137848357Y-153334447D01*
X138657880Y-153001114D02*
X138895976Y-153667780D01*
X139134071Y-153001114D02*
X138895976Y-153667780D01*
X138800738Y-153905876D01*
X138753119Y-153953495D01*
X138657880Y-154001114D01*
X139372166Y-153001114D02*
X139753119Y-153001114D01*
X139515023Y-153667780D02*
X139515023Y-152810638D01*
X139562642Y-152715400D01*
X139657880Y-152667780D01*
X139753119Y-152667780D01*
X140515023Y-153667780D02*
X140515023Y-153143971D01*
X140467404Y-153048733D01*
X140372166Y-153001114D01*
X140181690Y-153001114D01*
X140086452Y-153048733D01*
X140515023Y-153620161D02*
X140419785Y-153667780D01*
X140181690Y-153667780D01*
X140086452Y-153620161D01*
X140038833Y-153524923D01*
X140038833Y-153429685D01*
X140086452Y-153334447D01*
X140181690Y-153286828D01*
X140419785Y-153286828D01*
X140515023Y-153239209D01*
X140991214Y-153001114D02*
X140991214Y-153667780D01*
X140991214Y-153096352D02*
X141038833Y-153048733D01*
X141134071Y-153001114D01*
X141276928Y-153001114D01*
X141372166Y-153048733D01*
X141419785Y-153143971D01*
X141419785Y-153667780D01*
X141895976Y-153001114D02*
X141895976Y-153667780D01*
X141895976Y-153096352D02*
X141943595Y-153048733D01*
X142038833Y-153001114D01*
X142181690Y-153001114D01*
X142276928Y-153048733D01*
X142324547Y-153143971D01*
X142324547Y-153667780D01*
X142800738Y-153667780D02*
X142800738Y-153001114D01*
X142800738Y-152667780D02*
X142753119Y-152715400D01*
X142800738Y-152763019D01*
X142848357Y-152715400D01*
X142800738Y-152667780D01*
X142800738Y-152763019D01*
X143134071Y-153001114D02*
X143515023Y-153001114D01*
X143276928Y-152667780D02*
X143276928Y-153524923D01*
X143324547Y-153620161D01*
X143419785Y-153667780D01*
X143515023Y-153667780D01*
X144276928Y-153001114D02*
X144276928Y-153667780D01*
X143848357Y-153001114D02*
X143848357Y-153524923D01*
X143895976Y-153620161D01*
X143991214Y-153667780D01*
X144134071Y-153667780D01*
X144229309Y-153620161D01*
X144276928Y-153572542D01*
X144610261Y-153001114D02*
X144991214Y-153001114D01*
X144753119Y-152667780D02*
X144753119Y-153524923D01*
X144800738Y-153620161D01*
X144895976Y-153667780D01*
X144991214Y-153667780D01*
X145181690Y-153001114D02*
X145562642Y-153001114D01*
X145324547Y-152667780D02*
X145324547Y-153524923D01*
X145372166Y-153620161D01*
X145467404Y-153667780D01*
X145562642Y-153667780D01*
X145895976Y-153667780D02*
X145895976Y-153001114D01*
X145895976Y-152667780D02*
X145848357Y-152715400D01*
X145895976Y-152763019D01*
X145943595Y-152715400D01*
X145895976Y-152667780D01*
X145895976Y-152763019D01*
X147086452Y-152763019D02*
X147134071Y-152715400D01*
X147229309Y-152667780D01*
X147467404Y-152667780D01*
X147562642Y-152715400D01*
X147610261Y-152763019D01*
X147657880Y-152858257D01*
X147657880Y-152953495D01*
X147610261Y-153096352D01*
X147038833Y-153667780D01*
X147657880Y-153667780D01*
X148276928Y-152667780D02*
X148372166Y-152667780D01*
X148467404Y-152715400D01*
X148515023Y-152763019D01*
X148562642Y-152858257D01*
X148610261Y-153048733D01*
X148610261Y-153286828D01*
X148562642Y-153477304D01*
X148515023Y-153572542D01*
X148467404Y-153620161D01*
X148372166Y-153667780D01*
X148276928Y-153667780D01*
X148181690Y-153620161D01*
X148134071Y-153572542D01*
X148086452Y-153477304D01*
X148038833Y-153286828D01*
X148038833Y-153048733D01*
X148086452Y-152858257D01*
X148134071Y-152763019D01*
X148181690Y-152715400D01*
X148276928Y-152667780D01*
X149562642Y-153667780D02*
X148991214Y-153667780D01*
X149276928Y-153667780D02*
X149276928Y-152667780D01*
X149181690Y-152810638D01*
X149086452Y-152905876D01*
X148991214Y-152953495D01*
X150038833Y-153667780D02*
X150229309Y-153667780D01*
X150324547Y-153620161D01*
X150372166Y-153572542D01*
X150467404Y-153429685D01*
X150515023Y-153239209D01*
X150515023Y-152858257D01*
X150467404Y-152763019D01*
X150419785Y-152715400D01*
X150324547Y-152667780D01*
X150134071Y-152667780D01*
X150038833Y-152715400D01*
X149991214Y-152763019D01*
X149943595Y-152858257D01*
X149943595Y-153096352D01*
X149991214Y-153191590D01*
X150038833Y-153239209D01*
X150134071Y-153286828D01*
X150324547Y-153286828D01*
X150419785Y-153239209D01*
X150467404Y-153191590D01*
X150515023Y-153096352D01*
D11*
X254439585Y-44240199D02*
X254058633Y-44240199D01*
X254020538Y-44621152D01*
X254058633Y-44583056D01*
X254134824Y-44544961D01*
X254325300Y-44544961D01*
X254401490Y-44583056D01*
X254439585Y-44621152D01*
X254477681Y-44697342D01*
X254477681Y-44887818D01*
X254439585Y-44964009D01*
X254401490Y-45002104D01*
X254325300Y-45040199D01*
X254134824Y-45040199D01*
X254058633Y-45002104D01*
X254020538Y-44964009D01*
X254972919Y-44240199D02*
X255049109Y-44240199D01*
X255125300Y-44278295D01*
X255163395Y-44316390D01*
X255201490Y-44392580D01*
X255239585Y-44544961D01*
X255239585Y-44735437D01*
X255201490Y-44887818D01*
X255163395Y-44964009D01*
X255125300Y-45002104D01*
X255049109Y-45040199D01*
X254972919Y-45040199D01*
X254896728Y-45002104D01*
X254858633Y-44964009D01*
X254820538Y-44887818D01*
X254782443Y-44735437D01*
X254782443Y-44544961D01*
X254820538Y-44392580D01*
X254858633Y-44316390D01*
X254896728Y-44278295D01*
X254972919Y-44240199D01*
X255734824Y-44240199D02*
X255811014Y-44240199D01*
X255887205Y-44278295D01*
X255925300Y-44316390D01*
X255963395Y-44392580D01*
X256001490Y-44544961D01*
X256001490Y-44735437D01*
X255963395Y-44887818D01*
X255925300Y-44964009D01*
X255887205Y-45002104D01*
X255811014Y-45040199D01*
X255734824Y-45040199D01*
X255658633Y-45002104D01*
X255620538Y-44964009D01*
X255582443Y-44887818D01*
X255544347Y-44735437D01*
X255544347Y-44544961D01*
X255582443Y-44392580D01*
X255620538Y-44316390D01*
X255658633Y-44278295D01*
X255734824Y-44240199D01*
X256344347Y-45040199D02*
X256344347Y-44506866D01*
X256344347Y-44583056D02*
X256382443Y-44544961D01*
X256458633Y-44506866D01*
X256572919Y-44506866D01*
X256649109Y-44544961D01*
X256687205Y-44621152D01*
X256687205Y-45040199D01*
X256687205Y-44621152D02*
X256725300Y-44544961D01*
X256801490Y-44506866D01*
X256915776Y-44506866D01*
X256991966Y-44544961D01*
X257030062Y-44621152D01*
X257030062Y-45040199D01*
X257372919Y-44811628D02*
X257753871Y-44811628D01*
X257296728Y-45040199D02*
X257563395Y-44240199D01*
X257830062Y-45040199D01*
X269219595Y-57832784D02*
X269838643Y-57832784D01*
X269505309Y-58213737D01*
X269648166Y-58213737D01*
X269743405Y-58261356D01*
X269791024Y-58308975D01*
X269838643Y-58404213D01*
X269838643Y-58642308D01*
X269791024Y-58737546D01*
X269743405Y-58785165D01*
X269648166Y-58832784D01*
X269362452Y-58832784D01*
X269267214Y-58785165D01*
X269219595Y-58737546D01*
X270267214Y-58737546D02*
X270314833Y-58785165D01*
X270267214Y-58832784D01*
X270219595Y-58785165D01*
X270267214Y-58737546D01*
X270267214Y-58832784D01*
X271171976Y-57832784D02*
X270981500Y-57832784D01*
X270886262Y-57880404D01*
X270838643Y-57928023D01*
X270743405Y-58070880D01*
X270695786Y-58261356D01*
X270695786Y-58642308D01*
X270743405Y-58737546D01*
X270791024Y-58785165D01*
X270886262Y-58832784D01*
X271076738Y-58832784D01*
X271171976Y-58785165D01*
X271219595Y-58737546D01*
X271267214Y-58642308D01*
X271267214Y-58404213D01*
X271219595Y-58308975D01*
X271171976Y-58261356D01*
X271076738Y-58213737D01*
X270886262Y-58213737D01*
X270791024Y-58261356D01*
X270743405Y-58308975D01*
X270695786Y-58404213D01*
X271552928Y-57832784D02*
X271886262Y-58832784D01*
X272219595Y-57832784D01*
X267035790Y-59008020D02*
X267035790Y-58408020D01*
X267935790Y-59120520D01*
X267935790Y-58520520D01*
X267464362Y-58118735D02*
X267464362Y-57818735D01*
X267935790Y-57749092D02*
X267935790Y-58177663D01*
X267035790Y-58065163D01*
X267035790Y-57636592D01*
X267935790Y-57363378D02*
X267035790Y-57250878D01*
X267935790Y-56849092D01*
X267035790Y-56736592D01*
X267464362Y-56361592D02*
X267464362Y-56061592D01*
X267935790Y-55991949D02*
X267935790Y-56420520D01*
X267035790Y-56308020D01*
X267035790Y-55879449D01*
X267935790Y-55091949D02*
X267507219Y-55338378D01*
X267935790Y-55606235D02*
X267035790Y-55493735D01*
X267035790Y-55150878D01*
X267078648Y-55070520D01*
X267121505Y-55033020D01*
X267207219Y-55000878D01*
X267335790Y-55016949D01*
X267421505Y-55070520D01*
X267464362Y-55118735D01*
X267507219Y-55209806D01*
X267507219Y-55552663D01*
X267935790Y-54020520D02*
X267035790Y-53908020D01*
X267035790Y-53693735D01*
X267078648Y-53570520D01*
X267164362Y-53495520D01*
X267250076Y-53463378D01*
X267421505Y-53441949D01*
X267550076Y-53458020D01*
X267721505Y-53522306D01*
X267807219Y-53575878D01*
X267892933Y-53672306D01*
X267935790Y-53806235D01*
X267935790Y-54020520D01*
X267935790Y-53120520D02*
X267035790Y-53008020D01*
X267035790Y-52408020D02*
X267035790Y-52236592D01*
X267078648Y-52156235D01*
X267164362Y-52081235D01*
X267335790Y-52059806D01*
X267635790Y-52097306D01*
X267807219Y-52161592D01*
X267892933Y-52258020D01*
X267935790Y-52349092D01*
X267935790Y-52520520D01*
X267892933Y-52600878D01*
X267807219Y-52675878D01*
X267635790Y-52697306D01*
X267335790Y-52659806D01*
X267164362Y-52595520D01*
X267078648Y-52499092D01*
X267035790Y-52408020D01*
X267935790Y-51749092D02*
X267035790Y-51636592D01*
X267035790Y-51422306D01*
X267078648Y-51299092D01*
X267164362Y-51224092D01*
X267250076Y-51191949D01*
X267421505Y-51170520D01*
X267550076Y-51186592D01*
X267721505Y-51250878D01*
X267807219Y-51304449D01*
X267892933Y-51400878D01*
X267935790Y-51534806D01*
X267935790Y-51749092D01*
X267464362Y-50790163D02*
X267464362Y-50490163D01*
X267935790Y-50420520D02*
X267935790Y-50849092D01*
X267035790Y-50736592D01*
X267035790Y-50308020D01*
X267892933Y-50072306D02*
X267935790Y-49949092D01*
X267935790Y-49734806D01*
X267892933Y-49643735D01*
X267850076Y-49595520D01*
X267764362Y-49541949D01*
X267678648Y-49531235D01*
X267592933Y-49563378D01*
X267550076Y-49600878D01*
X267507219Y-49681235D01*
X267464362Y-49847306D01*
X267421505Y-49927663D01*
X267378648Y-49965163D01*
X267292933Y-49997306D01*
X267207219Y-49986592D01*
X267121505Y-49933020D01*
X267078648Y-49884806D01*
X267035790Y-49793735D01*
X267035790Y-49579449D01*
X267078648Y-49456235D01*
D12*
X271268160Y-53761316D02*
X271513132Y-53498846D01*
X272603068Y-53498462D02*
X272848040Y-53235992D01*
X268386050Y-53760932D02*
X268631022Y-53498462D01*
X269733396Y-53498462D02*
X269978368Y-53235992D01*
D10*
X214067707Y-44763224D02*
X213734373Y-44287034D01*
X213496278Y-44763224D02*
X213496278Y-43763224D01*
X213877230Y-43763224D01*
X213972468Y-43810844D01*
X214020088Y-43858463D01*
X214067707Y-43953701D01*
X214067707Y-44096558D01*
X214020088Y-44191796D01*
X213972468Y-44239415D01*
X213877230Y-44287034D01*
X213496278Y-44287034D01*
X214496278Y-44239415D02*
X214829611Y-44239415D01*
X214972468Y-44763224D02*
X214496278Y-44763224D01*
X214496278Y-43763224D01*
X214972468Y-43763224D01*
X215353421Y-44715605D02*
X215496278Y-44763224D01*
X215734373Y-44763224D01*
X215829611Y-44715605D01*
X215877230Y-44667986D01*
X215924849Y-44572748D01*
X215924849Y-44477510D01*
X215877230Y-44382272D01*
X215829611Y-44334653D01*
X215734373Y-44287034D01*
X215543897Y-44239415D01*
X215448659Y-44191796D01*
X215401040Y-44144177D01*
X215353421Y-44048939D01*
X215353421Y-43953701D01*
X215401040Y-43858463D01*
X215448659Y-43810844D01*
X215543897Y-43763224D01*
X215781992Y-43763224D01*
X215924849Y-43810844D01*
X216353421Y-44239415D02*
X216686754Y-44239415D01*
X216829611Y-44763224D02*
X216353421Y-44763224D01*
X216353421Y-43763224D01*
X216829611Y-43763224D01*
X217115326Y-43763224D02*
X217686754Y-43763224D01*
X217401040Y-44763224D02*
X217401040Y-43763224D01*
X268963696Y-37572714D02*
X268963696Y-36572714D01*
X269344648Y-36572714D01*
X269439886Y-36620334D01*
X269487505Y-36667953D01*
X269535124Y-36763191D01*
X269535124Y-36906048D01*
X269487505Y-37001286D01*
X269439886Y-37048905D01*
X269344648Y-37096524D01*
X268963696Y-37096524D01*
X270154172Y-36572714D02*
X270344648Y-36572714D01*
X270439886Y-36620334D01*
X270535124Y-36715572D01*
X270582743Y-36906048D01*
X270582743Y-37239381D01*
X270535124Y-37429857D01*
X270439886Y-37525095D01*
X270344648Y-37572714D01*
X270154172Y-37572714D01*
X270058934Y-37525095D01*
X269963696Y-37429857D01*
X269916077Y-37239381D01*
X269916077Y-36906048D01*
X269963696Y-36715572D01*
X270058934Y-36620334D01*
X270154172Y-36572714D01*
X270916077Y-36572714D02*
X271154172Y-37572714D01*
X271344648Y-36858429D01*
X271535124Y-37572714D01*
X271773220Y-36572714D01*
X272154172Y-37048905D02*
X272487505Y-37048905D01*
X272630362Y-37572714D02*
X272154172Y-37572714D01*
X272154172Y-36572714D01*
X272630362Y-36572714D01*
X273630362Y-37572714D02*
X273297029Y-37096524D01*
X273058934Y-37572714D02*
X273058934Y-36572714D01*
X273439886Y-36572714D01*
X273535124Y-36620334D01*
X273582743Y-36667953D01*
X273630362Y-36763191D01*
X273630362Y-36906048D01*
X273582743Y-37001286D01*
X273535124Y-37048905D01*
X273439886Y-37096524D01*
X273058934Y-37096524D01*
X235282946Y-42813477D02*
X235187708Y-42765857D01*
X235044851Y-42765857D01*
X234901993Y-42813477D01*
X234806755Y-42908715D01*
X234759136Y-43003953D01*
X234711517Y-43194429D01*
X234711517Y-43337286D01*
X234759136Y-43527762D01*
X234806755Y-43623000D01*
X234901993Y-43718238D01*
X235044851Y-43765857D01*
X235140089Y-43765857D01*
X235282946Y-43718238D01*
X235330565Y-43670619D01*
X235330565Y-43337286D01*
X235140089Y-43337286D01*
X235759136Y-43765857D02*
X235759136Y-42765857D01*
X236330565Y-43765857D01*
X236330565Y-42765857D01*
X236806755Y-43765857D02*
X236806755Y-42765857D01*
X237044851Y-42765857D01*
X237187708Y-42813477D01*
X237282946Y-42908715D01*
X237330565Y-43003953D01*
X237378184Y-43194429D01*
X237378184Y-43337286D01*
X237330565Y-43527762D01*
X237282946Y-43623000D01*
X237187708Y-43718238D01*
X237044851Y-43765857D01*
X236806755Y-43765857D01*
X242837624Y-38884008D02*
X242837624Y-37884008D01*
X243266195Y-38836389D02*
X243409053Y-38884008D01*
X243647148Y-38884008D01*
X243742386Y-38836389D01*
X243790005Y-38788770D01*
X243837624Y-38693532D01*
X243837624Y-38598294D01*
X243790005Y-38503056D01*
X243742386Y-38455437D01*
X243647148Y-38407818D01*
X243456672Y-38360199D01*
X243361434Y-38312580D01*
X243313815Y-38264961D01*
X243266195Y-38169723D01*
X243266195Y-38074485D01*
X243313815Y-37979247D01*
X243361434Y-37931628D01*
X243456672Y-37884008D01*
X243694767Y-37884008D01*
X243837624Y-37931628D01*
X244266195Y-38884008D02*
X244266195Y-37884008D01*
X244647148Y-37884008D01*
X244742386Y-37931628D01*
X244790005Y-37979247D01*
X244837624Y-38074485D01*
X244837624Y-38217342D01*
X244790005Y-38312580D01*
X244742386Y-38360199D01*
X244647148Y-38407818D01*
X244266195Y-38407818D01*
D11*
X277730735Y-48439639D02*
X277349783Y-48439639D01*
X277311688Y-48820592D01*
X277349783Y-48782496D01*
X277425973Y-48744401D01*
X277616449Y-48744401D01*
X277692640Y-48782496D01*
X277730735Y-48820592D01*
X277768830Y-48896782D01*
X277768830Y-49087258D01*
X277730735Y-49163449D01*
X277692640Y-49201544D01*
X277616449Y-49239639D01*
X277425973Y-49239639D01*
X277349783Y-49201544D01*
X277311688Y-49163449D01*
X278111688Y-49163449D02*
X278149783Y-49201544D01*
X278111688Y-49239639D01*
X278073592Y-49201544D01*
X278111688Y-49163449D01*
X278111688Y-49239639D01*
X278911688Y-49239639D02*
X278454545Y-49239639D01*
X278683116Y-49239639D02*
X278683116Y-48439639D01*
X278606926Y-48553925D01*
X278530735Y-48630115D01*
X278454545Y-48668211D01*
X279254545Y-49239639D02*
X279254545Y-48439639D01*
X279711688Y-49239639D02*
X279368830Y-48782496D01*
X279711688Y-48439639D02*
X279254545Y-48896782D01*
X277730735Y-45886186D02*
X277349783Y-45886186D01*
X277311688Y-46267139D01*
X277349783Y-46229043D01*
X277425973Y-46190948D01*
X277616449Y-46190948D01*
X277692640Y-46229043D01*
X277730735Y-46267139D01*
X277768830Y-46343329D01*
X277768830Y-46533805D01*
X277730735Y-46609996D01*
X277692640Y-46648091D01*
X277616449Y-46686186D01*
X277425973Y-46686186D01*
X277349783Y-46648091D01*
X277311688Y-46609996D01*
X278111688Y-46609996D02*
X278149783Y-46648091D01*
X278111688Y-46686186D01*
X278073592Y-46648091D01*
X278111688Y-46609996D01*
X278111688Y-46686186D01*
X278911688Y-46686186D02*
X278454545Y-46686186D01*
X278683116Y-46686186D02*
X278683116Y-45886186D01*
X278606926Y-46000472D01*
X278530735Y-46076662D01*
X278454545Y-46114758D01*
X279254545Y-46686186D02*
X279254545Y-45886186D01*
X279711688Y-46686186D02*
X279368830Y-46229043D01*
X279711688Y-45886186D02*
X279254545Y-46343329D01*
D12*
X328694262Y-59631690D02*
X328694262Y-58373690D01*
X326854262Y-59631690D02*
X326854262Y-58373690D01*
X314468388Y-59631690D02*
X314468388Y-58373690D01*
X312628388Y-59631690D02*
X312628388Y-58373690D01*
X272465826Y-47901516D02*
G75*
G03X272465826Y-47901516I-2120000J0D01*
G01*
X271185826Y-47901516D02*
X272425826Y-47901516D01*
X268265826Y-47901516D02*
X269505826Y-47901516D01*
X271185826Y-47861516D02*
X272425826Y-47861516D01*
X268265826Y-47861516D02*
X269505826Y-47861516D01*
X271185826Y-47821516D02*
X272424826Y-47821516D01*
X268266826Y-47821516D02*
X269505826Y-47821516D01*
X268268826Y-47781516D02*
X269505826Y-47781516D01*
X271185826Y-47781516D02*
X272422826Y-47781516D01*
X268271826Y-47741516D02*
X269505826Y-47741516D01*
X271185826Y-47741516D02*
X272419826Y-47741516D01*
X268274826Y-47701516D02*
X269505826Y-47701516D01*
X271185826Y-47701516D02*
X272416826Y-47701516D01*
X268278826Y-47661516D02*
X269505826Y-47661516D01*
X271185826Y-47661516D02*
X272412826Y-47661516D01*
X268283826Y-47621516D02*
X269505826Y-47621516D01*
X271185826Y-47621516D02*
X272407826Y-47621516D01*
X268289826Y-47581516D02*
X269505826Y-47581516D01*
X271185826Y-47581516D02*
X272401826Y-47581516D01*
X268295826Y-47541516D02*
X269505826Y-47541516D01*
X271185826Y-47541516D02*
X272395826Y-47541516D01*
X268303826Y-47501516D02*
X269505826Y-47501516D01*
X271185826Y-47501516D02*
X272387826Y-47501516D01*
X268311826Y-47461516D02*
X269505826Y-47461516D01*
X271185826Y-47461516D02*
X272379826Y-47461516D01*
X268320826Y-47421516D02*
X269505826Y-47421516D01*
X271185826Y-47421516D02*
X272370826Y-47421516D01*
X268329826Y-47381516D02*
X269505826Y-47381516D01*
X271185826Y-47381516D02*
X272361826Y-47381516D01*
X268340826Y-47341516D02*
X269505826Y-47341516D01*
X271185826Y-47341516D02*
X272350826Y-47341516D01*
X268351826Y-47301516D02*
X269505826Y-47301516D01*
X271185826Y-47301516D02*
X272339826Y-47301516D01*
X268363826Y-47261516D02*
X269505826Y-47261516D01*
X271185826Y-47261516D02*
X272327826Y-47261516D01*
X268377826Y-47221516D02*
X269505826Y-47221516D01*
X271185826Y-47221516D02*
X272313826Y-47221516D01*
X268391826Y-47180516D02*
X269505826Y-47180516D01*
X271185826Y-47180516D02*
X272299826Y-47180516D01*
X268405826Y-47140516D02*
X269505826Y-47140516D01*
X271185826Y-47140516D02*
X272285826Y-47140516D01*
X268421826Y-47100516D02*
X269505826Y-47100516D01*
X271185826Y-47100516D02*
X272269826Y-47100516D01*
X268438826Y-47060516D02*
X269505826Y-47060516D01*
X271185826Y-47060516D02*
X272252826Y-47060516D01*
X268456826Y-47020516D02*
X269505826Y-47020516D01*
X271185826Y-47020516D02*
X272234826Y-47020516D01*
X268475826Y-46980516D02*
X269505826Y-46980516D01*
X271185826Y-46980516D02*
X272215826Y-46980516D01*
X268494826Y-46940516D02*
X269505826Y-46940516D01*
X271185826Y-46940516D02*
X272196826Y-46940516D01*
X268515826Y-46900516D02*
X269505826Y-46900516D01*
X271185826Y-46900516D02*
X272175826Y-46900516D01*
X268537826Y-46860516D02*
X269505826Y-46860516D01*
X271185826Y-46860516D02*
X272153826Y-46860516D01*
X268560826Y-46820516D02*
X269505826Y-46820516D01*
X271185826Y-46820516D02*
X272130826Y-46820516D01*
X268585826Y-46780516D02*
X269505826Y-46780516D01*
X271185826Y-46780516D02*
X272105826Y-46780516D01*
X268610826Y-46740516D02*
X269505826Y-46740516D01*
X271185826Y-46740516D02*
X272080826Y-46740516D01*
X268637826Y-46700516D02*
X269505826Y-46700516D01*
X271185826Y-46700516D02*
X272053826Y-46700516D01*
X268665826Y-46660516D02*
X269505826Y-46660516D01*
X271185826Y-46660516D02*
X272025826Y-46660516D01*
X268695826Y-46620516D02*
X269505826Y-46620516D01*
X271185826Y-46620516D02*
X271995826Y-46620516D01*
X268726826Y-46580516D02*
X269505826Y-46580516D01*
X271185826Y-46580516D02*
X271964826Y-46580516D01*
X268758826Y-46540516D02*
X269505826Y-46540516D01*
X271185826Y-46540516D02*
X271932826Y-46540516D01*
X268793826Y-46500516D02*
X269505826Y-46500516D01*
X271185826Y-46500516D02*
X271897826Y-46500516D01*
X268829826Y-46460516D02*
X269505826Y-46460516D01*
X271185826Y-46460516D02*
X271861826Y-46460516D01*
X268867826Y-46420516D02*
X269505826Y-46420516D01*
X271185826Y-46420516D02*
X271823826Y-46420516D01*
X268907826Y-46380516D02*
X269505826Y-46380516D01*
X271185826Y-46380516D02*
X271783826Y-46380516D01*
X268949826Y-46340516D02*
X269505826Y-46340516D01*
X271185826Y-46340516D02*
X271741826Y-46340516D01*
X268994826Y-46300516D02*
X271696826Y-46300516D01*
X269041826Y-46260516D02*
X271649826Y-46260516D01*
X269091826Y-46220516D02*
X271599826Y-46220516D01*
X269145826Y-46180516D02*
X271545826Y-46180516D01*
X269203826Y-46140516D02*
X271487826Y-46140516D01*
X269265826Y-46100516D02*
X271425826Y-46100516D01*
X269332826Y-46060516D02*
X271358826Y-46060516D01*
X269405826Y-46020516D02*
X271285826Y-46020516D01*
X269486826Y-45980516D02*
X271204826Y-45980516D01*
X269577826Y-45940516D02*
X271113826Y-45940516D01*
X269681826Y-45900516D02*
X271009826Y-45900516D01*
X269808826Y-45860516D02*
X270882826Y-45860516D01*
X269975826Y-45820516D02*
X270715826Y-45820516D01*
X269150826Y-50171317D02*
X269150826Y-49771317D01*
X268950826Y-49971317D02*
X269350826Y-49971317D01*
X315763680Y-38227828D02*
X315763680Y-38242828D01*
X315763680Y-36102828D02*
X315763680Y-36117828D01*
X311223680Y-38227828D02*
X311223680Y-38242828D01*
X311223680Y-36102828D02*
X311223680Y-36117828D01*
X311223680Y-38242828D02*
X315763680Y-38242828D01*
X311223680Y-36102828D02*
X315763680Y-36102828D01*
X311109212Y-58018066D02*
X311109212Y-58033066D01*
X311109212Y-55893066D02*
X311109212Y-55908066D01*
X306569212Y-58018066D02*
X306569212Y-58033066D01*
X306569212Y-55893066D02*
X306569212Y-55908066D01*
X306569212Y-58033066D02*
X311109212Y-58033066D01*
X306569212Y-55893066D02*
X311109212Y-55893066D01*
X284291580Y-46015832D02*
G75*
G02X284291580Y-48015832I0J-1000000D01*
G01*
X284291580Y-48015832D02*
X284291580Y-53475832D01*
X284291580Y-53475832D02*
X335211580Y-53475832D01*
X335211580Y-53475832D02*
X335211580Y-40555832D01*
X335211580Y-40555832D02*
X284291580Y-40555832D01*
X284291580Y-40555832D02*
X284291580Y-46015832D01*
D13*
X239871980Y-37317520D02*
X239871980Y-36517520D01*
X239871980Y-36517520D02*
X237321980Y-36517520D01*
X237321980Y-36517520D02*
X237321980Y-37317520D01*
D14*
X234811980Y-37327520D02*
X242431980Y-37327520D01*
X242431980Y-42407520D02*
X234811980Y-42407520D01*
X234811980Y-42407520D02*
X234811980Y-37327520D01*
X242431980Y-37327520D02*
X242431980Y-42407520D01*
D12*
X323879794Y-61027890D02*
X317479794Y-61027890D01*
X323879794Y-55977890D02*
X317479794Y-55977890D01*
X323879794Y-55977890D02*
G75*
G02X323879794Y-61027890I0J-2525000D01*
G01*
X317479794Y-55977890D02*
G75*
G03X317479794Y-61027890I0J-2525000D01*
G01*
X280354466Y-54812167D02*
X280354466Y-52972167D01*
X280354466Y-52972167D02*
X276514466Y-52972167D01*
X276514466Y-52972167D02*
X276514466Y-54812167D01*
X276514466Y-54812167D02*
X280354466Y-54812167D01*
X281304466Y-53892167D02*
X280354466Y-53892167D01*
X275564466Y-53892167D02*
X276514466Y-53892167D01*
X280354466Y-52318702D02*
X280354466Y-50478702D01*
X280354466Y-50478702D02*
X276514466Y-50478702D01*
X276514466Y-50478702D02*
X276514466Y-52318702D01*
X276514466Y-52318702D02*
X280354466Y-52318702D01*
X281304466Y-51398702D02*
X280354466Y-51398702D01*
X275564466Y-51398702D02*
X276514466Y-51398702D01*
X280354466Y-57305632D02*
X280354466Y-55465632D01*
X280354466Y-55465632D02*
X276514466Y-55465632D01*
X276514466Y-55465632D02*
X276514466Y-57305632D01*
X276514466Y-57305632D02*
X280354466Y-57305632D01*
X281304466Y-56385632D02*
X280354466Y-56385632D01*
X275564466Y-56385632D02*
X276514466Y-56385632D01*
X276514466Y-47906861D02*
X276514466Y-49746861D01*
X276514466Y-49746861D02*
X280354466Y-49746861D01*
X280354466Y-49746861D02*
X280354466Y-47906861D01*
X280354466Y-47906861D02*
X276514466Y-47906861D01*
X275564466Y-48826861D02*
X276514466Y-48826861D01*
X281304466Y-48826861D02*
X280354466Y-48826861D01*
X276514466Y-45387149D02*
X276514466Y-47227149D01*
X276514466Y-47227149D02*
X280354466Y-47227149D01*
X280354466Y-47227149D02*
X280354466Y-45387149D01*
X280354466Y-45387149D02*
X276514466Y-45387149D01*
X275564466Y-46307149D02*
X276514466Y-46307149D01*
X281304466Y-46307149D02*
X280354466Y-46307149D01*
X276514466Y-42893684D02*
X276514466Y-44733684D01*
X276514466Y-44733684D02*
X280354466Y-44733684D01*
X280354466Y-44733684D02*
X280354466Y-42893684D01*
X280354466Y-42893684D02*
X276514466Y-42893684D01*
X275564466Y-43813684D02*
X276514466Y-43813684D01*
X281304466Y-43813684D02*
X280354466Y-43813684D01*
X280354466Y-42239854D02*
X280354466Y-40399854D01*
X280354466Y-40399854D02*
X276514466Y-40399854D01*
X276514466Y-40399854D02*
X276514466Y-42239854D01*
X276514466Y-42239854D02*
X280354466Y-42239854D01*
X281304466Y-41319854D02*
X280354466Y-41319854D01*
X275564466Y-41319854D02*
X276514466Y-41319854D01*
X269705866Y-41297480D02*
X269705866Y-41453480D01*
X269705866Y-38981480D02*
X269705866Y-39137480D01*
X272306996Y-41297317D02*
G75*
G02X270224905Y-41297480I-1041130J1079837D01*
G01*
X272306996Y-39137643D02*
G75*
G03X270224905Y-39137480I-1041130J-1079837D01*
G01*
X272938201Y-41296088D02*
G75*
G02X269705866Y-41452996I-1672335J1078608D01*
G01*
X272938201Y-39138872D02*
G75*
G03X269705866Y-38981964I-1672335J-1078608D01*
G01*
D10*
X268041618Y-38537672D02*
X258791618Y-38537672D01*
X267891618Y-45197672D02*
X258941618Y-45197672D01*
X258936618Y-36787672D02*
X258941618Y-36027672D01*
X267891618Y-36027672D02*
X258941618Y-36027672D01*
X267891618Y-36027672D02*
X267896618Y-36787672D01*
X263416618Y-38537672D02*
X263416618Y-39807672D01*
D12*
X231103882Y-41082724D02*
X231103882Y-39582724D01*
X229853882Y-37082724D02*
X225353882Y-37082724D01*
X224103882Y-39582724D02*
X224103882Y-41082724D01*
X225353882Y-43582724D02*
X229853882Y-43582724D01*
X219103882Y-41082724D02*
X219103882Y-39582724D01*
X217853882Y-37082724D02*
X213353882Y-37082724D01*
X212103882Y-39582724D02*
X212103882Y-41082724D01*
X213353882Y-43582724D02*
X217853882Y-43582724D01*
X48468434Y-46792262D02*
X48468434Y-49762262D01*
X50468434Y-46782262D02*
X50458434Y-49772262D01*
X48468434Y-49772262D02*
X50458434Y-49772262D01*
X49478434Y-49982262D02*
X49478434Y-48862262D01*
X49478434Y-46522262D02*
X49478434Y-47802262D01*
X48468434Y-46782262D02*
X50468434Y-46782262D01*
X49478434Y-47912262D02*
X50018434Y-48862262D01*
X49468434Y-47922262D02*
X48938434Y-48832262D01*
X48938434Y-48862262D02*
X50018434Y-48862262D01*
X48938434Y-47812262D02*
X50018434Y-47812262D01*
X57976823Y-51752849D02*
X57976823Y-54722849D01*
X59976823Y-51742849D02*
X59966823Y-54732849D01*
X57976823Y-54732849D02*
X59966823Y-54732849D01*
X58986823Y-54942849D02*
X58986823Y-53822849D01*
X58986823Y-51482849D02*
X58986823Y-52762849D01*
X57976823Y-51742849D02*
X59976823Y-51742849D01*
X58986823Y-52872849D02*
X59526823Y-53822849D01*
X58976823Y-52882849D02*
X58446823Y-53792849D01*
X58446823Y-53822849D02*
X59526823Y-53822849D01*
X58446823Y-52772849D02*
X59526823Y-52772849D01*
X70654675Y-51752849D02*
X70654675Y-54722849D01*
X72654675Y-51742849D02*
X72644675Y-54732849D01*
X70654675Y-54732849D02*
X72644675Y-54732849D01*
X71664675Y-54942849D02*
X71664675Y-53822849D01*
X71664675Y-51482849D02*
X71664675Y-52762849D01*
X70654675Y-51742849D02*
X72654675Y-51742849D01*
X71664675Y-52872849D02*
X72204675Y-53822849D01*
X71654675Y-52882849D02*
X71124675Y-53792849D01*
X71124675Y-53822849D02*
X72204675Y-53822849D01*
X71124675Y-52772849D02*
X72204675Y-52772849D01*
X73824138Y-46792262D02*
X73824138Y-49762262D01*
X75824138Y-46782262D02*
X75814138Y-49772262D01*
X73824138Y-49772262D02*
X75814138Y-49772262D01*
X74834138Y-49982262D02*
X74834138Y-48862262D01*
X74834138Y-46522262D02*
X74834138Y-47802262D01*
X73824138Y-46782262D02*
X75824138Y-46782262D01*
X74834138Y-47912262D02*
X75374138Y-48862262D01*
X74824138Y-47922262D02*
X74294138Y-48832262D01*
X74294138Y-48862262D02*
X75374138Y-48862262D01*
X74294138Y-47812262D02*
X75374138Y-47812262D01*
X86501990Y-46792262D02*
X86501990Y-49762262D01*
X88501990Y-46782262D02*
X88491990Y-49772262D01*
X86501990Y-49772262D02*
X88491990Y-49772262D01*
X87511990Y-49982262D02*
X87511990Y-48862262D01*
X87511990Y-46522262D02*
X87511990Y-47802262D01*
X86501990Y-46782262D02*
X88501990Y-46782262D01*
X87511990Y-47912262D02*
X88051990Y-48862262D01*
X87501990Y-47922262D02*
X86971990Y-48832262D01*
X86971990Y-48862262D02*
X88051990Y-48862262D01*
X86971990Y-47812262D02*
X88051990Y-47812262D01*
X99179842Y-46792262D02*
X99179842Y-49762262D01*
X101179842Y-46782262D02*
X101169842Y-49772262D01*
X99179842Y-49772262D02*
X101169842Y-49772262D01*
X100189842Y-49982262D02*
X100189842Y-48862262D01*
X100189842Y-46522262D02*
X100189842Y-47802262D01*
X99179842Y-46782262D02*
X101179842Y-46782262D01*
X100189842Y-47912262D02*
X100729842Y-48862262D01*
X100179842Y-47922262D02*
X99649842Y-48832262D01*
X99649842Y-48862262D02*
X100729842Y-48862262D01*
X99649842Y-47812262D02*
X100729842Y-47812262D01*
X111857694Y-46792262D02*
X111857694Y-49762262D01*
X113857694Y-46782262D02*
X113847694Y-49772262D01*
X111857694Y-49772262D02*
X113847694Y-49772262D01*
X112867694Y-49982262D02*
X112867694Y-48862262D01*
X112867694Y-46522262D02*
X112867694Y-47802262D01*
X111857694Y-46782262D02*
X113857694Y-46782262D01*
X112867694Y-47912262D02*
X113407694Y-48862262D01*
X112857694Y-47922262D02*
X112327694Y-48832262D01*
X112327694Y-48862262D02*
X113407694Y-48862262D01*
X112327694Y-47812262D02*
X113407694Y-47812262D01*
X124535546Y-46792262D02*
X124535546Y-49762262D01*
X126535546Y-46782262D02*
X126525546Y-49772262D01*
X124535546Y-49772262D02*
X126525546Y-49772262D01*
X125545546Y-49982262D02*
X125545546Y-48862262D01*
X125545546Y-46522262D02*
X125545546Y-47802262D01*
X124535546Y-46782262D02*
X126535546Y-46782262D01*
X125545546Y-47912262D02*
X126085546Y-48862262D01*
X125535546Y-47922262D02*
X125005546Y-48832262D01*
X125005546Y-48862262D02*
X126085546Y-48862262D01*
X125005546Y-47812262D02*
X126085546Y-47812262D01*
X137213398Y-46792262D02*
X137213398Y-49762262D01*
X139213398Y-46782262D02*
X139203398Y-49772262D01*
X137213398Y-49772262D02*
X139203398Y-49772262D01*
X138223398Y-49982262D02*
X138223398Y-48862262D01*
X138223398Y-46522262D02*
X138223398Y-47802262D01*
X137213398Y-46782262D02*
X139213398Y-46782262D01*
X138223398Y-47912262D02*
X138763398Y-48862262D01*
X138213398Y-47922262D02*
X137683398Y-48832262D01*
X137683398Y-48862262D02*
X138763398Y-48862262D01*
X137683398Y-47812262D02*
X138763398Y-47812262D01*
X149891250Y-46792262D02*
X149891250Y-49762262D01*
X151891250Y-46782262D02*
X151881250Y-49772262D01*
X149891250Y-49772262D02*
X151881250Y-49772262D01*
X150901250Y-49982262D02*
X150901250Y-48862262D01*
X150901250Y-46522262D02*
X150901250Y-47802262D01*
X149891250Y-46782262D02*
X151891250Y-46782262D01*
X150901250Y-47912262D02*
X151441250Y-48862262D01*
X150891250Y-47922262D02*
X150361250Y-48832262D01*
X150361250Y-48862262D02*
X151441250Y-48862262D01*
X150361250Y-47812262D02*
X151441250Y-47812262D01*
X162569102Y-46792262D02*
X162569102Y-49762262D01*
X164569102Y-46782262D02*
X164559102Y-49772262D01*
X162569102Y-49772262D02*
X164559102Y-49772262D01*
X163579102Y-49982262D02*
X163579102Y-48862262D01*
X163579102Y-46522262D02*
X163579102Y-47802262D01*
X162569102Y-46782262D02*
X164569102Y-46782262D01*
X163579102Y-47912262D02*
X164119102Y-48862262D01*
X163569102Y-47922262D02*
X163039102Y-48832262D01*
X163039102Y-48862262D02*
X164119102Y-48862262D01*
X163039102Y-47812262D02*
X164119102Y-47812262D01*
X175246954Y-46792262D02*
X175246954Y-49762262D01*
X177246954Y-46782262D02*
X177236954Y-49772262D01*
X175246954Y-49772262D02*
X177236954Y-49772262D01*
X176256954Y-49982262D02*
X176256954Y-48862262D01*
X176256954Y-46522262D02*
X176256954Y-47802262D01*
X175246954Y-46782262D02*
X177246954Y-46782262D01*
X176256954Y-47912262D02*
X176796954Y-48862262D01*
X176246954Y-47922262D02*
X175716954Y-48832262D01*
X175716954Y-48862262D02*
X176796954Y-48862262D01*
X175716954Y-47812262D02*
X176796954Y-47812262D01*
X187924806Y-46792262D02*
X187924806Y-49762262D01*
X189924806Y-46782262D02*
X189914806Y-49772262D01*
X187924806Y-49772262D02*
X189914806Y-49772262D01*
X188934806Y-49982262D02*
X188934806Y-48862262D01*
X188934806Y-46522262D02*
X188934806Y-47802262D01*
X187924806Y-46782262D02*
X189924806Y-46782262D01*
X188934806Y-47912262D02*
X189474806Y-48862262D01*
X188924806Y-47922262D02*
X188394806Y-48832262D01*
X188394806Y-48862262D02*
X189474806Y-48862262D01*
X188394806Y-47812262D02*
X189474806Y-47812262D01*
X200602658Y-46792262D02*
X200602658Y-49762262D01*
X202602658Y-46782262D02*
X202592658Y-49772262D01*
X200602658Y-49772262D02*
X202592658Y-49772262D01*
X201612658Y-49982262D02*
X201612658Y-48862262D01*
X201612658Y-46522262D02*
X201612658Y-47802262D01*
X200602658Y-46782262D02*
X202602658Y-46782262D01*
X201612658Y-47912262D02*
X202152658Y-48862262D01*
X201602658Y-47922262D02*
X201072658Y-48832262D01*
X201072658Y-48862262D02*
X202152658Y-48862262D01*
X201072658Y-47812262D02*
X202152658Y-47812262D01*
X213210526Y-46792262D02*
X213210526Y-49762262D01*
X215210526Y-46782262D02*
X215200526Y-49772262D01*
X213210526Y-49772262D02*
X215200526Y-49772262D01*
X214220526Y-49982262D02*
X214220526Y-48862262D01*
X214220526Y-46522262D02*
X214220526Y-47802262D01*
X213210526Y-46782262D02*
X215210526Y-46782262D01*
X214220526Y-47912262D02*
X214760526Y-48862262D01*
X214210526Y-47922262D02*
X213680526Y-48832262D01*
X213680526Y-48862262D02*
X214760526Y-48862262D01*
X213680526Y-47812262D02*
X214760526Y-47812262D01*
X260410079Y-51752849D02*
X260410079Y-54722849D01*
X262410079Y-51742849D02*
X262400079Y-54732849D01*
X260410079Y-54732849D02*
X262400079Y-54732849D01*
X261420079Y-54942849D02*
X261420079Y-53822849D01*
X261420079Y-51482849D02*
X261420079Y-52762849D01*
X260410079Y-51742849D02*
X262410079Y-51742849D01*
X261420079Y-52872849D02*
X261960079Y-53822849D01*
X261410079Y-52882849D02*
X260880079Y-53792849D01*
X260880079Y-53822849D02*
X261960079Y-53822849D01*
X260880079Y-52772849D02*
X261960079Y-52772849D01*
X51637897Y-48445791D02*
X51637897Y-51415791D01*
X53637897Y-48435791D02*
X53627897Y-51425791D01*
X51637897Y-51425791D02*
X53627897Y-51425791D01*
X52647897Y-51635791D02*
X52647897Y-50515791D01*
X52647897Y-48175791D02*
X52647897Y-49455791D01*
X51637897Y-48435791D02*
X53637897Y-48435791D01*
X52647897Y-49565791D02*
X53187897Y-50515791D01*
X52637897Y-49575791D02*
X52107897Y-50485791D01*
X52107897Y-50515791D02*
X53187897Y-50515791D01*
X52107897Y-49465791D02*
X53187897Y-49465791D01*
X67485212Y-50099320D02*
X67485212Y-53069320D01*
X69485212Y-50089320D02*
X69475212Y-53079320D01*
X67485212Y-53079320D02*
X69475212Y-53079320D01*
X68495212Y-53289320D02*
X68495212Y-52169320D01*
X68495212Y-49829320D02*
X68495212Y-51109320D01*
X67485212Y-50089320D02*
X69485212Y-50089320D01*
X68495212Y-51219320D02*
X69035212Y-52169320D01*
X68485212Y-51229320D02*
X67955212Y-52139320D01*
X67955212Y-52169320D02*
X69035212Y-52169320D01*
X67955212Y-51119320D02*
X69035212Y-51119320D01*
X76993601Y-48445791D02*
X76993601Y-51415791D01*
X78993601Y-48435791D02*
X78983601Y-51425791D01*
X76993601Y-51425791D02*
X78983601Y-51425791D01*
X78003601Y-51635791D02*
X78003601Y-50515791D01*
X78003601Y-48175791D02*
X78003601Y-49455791D01*
X76993601Y-48435791D02*
X78993601Y-48435791D01*
X78003601Y-49565791D02*
X78543601Y-50515791D01*
X77993601Y-49575791D02*
X77463601Y-50485791D01*
X77463601Y-50515791D02*
X78543601Y-50515791D01*
X77463601Y-49465791D02*
X78543601Y-49465791D01*
X89671453Y-48445791D02*
X89671453Y-51415791D01*
X91671453Y-48435791D02*
X91661453Y-51425791D01*
X89671453Y-51425791D02*
X91661453Y-51425791D01*
X90681453Y-51635791D02*
X90681453Y-50515791D01*
X90681453Y-48175791D02*
X90681453Y-49455791D01*
X89671453Y-48435791D02*
X91671453Y-48435791D01*
X90681453Y-49565791D02*
X91221453Y-50515791D01*
X90671453Y-49575791D02*
X90141453Y-50485791D01*
X90141453Y-50515791D02*
X91221453Y-50515791D01*
X90141453Y-49465791D02*
X91221453Y-49465791D01*
X102349305Y-48445791D02*
X102349305Y-51415791D01*
X104349305Y-48435791D02*
X104339305Y-51425791D01*
X102349305Y-51425791D02*
X104339305Y-51425791D01*
X103359305Y-51635791D02*
X103359305Y-50515791D01*
X103359305Y-48175791D02*
X103359305Y-49455791D01*
X102349305Y-48435791D02*
X104349305Y-48435791D01*
X103359305Y-49565791D02*
X103899305Y-50515791D01*
X103349305Y-49575791D02*
X102819305Y-50485791D01*
X102819305Y-50515791D02*
X103899305Y-50515791D01*
X102819305Y-49465791D02*
X103899305Y-49465791D01*
X115027157Y-48445791D02*
X115027157Y-51415791D01*
X117027157Y-48435791D02*
X117017157Y-51425791D01*
X115027157Y-51425791D02*
X117017157Y-51425791D01*
X116037157Y-51635791D02*
X116037157Y-50515791D01*
X116037157Y-48175791D02*
X116037157Y-49455791D01*
X115027157Y-48435791D02*
X117027157Y-48435791D01*
X116037157Y-49565791D02*
X116577157Y-50515791D01*
X116027157Y-49575791D02*
X115497157Y-50485791D01*
X115497157Y-50515791D02*
X116577157Y-50515791D01*
X115497157Y-49465791D02*
X116577157Y-49465791D01*
X127705009Y-48445791D02*
X127705009Y-51415791D01*
X129705009Y-48435791D02*
X129695009Y-51425791D01*
X127705009Y-51425791D02*
X129695009Y-51425791D01*
X128715009Y-51635791D02*
X128715009Y-50515791D01*
X128715009Y-48175791D02*
X128715009Y-49455791D01*
X127705009Y-48435791D02*
X129705009Y-48435791D01*
X128715009Y-49565791D02*
X129255009Y-50515791D01*
X128705009Y-49575791D02*
X128175009Y-50485791D01*
X128175009Y-50515791D02*
X129255009Y-50515791D01*
X128175009Y-49465791D02*
X129255009Y-49465791D01*
X140382861Y-48445791D02*
X140382861Y-51415791D01*
X142382861Y-48435791D02*
X142372861Y-51425791D01*
X140382861Y-51425791D02*
X142372861Y-51425791D01*
X141392861Y-51635791D02*
X141392861Y-50515791D01*
X141392861Y-48175791D02*
X141392861Y-49455791D01*
X140382861Y-48435791D02*
X142382861Y-48435791D01*
X141392861Y-49565791D02*
X141932861Y-50515791D01*
X141382861Y-49575791D02*
X140852861Y-50485791D01*
X140852861Y-50515791D02*
X141932861Y-50515791D01*
X140852861Y-49465791D02*
X141932861Y-49465791D01*
X153060713Y-48445791D02*
X153060713Y-51415791D01*
X155060713Y-48435791D02*
X155050713Y-51425791D01*
X153060713Y-51425791D02*
X155050713Y-51425791D01*
X154070713Y-51635791D02*
X154070713Y-50515791D01*
X154070713Y-48175791D02*
X154070713Y-49455791D01*
X153060713Y-48435791D02*
X155060713Y-48435791D01*
X154070713Y-49565791D02*
X154610713Y-50515791D01*
X154060713Y-49575791D02*
X153530713Y-50485791D01*
X153530713Y-50515791D02*
X154610713Y-50515791D01*
X153530713Y-49465791D02*
X154610713Y-49465791D01*
X165738565Y-48445791D02*
X165738565Y-51415791D01*
X167738565Y-48435791D02*
X167728565Y-51425791D01*
X165738565Y-51425791D02*
X167728565Y-51425791D01*
X166748565Y-51635791D02*
X166748565Y-50515791D01*
X166748565Y-48175791D02*
X166748565Y-49455791D01*
X165738565Y-48435791D02*
X167738565Y-48435791D01*
X166748565Y-49565791D02*
X167288565Y-50515791D01*
X166738565Y-49575791D02*
X166208565Y-50485791D01*
X166208565Y-50515791D02*
X167288565Y-50515791D01*
X166208565Y-49465791D02*
X167288565Y-49465791D01*
X178416417Y-48445791D02*
X178416417Y-51415791D01*
X180416417Y-48435791D02*
X180406417Y-51425791D01*
X178416417Y-51425791D02*
X180406417Y-51425791D01*
X179426417Y-51635791D02*
X179426417Y-50515791D01*
X179426417Y-48175791D02*
X179426417Y-49455791D01*
X178416417Y-48435791D02*
X180416417Y-48435791D01*
X179426417Y-49565791D02*
X179966417Y-50515791D01*
X179416417Y-49575791D02*
X178886417Y-50485791D01*
X178886417Y-50515791D02*
X179966417Y-50515791D01*
X178886417Y-49465791D02*
X179966417Y-49465791D01*
X191094269Y-48445791D02*
X191094269Y-51415791D01*
X193094269Y-48435791D02*
X193084269Y-51425791D01*
X191094269Y-51425791D02*
X193084269Y-51425791D01*
X192104269Y-51635791D02*
X192104269Y-50515791D01*
X192104269Y-48175791D02*
X192104269Y-49455791D01*
X191094269Y-48435791D02*
X193094269Y-48435791D01*
X192104269Y-49565791D02*
X192644269Y-50515791D01*
X192094269Y-49575791D02*
X191564269Y-50485791D01*
X191564269Y-50515791D02*
X192644269Y-50515791D01*
X191564269Y-49465791D02*
X192644269Y-49465791D01*
X203754625Y-48445791D02*
X203754625Y-51415791D01*
X205754625Y-48435791D02*
X205744625Y-51425791D01*
X203754625Y-51425791D02*
X205744625Y-51425791D01*
X204764625Y-51635791D02*
X204764625Y-50515791D01*
X204764625Y-48175791D02*
X204764625Y-49455791D01*
X203754625Y-48435791D02*
X205754625Y-48435791D01*
X204764625Y-49565791D02*
X205304625Y-50515791D01*
X204754625Y-49575791D02*
X204224625Y-50485791D01*
X204224625Y-50515791D02*
X205304625Y-50515791D01*
X204224625Y-49465791D02*
X205304625Y-49465791D01*
X216361299Y-48445791D02*
X216361299Y-51415791D01*
X218361299Y-48435791D02*
X218351299Y-51425791D01*
X216361299Y-51425791D02*
X218351299Y-51425791D01*
X217371299Y-51635791D02*
X217371299Y-50515791D01*
X217371299Y-48175791D02*
X217371299Y-49455791D01*
X216361299Y-48435791D02*
X218361299Y-48435791D01*
X217371299Y-49565791D02*
X217911299Y-50515791D01*
X217361299Y-49575791D02*
X216831299Y-50485791D01*
X216831299Y-50515791D02*
X217911299Y-50515791D01*
X216831299Y-49465791D02*
X217911299Y-49465791D01*
X257321355Y-50099320D02*
X257321355Y-53069320D01*
X259321355Y-50089320D02*
X259311355Y-53079320D01*
X257321355Y-53079320D02*
X259311355Y-53079320D01*
X258331355Y-53289320D02*
X258331355Y-52169320D01*
X258331355Y-49829320D02*
X258331355Y-51109320D01*
X257321355Y-50089320D02*
X259321355Y-50089320D01*
X258331355Y-51219320D02*
X258871355Y-52169320D01*
X258321355Y-51229320D02*
X257791355Y-52139320D01*
X257791355Y-52169320D02*
X258871355Y-52169320D01*
X257791355Y-51119320D02*
X258871355Y-51119320D01*
X54807360Y-50099320D02*
X54807360Y-53069320D01*
X56807360Y-50089320D02*
X56797360Y-53079320D01*
X54807360Y-53079320D02*
X56797360Y-53079320D01*
X55817360Y-53289320D02*
X55817360Y-52169320D01*
X55817360Y-49829320D02*
X55817360Y-51109320D01*
X54807360Y-50089320D02*
X56807360Y-50089320D01*
X55817360Y-51219320D02*
X56357360Y-52169320D01*
X55807360Y-51229320D02*
X55277360Y-52139320D01*
X55277360Y-52169320D02*
X56357360Y-52169320D01*
X55277360Y-51119320D02*
X56357360Y-51119320D01*
X64315749Y-48445791D02*
X64315749Y-51415791D01*
X66315749Y-48435791D02*
X66305749Y-51425791D01*
X64315749Y-51425791D02*
X66305749Y-51425791D01*
X65325749Y-51635791D02*
X65325749Y-50515791D01*
X65325749Y-48175791D02*
X65325749Y-49455791D01*
X64315749Y-48435791D02*
X66315749Y-48435791D01*
X65325749Y-49565791D02*
X65865749Y-50515791D01*
X65315749Y-49575791D02*
X64785749Y-50485791D01*
X64785749Y-50515791D02*
X65865749Y-50515791D01*
X64785749Y-49465791D02*
X65865749Y-49465791D01*
X80163064Y-50099320D02*
X80163064Y-53069320D01*
X82163064Y-50089320D02*
X82153064Y-53079320D01*
X80163064Y-53079320D02*
X82153064Y-53079320D01*
X81173064Y-53289320D02*
X81173064Y-52169320D01*
X81173064Y-49829320D02*
X81173064Y-51109320D01*
X80163064Y-50089320D02*
X82163064Y-50089320D01*
X81173064Y-51219320D02*
X81713064Y-52169320D01*
X81163064Y-51229320D02*
X80633064Y-52139320D01*
X80633064Y-52169320D02*
X81713064Y-52169320D01*
X80633064Y-51119320D02*
X81713064Y-51119320D01*
X92840916Y-50099320D02*
X92840916Y-53069320D01*
X94840916Y-50089320D02*
X94830916Y-53079320D01*
X92840916Y-53079320D02*
X94830916Y-53079320D01*
X93850916Y-53289320D02*
X93850916Y-52169320D01*
X93850916Y-49829320D02*
X93850916Y-51109320D01*
X92840916Y-50089320D02*
X94840916Y-50089320D01*
X93850916Y-51219320D02*
X94390916Y-52169320D01*
X93840916Y-51229320D02*
X93310916Y-52139320D01*
X93310916Y-52169320D02*
X94390916Y-52169320D01*
X93310916Y-51119320D02*
X94390916Y-51119320D01*
X105518768Y-50099320D02*
X105518768Y-53069320D01*
X107518768Y-50089320D02*
X107508768Y-53079320D01*
X105518768Y-53079320D02*
X107508768Y-53079320D01*
X106528768Y-53289320D02*
X106528768Y-52169320D01*
X106528768Y-49829320D02*
X106528768Y-51109320D01*
X105518768Y-50089320D02*
X107518768Y-50089320D01*
X106528768Y-51219320D02*
X107068768Y-52169320D01*
X106518768Y-51229320D02*
X105988768Y-52139320D01*
X105988768Y-52169320D02*
X107068768Y-52169320D01*
X105988768Y-51119320D02*
X107068768Y-51119320D01*
X118196620Y-50099320D02*
X118196620Y-53069320D01*
X120196620Y-50089320D02*
X120186620Y-53079320D01*
X118196620Y-53079320D02*
X120186620Y-53079320D01*
X119206620Y-53289320D02*
X119206620Y-52169320D01*
X119206620Y-49829320D02*
X119206620Y-51109320D01*
X118196620Y-50089320D02*
X120196620Y-50089320D01*
X119206620Y-51219320D02*
X119746620Y-52169320D01*
X119196620Y-51229320D02*
X118666620Y-52139320D01*
X118666620Y-52169320D02*
X119746620Y-52169320D01*
X118666620Y-51119320D02*
X119746620Y-51119320D01*
X130874472Y-50099320D02*
X130874472Y-53069320D01*
X132874472Y-50089320D02*
X132864472Y-53079320D01*
X130874472Y-53079320D02*
X132864472Y-53079320D01*
X131884472Y-53289320D02*
X131884472Y-52169320D01*
X131884472Y-49829320D02*
X131884472Y-51109320D01*
X130874472Y-50089320D02*
X132874472Y-50089320D01*
X131884472Y-51219320D02*
X132424472Y-52169320D01*
X131874472Y-51229320D02*
X131344472Y-52139320D01*
X131344472Y-52169320D02*
X132424472Y-52169320D01*
X131344472Y-51119320D02*
X132424472Y-51119320D01*
X143552324Y-50099320D02*
X143552324Y-53069320D01*
X145552324Y-50089320D02*
X145542324Y-53079320D01*
X143552324Y-53079320D02*
X145542324Y-53079320D01*
X144562324Y-53289320D02*
X144562324Y-52169320D01*
X144562324Y-49829320D02*
X144562324Y-51109320D01*
X143552324Y-50089320D02*
X145552324Y-50089320D01*
X144562324Y-51219320D02*
X145102324Y-52169320D01*
X144552324Y-51229320D02*
X144022324Y-52139320D01*
X144022324Y-52169320D02*
X145102324Y-52169320D01*
X144022324Y-51119320D02*
X145102324Y-51119320D01*
X156230176Y-50099320D02*
X156230176Y-53069320D01*
X158230176Y-50089320D02*
X158220176Y-53079320D01*
X156230176Y-53079320D02*
X158220176Y-53079320D01*
X157240176Y-53289320D02*
X157240176Y-52169320D01*
X157240176Y-49829320D02*
X157240176Y-51109320D01*
X156230176Y-50089320D02*
X158230176Y-50089320D01*
X157240176Y-51219320D02*
X157780176Y-52169320D01*
X157230176Y-51229320D02*
X156700176Y-52139320D01*
X156700176Y-52169320D02*
X157780176Y-52169320D01*
X156700176Y-51119320D02*
X157780176Y-51119320D01*
X168908028Y-50099320D02*
X168908028Y-53069320D01*
X170908028Y-50089320D02*
X170898028Y-53079320D01*
X168908028Y-53079320D02*
X170898028Y-53079320D01*
X169918028Y-53289320D02*
X169918028Y-52169320D01*
X169918028Y-49829320D02*
X169918028Y-51109320D01*
X168908028Y-50089320D02*
X170908028Y-50089320D01*
X169918028Y-51219320D02*
X170458028Y-52169320D01*
X169908028Y-51229320D02*
X169378028Y-52139320D01*
X169378028Y-52169320D02*
X170458028Y-52169320D01*
X169378028Y-51119320D02*
X170458028Y-51119320D01*
X181585880Y-50099320D02*
X181585880Y-53069320D01*
X183585880Y-50089320D02*
X183575880Y-53079320D01*
X181585880Y-53079320D02*
X183575880Y-53079320D01*
X182595880Y-53289320D02*
X182595880Y-52169320D01*
X182595880Y-49829320D02*
X182595880Y-51109320D01*
X181585880Y-50089320D02*
X183585880Y-50089320D01*
X182595880Y-51219320D02*
X183135880Y-52169320D01*
X182585880Y-51229320D02*
X182055880Y-52139320D01*
X182055880Y-52169320D02*
X183135880Y-52169320D01*
X182055880Y-51119320D02*
X183135880Y-51119320D01*
X194263732Y-50099320D02*
X194263732Y-53069320D01*
X196263732Y-50089320D02*
X196253732Y-53079320D01*
X194263732Y-53079320D02*
X196253732Y-53079320D01*
X195273732Y-53289320D02*
X195273732Y-52169320D01*
X195273732Y-49829320D02*
X195273732Y-51109320D01*
X194263732Y-50089320D02*
X196263732Y-50089320D01*
X195273732Y-51219320D02*
X195813732Y-52169320D01*
X195263732Y-51229320D02*
X194733732Y-52139320D01*
X194733732Y-52169320D02*
X195813732Y-52169320D01*
X194733732Y-51119320D02*
X195813732Y-51119320D01*
X219512072Y-50099320D02*
X219512072Y-53069320D01*
X221512072Y-50089320D02*
X221502072Y-53079320D01*
X219512072Y-53079320D02*
X221502072Y-53079320D01*
X220522072Y-53289320D02*
X220522072Y-52169320D01*
X220522072Y-49829320D02*
X220522072Y-51109320D01*
X219512072Y-50089320D02*
X221512072Y-50089320D01*
X220522072Y-51219320D02*
X221062072Y-52169320D01*
X220512072Y-51229320D02*
X219982072Y-52139320D01*
X219982072Y-52169320D02*
X221062072Y-52169320D01*
X219982072Y-51119320D02*
X221062072Y-51119320D01*
X254232631Y-48445791D02*
X254232631Y-51415791D01*
X256232631Y-48435791D02*
X256222631Y-51425791D01*
X254232631Y-51425791D02*
X256222631Y-51425791D01*
X255242631Y-51635791D02*
X255242631Y-50515791D01*
X255242631Y-48175791D02*
X255242631Y-49455791D01*
X254232631Y-48435791D02*
X256232631Y-48435791D01*
X255242631Y-49565791D02*
X255782631Y-50515791D01*
X255232631Y-49575791D02*
X254702631Y-50485791D01*
X254702631Y-50515791D02*
X255782631Y-50515791D01*
X254702631Y-49465791D02*
X255782631Y-49465791D01*
X83332527Y-51752849D02*
X83332527Y-54722849D01*
X85332527Y-51742849D02*
X85322527Y-54732849D01*
X83332527Y-54732849D02*
X85322527Y-54732849D01*
X84342527Y-54942849D02*
X84342527Y-53822849D01*
X84342527Y-51482849D02*
X84342527Y-52762849D01*
X83332527Y-51742849D02*
X85332527Y-51742849D01*
X84342527Y-52872849D02*
X84882527Y-53822849D01*
X84332527Y-52882849D02*
X83802527Y-53792849D01*
X83802527Y-53822849D02*
X84882527Y-53822849D01*
X83802527Y-52772849D02*
X84882527Y-52772849D01*
X96010379Y-51752849D02*
X96010379Y-54722849D01*
X98010379Y-51742849D02*
X98000379Y-54732849D01*
X96010379Y-54732849D02*
X98000379Y-54732849D01*
X97020379Y-54942849D02*
X97020379Y-53822849D01*
X97020379Y-51482849D02*
X97020379Y-52762849D01*
X96010379Y-51742849D02*
X98010379Y-51742849D01*
X97020379Y-52872849D02*
X97560379Y-53822849D01*
X97010379Y-52882849D02*
X96480379Y-53792849D01*
X96480379Y-53822849D02*
X97560379Y-53822849D01*
X96480379Y-52772849D02*
X97560379Y-52772849D01*
X108688231Y-51752849D02*
X108688231Y-54722849D01*
X110688231Y-51742849D02*
X110678231Y-54732849D01*
X108688231Y-54732849D02*
X110678231Y-54732849D01*
X109698231Y-54942849D02*
X109698231Y-53822849D01*
X109698231Y-51482849D02*
X109698231Y-52762849D01*
X108688231Y-51742849D02*
X110688231Y-51742849D01*
X109698231Y-52872849D02*
X110238231Y-53822849D01*
X109688231Y-52882849D02*
X109158231Y-53792849D01*
X109158231Y-53822849D02*
X110238231Y-53822849D01*
X109158231Y-52772849D02*
X110238231Y-52772849D01*
X121366083Y-51752849D02*
X121366083Y-54722849D01*
X123366083Y-51742849D02*
X123356083Y-54732849D01*
X121366083Y-54732849D02*
X123356083Y-54732849D01*
X122376083Y-54942849D02*
X122376083Y-53822849D01*
X122376083Y-51482849D02*
X122376083Y-52762849D01*
X121366083Y-51742849D02*
X123366083Y-51742849D01*
X122376083Y-52872849D02*
X122916083Y-53822849D01*
X122366083Y-52882849D02*
X121836083Y-53792849D01*
X121836083Y-53822849D02*
X122916083Y-53822849D01*
X121836083Y-52772849D02*
X122916083Y-52772849D01*
X134043935Y-51752849D02*
X134043935Y-54722849D01*
X136043935Y-51742849D02*
X136033935Y-54732849D01*
X134043935Y-54732849D02*
X136033935Y-54732849D01*
X135053935Y-54942849D02*
X135053935Y-53822849D01*
X135053935Y-51482849D02*
X135053935Y-52762849D01*
X134043935Y-51742849D02*
X136043935Y-51742849D01*
X135053935Y-52872849D02*
X135593935Y-53822849D01*
X135043935Y-52882849D02*
X134513935Y-53792849D01*
X134513935Y-53822849D02*
X135593935Y-53822849D01*
X134513935Y-52772849D02*
X135593935Y-52772849D01*
X146721787Y-51752849D02*
X146721787Y-54722849D01*
X148721787Y-51742849D02*
X148711787Y-54732849D01*
X146721787Y-54732849D02*
X148711787Y-54732849D01*
X147731787Y-54942849D02*
X147731787Y-53822849D01*
X147731787Y-51482849D02*
X147731787Y-52762849D01*
X146721787Y-51742849D02*
X148721787Y-51742849D01*
X147731787Y-52872849D02*
X148271787Y-53822849D01*
X147721787Y-52882849D02*
X147191787Y-53792849D01*
X147191787Y-53822849D02*
X148271787Y-53822849D01*
X147191787Y-52772849D02*
X148271787Y-52772849D01*
X159399639Y-51752849D02*
X159399639Y-54722849D01*
X161399639Y-51742849D02*
X161389639Y-54732849D01*
X159399639Y-54732849D02*
X161389639Y-54732849D01*
X160409639Y-54942849D02*
X160409639Y-53822849D01*
X160409639Y-51482849D02*
X160409639Y-52762849D01*
X159399639Y-51742849D02*
X161399639Y-51742849D01*
X160409639Y-52872849D02*
X160949639Y-53822849D01*
X160399639Y-52882849D02*
X159869639Y-53792849D01*
X159869639Y-53822849D02*
X160949639Y-53822849D01*
X159869639Y-52772849D02*
X160949639Y-52772849D01*
X172077491Y-51752849D02*
X172077491Y-54722849D01*
X174077491Y-51742849D02*
X174067491Y-54732849D01*
X172077491Y-54732849D02*
X174067491Y-54732849D01*
X173087491Y-54942849D02*
X173087491Y-53822849D01*
X173087491Y-51482849D02*
X173087491Y-52762849D01*
X172077491Y-51742849D02*
X174077491Y-51742849D01*
X173087491Y-52872849D02*
X173627491Y-53822849D01*
X173077491Y-52882849D02*
X172547491Y-53792849D01*
X172547491Y-53822849D02*
X173627491Y-53822849D01*
X172547491Y-52772849D02*
X173627491Y-52772849D01*
X184755343Y-51752849D02*
X184755343Y-54722849D01*
X186755343Y-51742849D02*
X186745343Y-54732849D01*
X184755343Y-54732849D02*
X186745343Y-54732849D01*
X185765343Y-54942849D02*
X185765343Y-53822849D01*
X185765343Y-51482849D02*
X185765343Y-52762849D01*
X184755343Y-51742849D02*
X186755343Y-51742849D01*
X185765343Y-52872849D02*
X186305343Y-53822849D01*
X185755343Y-52882849D02*
X185225343Y-53792849D01*
X185225343Y-53822849D02*
X186305343Y-53822849D01*
X185225343Y-52772849D02*
X186305343Y-52772849D01*
X197433195Y-51752849D02*
X197433195Y-54722849D01*
X199433195Y-51742849D02*
X199423195Y-54732849D01*
X197433195Y-54732849D02*
X199423195Y-54732849D01*
X198443195Y-54942849D02*
X198443195Y-53822849D01*
X198443195Y-51482849D02*
X198443195Y-52762849D01*
X197433195Y-51742849D02*
X199433195Y-51742849D01*
X198443195Y-52872849D02*
X198983195Y-53822849D01*
X198433195Y-52882849D02*
X197903195Y-53792849D01*
X197903195Y-53822849D02*
X198983195Y-53822849D01*
X197903195Y-52772849D02*
X198983195Y-52772849D01*
X206906592Y-50099320D02*
X206906592Y-53069320D01*
X208906592Y-50089320D02*
X208896592Y-53079320D01*
X206906592Y-53079320D02*
X208896592Y-53079320D01*
X207916592Y-53289320D02*
X207916592Y-52169320D01*
X207916592Y-49829320D02*
X207916592Y-51109320D01*
X206906592Y-50089320D02*
X208906592Y-50089320D01*
X207916592Y-51219320D02*
X208456592Y-52169320D01*
X207906592Y-51229320D02*
X207376592Y-52139320D01*
X207376592Y-52169320D02*
X208456592Y-52169320D01*
X207376592Y-51119320D02*
X208456592Y-51119320D01*
X222662845Y-51752849D02*
X222662845Y-54722849D01*
X224662845Y-51742849D02*
X224652845Y-54732849D01*
X222662845Y-54732849D02*
X224652845Y-54732849D01*
X223672845Y-54942849D02*
X223672845Y-53822849D01*
X223672845Y-51482849D02*
X223672845Y-52762849D01*
X222662845Y-51742849D02*
X224662845Y-51742849D01*
X223672845Y-52872849D02*
X224212845Y-53822849D01*
X223662845Y-52882849D02*
X223132845Y-53792849D01*
X223132845Y-53822849D02*
X224212845Y-53822849D01*
X223132845Y-52772849D02*
X224212845Y-52772849D01*
X250957756Y-46792262D02*
X250957756Y-49762262D01*
X252957756Y-46782262D02*
X252947756Y-49772262D01*
X250957756Y-49772262D02*
X252947756Y-49772262D01*
X251967756Y-49982262D02*
X251967756Y-48862262D01*
X251967756Y-46522262D02*
X251967756Y-47802262D01*
X250957756Y-46782262D02*
X252957756Y-46782262D01*
X251967756Y-47912262D02*
X252507756Y-48862262D01*
X251957756Y-47922262D02*
X251427756Y-48832262D01*
X251427756Y-48862262D02*
X252507756Y-48862262D01*
X251427756Y-47812262D02*
X252507756Y-47812262D01*
X244656208Y-50099320D02*
X244656208Y-53069320D01*
X246656208Y-50089320D02*
X246646208Y-53079320D01*
X244656208Y-53079320D02*
X246646208Y-53079320D01*
X245666208Y-53289320D02*
X245666208Y-52169320D01*
X245666208Y-49829320D02*
X245666208Y-51109320D01*
X244656208Y-50089320D02*
X246656208Y-50089320D01*
X245666208Y-51219320D02*
X246206208Y-52169320D01*
X245656208Y-51229320D02*
X245126208Y-52139320D01*
X245126208Y-52169320D02*
X246206208Y-52169320D01*
X245126208Y-51119320D02*
X246206208Y-51119320D01*
X61146286Y-46792262D02*
X61146286Y-49762262D01*
X63146286Y-46782262D02*
X63136286Y-49772262D01*
X61146286Y-49772262D02*
X63136286Y-49772262D01*
X62156286Y-49982262D02*
X62156286Y-48862262D01*
X62156286Y-46522262D02*
X62156286Y-47802262D01*
X61146286Y-46782262D02*
X63146286Y-46782262D01*
X62156286Y-47912262D02*
X62696286Y-48862262D01*
X62146286Y-47922262D02*
X61616286Y-48832262D01*
X61616286Y-48862262D02*
X62696286Y-48862262D01*
X61616286Y-47812262D02*
X62696286Y-47812262D01*
X241505434Y-48445791D02*
X241505434Y-51415791D01*
X243505434Y-48435791D02*
X243495434Y-51425791D01*
X241505434Y-51425791D02*
X243495434Y-51425791D01*
X242515434Y-51635791D02*
X242515434Y-50515791D01*
X242515434Y-48175791D02*
X242515434Y-49455791D01*
X241505434Y-48435791D02*
X243505434Y-48435791D01*
X242515434Y-49565791D02*
X243055434Y-50515791D01*
X242505434Y-49575791D02*
X241975434Y-50485791D01*
X241975434Y-50515791D02*
X243055434Y-50515791D01*
X241975434Y-49465791D02*
X243055434Y-49465791D01*
X238354661Y-46792262D02*
X238354661Y-49762262D01*
X240354661Y-46782262D02*
X240344661Y-49772262D01*
X238354661Y-49772262D02*
X240344661Y-49772262D01*
X239364661Y-49982262D02*
X239364661Y-48862262D01*
X239364661Y-46522262D02*
X239364661Y-47802262D01*
X238354661Y-46782262D02*
X240354661Y-46782262D01*
X239364661Y-47912262D02*
X239904661Y-48862262D01*
X239354661Y-47922262D02*
X238824661Y-48832262D01*
X238824661Y-48862262D02*
X239904661Y-48862262D01*
X238824661Y-47812262D02*
X239904661Y-47812262D01*
X235203888Y-51752849D02*
X235203888Y-54722849D01*
X237203888Y-51742849D02*
X237193888Y-54732849D01*
X235203888Y-54732849D02*
X237193888Y-54732849D01*
X236213888Y-54942849D02*
X236213888Y-53822849D01*
X236213888Y-51482849D02*
X236213888Y-52762849D01*
X235203888Y-51742849D02*
X237203888Y-51742849D01*
X236213888Y-52872849D02*
X236753888Y-53822849D01*
X236203888Y-52882849D02*
X235673888Y-53792849D01*
X235673888Y-53822849D02*
X236753888Y-53822849D01*
X235673888Y-52772849D02*
X236753888Y-52772849D01*
X210058559Y-51752849D02*
X210058559Y-54722849D01*
X212058559Y-51742849D02*
X212048559Y-54732849D01*
X210058559Y-54732849D02*
X212048559Y-54732849D01*
X211068559Y-54942849D02*
X211068559Y-53822849D01*
X211068559Y-51482849D02*
X211068559Y-52762849D01*
X210058559Y-51742849D02*
X212058559Y-51742849D01*
X211068559Y-52872849D02*
X211608559Y-53822849D01*
X211058559Y-52882849D02*
X210528559Y-53792849D01*
X210528559Y-53822849D02*
X211608559Y-53822849D01*
X210528559Y-52772849D02*
X211608559Y-52772849D01*
X228964391Y-48445791D02*
X228964391Y-51415791D01*
X230964391Y-48435791D02*
X230954391Y-51425791D01*
X228964391Y-51425791D02*
X230954391Y-51425791D01*
X229974391Y-51635791D02*
X229974391Y-50515791D01*
X229974391Y-48175791D02*
X229974391Y-49455791D01*
X228964391Y-48435791D02*
X230964391Y-48435791D01*
X229974391Y-49565791D02*
X230514391Y-50515791D01*
X229964391Y-49575791D02*
X229434391Y-50485791D01*
X229434391Y-50515791D02*
X230514391Y-50515791D01*
X229434391Y-49465791D02*
X230514391Y-49465791D01*
X225813618Y-46792262D02*
X225813618Y-49762262D01*
X227813618Y-46782262D02*
X227803618Y-49772262D01*
X225813618Y-49772262D02*
X227803618Y-49772262D01*
X226823618Y-49982262D02*
X226823618Y-48862262D01*
X226823618Y-46522262D02*
X226823618Y-47802262D01*
X225813618Y-46782262D02*
X227813618Y-46782262D01*
X226823618Y-47912262D02*
X227363618Y-48862262D01*
X226813618Y-47922262D02*
X226283618Y-48832262D01*
X226283618Y-48862262D02*
X227363618Y-48862262D01*
X226283618Y-47812262D02*
X227363618Y-47812262D01*
X247806982Y-51752849D02*
X247806982Y-54722849D01*
X249806982Y-51742849D02*
X249796982Y-54732849D01*
X247806982Y-54732849D02*
X249796982Y-54732849D01*
X248816982Y-54942849D02*
X248816982Y-53822849D01*
X248816982Y-51482849D02*
X248816982Y-52762849D01*
X247806982Y-51742849D02*
X249806982Y-51742849D01*
X248816982Y-52872849D02*
X249356982Y-53822849D01*
X248806982Y-52882849D02*
X248276982Y-53792849D01*
X248276982Y-53822849D02*
X249356982Y-53822849D01*
X248276982Y-52772849D02*
X249356982Y-52772849D01*
X232053115Y-50099320D02*
X232053115Y-53069320D01*
X234053115Y-50089320D02*
X234043115Y-53079320D01*
X232053115Y-53079320D02*
X234043115Y-53079320D01*
X233063115Y-53289320D02*
X233063115Y-52169320D01*
X233063115Y-49829320D02*
X233063115Y-51109320D01*
X232053115Y-50089320D02*
X234053115Y-50089320D01*
X233063115Y-51219320D02*
X233603115Y-52169320D01*
X233053115Y-51229320D02*
X232523115Y-52139320D01*
X232523115Y-52169320D02*
X233603115Y-52169320D01*
X232523115Y-51119320D02*
X233603115Y-51119320D01*
X271043132Y-52478846D02*
X271043132Y-55448846D01*
X273043132Y-52468846D02*
X273033132Y-55458846D01*
X271043132Y-55458846D02*
X273033132Y-55458846D01*
X272053132Y-55668846D02*
X272053132Y-54548846D01*
X272053132Y-52208846D02*
X272053132Y-53488846D01*
X271043132Y-52468846D02*
X273043132Y-52468846D01*
X272053132Y-53598846D02*
X272593132Y-54548846D01*
X272043132Y-53608846D02*
X271513132Y-54518846D01*
X271513132Y-54548846D02*
X272593132Y-54548846D01*
X271513132Y-53498846D02*
X272593132Y-53498846D01*
X268173460Y-52478846D02*
X268173460Y-55448846D01*
X270173460Y-52468846D02*
X270163460Y-55458846D01*
X268173460Y-55458846D02*
X270163460Y-55458846D01*
X269183460Y-55668846D02*
X269183460Y-54548846D01*
X269183460Y-52208846D02*
X269183460Y-53488846D01*
X268173460Y-52468846D02*
X270173460Y-52468846D01*
X269183460Y-53598846D02*
X269723460Y-54548846D01*
X269173460Y-53608846D02*
X268643460Y-54518846D01*
X268643460Y-54548846D02*
X269723460Y-54548846D01*
X268643460Y-53498846D02*
X269723460Y-53498846D01*
D10*
X327712583Y-62377130D02*
X327664964Y-62424749D01*
X327522107Y-62472368D01*
X327426869Y-62472368D01*
X327284011Y-62424749D01*
X327188773Y-62329511D01*
X327141154Y-62234273D01*
X327093535Y-62043797D01*
X327093535Y-61900940D01*
X327141154Y-61710464D01*
X327188773Y-61615226D01*
X327284011Y-61519988D01*
X327426869Y-61472368D01*
X327522107Y-61472368D01*
X327664964Y-61519988D01*
X327712583Y-61567607D01*
X328664964Y-62472368D02*
X328093535Y-62472368D01*
X328379250Y-62472368D02*
X328379250Y-61472368D01*
X328284011Y-61615226D01*
X328188773Y-61710464D01*
X328093535Y-61758083D01*
X327008273Y-62965915D02*
X327055892Y-62918296D01*
X327151130Y-62870676D01*
X327389225Y-62870676D01*
X327484463Y-62918296D01*
X327532082Y-62965915D01*
X327579701Y-63061153D01*
X327579701Y-63156391D01*
X327532082Y-63299248D01*
X326960654Y-63870676D01*
X327579701Y-63870676D01*
X327960654Y-62965915D02*
X328008273Y-62918296D01*
X328103511Y-62870676D01*
X328341606Y-62870676D01*
X328436844Y-62918296D01*
X328484463Y-62965915D01*
X328532082Y-63061153D01*
X328532082Y-63156391D01*
X328484463Y-63299248D01*
X327913035Y-63870676D01*
X328532082Y-63870676D01*
X328960654Y-63204010D02*
X328960654Y-64204010D01*
X328960654Y-63251629D02*
X329055892Y-63204010D01*
X329246368Y-63204010D01*
X329341606Y-63251629D01*
X329389225Y-63299248D01*
X329436844Y-63394486D01*
X329436844Y-63680200D01*
X329389225Y-63775438D01*
X329341606Y-63823057D01*
X329246368Y-63870676D01*
X329055892Y-63870676D01*
X328960654Y-63823057D01*
X313434215Y-62429624D02*
X313386596Y-62477243D01*
X313243739Y-62524862D01*
X313148501Y-62524862D01*
X313005643Y-62477243D01*
X312910405Y-62382005D01*
X312862786Y-62286767D01*
X312815167Y-62096291D01*
X312815167Y-61953434D01*
X312862786Y-61762958D01*
X312910405Y-61667720D01*
X313005643Y-61572482D01*
X313148501Y-61524862D01*
X313243739Y-61524862D01*
X313386596Y-61572482D01*
X313434215Y-61620101D01*
X313815167Y-61620101D02*
X313862786Y-61572482D01*
X313958024Y-61524862D01*
X314196120Y-61524862D01*
X314291358Y-61572482D01*
X314338977Y-61620101D01*
X314386596Y-61715339D01*
X314386596Y-61810577D01*
X314338977Y-61953434D01*
X313767548Y-62524862D01*
X314386596Y-62524862D01*
X312520205Y-62965915D02*
X312567824Y-62918296D01*
X312663062Y-62870676D01*
X312901157Y-62870676D01*
X312996395Y-62918296D01*
X313044014Y-62965915D01*
X313091633Y-63061153D01*
X313091633Y-63156391D01*
X313044014Y-63299248D01*
X312472586Y-63870676D01*
X313091633Y-63870676D01*
X313472586Y-62965915D02*
X313520205Y-62918296D01*
X313615443Y-62870676D01*
X313853538Y-62870676D01*
X313948776Y-62918296D01*
X313996395Y-62965915D01*
X314044014Y-63061153D01*
X314044014Y-63156391D01*
X313996395Y-63299248D01*
X313424967Y-63870676D01*
X314044014Y-63870676D01*
X314472586Y-63204010D02*
X314472586Y-64204010D01*
X314472586Y-63251629D02*
X314567824Y-63204010D01*
X314758300Y-63204010D01*
X314853538Y-63251629D01*
X314901157Y-63299248D01*
X314948776Y-63394486D01*
X314948776Y-63680200D01*
X314901157Y-63775438D01*
X314853538Y-63823057D01*
X314758300Y-63870676D01*
X314567824Y-63870676D01*
X314472586Y-63823057D01*
X270091669Y-45334078D02*
X270044050Y-45381697D01*
X269901193Y-45429316D01*
X269805955Y-45429316D01*
X269663097Y-45381697D01*
X269567859Y-45286459D01*
X269520240Y-45191221D01*
X269472621Y-45000745D01*
X269472621Y-44857888D01*
X269520240Y-44667412D01*
X269567859Y-44572174D01*
X269663097Y-44476936D01*
X269805955Y-44429316D01*
X269901193Y-44429316D01*
X270044050Y-44476936D01*
X270091669Y-44524555D01*
X270425002Y-44429316D02*
X271044050Y-44429316D01*
X270710716Y-44810269D01*
X270853574Y-44810269D01*
X270948812Y-44857888D01*
X270996431Y-44905507D01*
X271044050Y-45000745D01*
X271044050Y-45238840D01*
X270996431Y-45334078D01*
X270948812Y-45381697D01*
X270853574Y-45429316D01*
X270567859Y-45429316D01*
X270472621Y-45381697D01*
X270425002Y-45334078D01*
X313276733Y-37547468D02*
X313229114Y-37595087D01*
X313086257Y-37642706D01*
X312991019Y-37642706D01*
X312848161Y-37595087D01*
X312752923Y-37499849D01*
X312705304Y-37404611D01*
X312657685Y-37214135D01*
X312657685Y-37071278D01*
X312705304Y-36880802D01*
X312752923Y-36785564D01*
X312848161Y-36690326D01*
X312991019Y-36642706D01*
X313086257Y-36642706D01*
X313229114Y-36690326D01*
X313276733Y-36737945D01*
X314133876Y-36976040D02*
X314133876Y-37642706D01*
X313895780Y-36595087D02*
X313657685Y-37309373D01*
X314276733Y-37309373D01*
X317612026Y-36729162D02*
X317707264Y-36729162D01*
X317802502Y-36776782D01*
X317850121Y-36824401D01*
X317897740Y-36919639D01*
X317945359Y-37110115D01*
X317945359Y-37348210D01*
X317897740Y-37538686D01*
X317850121Y-37633924D01*
X317802502Y-37681543D01*
X317707264Y-37729162D01*
X317612026Y-37729162D01*
X317516788Y-37681543D01*
X317469169Y-37633924D01*
X317421550Y-37538686D01*
X317373931Y-37348210D01*
X317373931Y-37110115D01*
X317421550Y-36919639D01*
X317469169Y-36824401D01*
X317516788Y-36776782D01*
X317612026Y-36729162D01*
X318373931Y-37633924D02*
X318421550Y-37681543D01*
X318373931Y-37729162D01*
X318326312Y-37681543D01*
X318373931Y-37633924D01*
X318373931Y-37729162D01*
X319373931Y-37729162D02*
X318802502Y-37729162D01*
X319088216Y-37729162D02*
X319088216Y-36729162D01*
X318992978Y-36872020D01*
X318897740Y-36967258D01*
X318802502Y-37014877D01*
X320231073Y-37062496D02*
X320231073Y-37729162D01*
X319802502Y-37062496D02*
X319802502Y-37586305D01*
X319850121Y-37681543D01*
X319945359Y-37729162D01*
X320088216Y-37729162D01*
X320183454Y-37681543D01*
X320231073Y-37633924D01*
X308674759Y-57302710D02*
X308627140Y-57350329D01*
X308484283Y-57397948D01*
X308389045Y-57397948D01*
X308246187Y-57350329D01*
X308150949Y-57255091D01*
X308103330Y-57159853D01*
X308055711Y-56969377D01*
X308055711Y-56826520D01*
X308103330Y-56636044D01*
X308150949Y-56540806D01*
X308246187Y-56445568D01*
X308389045Y-56397948D01*
X308484283Y-56397948D01*
X308627140Y-56445568D01*
X308674759Y-56493187D01*
X309579521Y-56397948D02*
X309103330Y-56397948D01*
X309055711Y-56874139D01*
X309103330Y-56826520D01*
X309198568Y-56778901D01*
X309436664Y-56778901D01*
X309531902Y-56826520D01*
X309579521Y-56874139D01*
X309627140Y-56969377D01*
X309627140Y-57207472D01*
X309579521Y-57302710D01*
X309531902Y-57350329D01*
X309436664Y-57397948D01*
X309198568Y-57397948D01*
X309103330Y-57350329D01*
X309055711Y-57302710D01*
X307795835Y-58408771D02*
X307891073Y-58408771D01*
X307986311Y-58456391D01*
X308033930Y-58504010D01*
X308081549Y-58599248D01*
X308129168Y-58789724D01*
X308129168Y-59027819D01*
X308081549Y-59218295D01*
X308033930Y-59313533D01*
X307986311Y-59361152D01*
X307891073Y-59408771D01*
X307795835Y-59408771D01*
X307700597Y-59361152D01*
X307652978Y-59313533D01*
X307605359Y-59218295D01*
X307557740Y-59027819D01*
X307557740Y-58789724D01*
X307605359Y-58599248D01*
X307652978Y-58504010D01*
X307700597Y-58456391D01*
X307795835Y-58408771D01*
X308557740Y-59313533D02*
X308605359Y-59361152D01*
X308557740Y-59408771D01*
X308510121Y-59361152D01*
X308557740Y-59313533D01*
X308557740Y-59408771D01*
X309557740Y-59408771D02*
X308986311Y-59408771D01*
X309272025Y-59408771D02*
X309272025Y-58408771D01*
X309176787Y-58551629D01*
X309081549Y-58646867D01*
X308986311Y-58694486D01*
X310414882Y-58742105D02*
X310414882Y-59408771D01*
X309986311Y-58742105D02*
X309986311Y-59265914D01*
X310033930Y-59361152D01*
X310129168Y-59408771D01*
X310272025Y-59408771D01*
X310367263Y-59361152D01*
X310414882Y-59313533D01*
X309024413Y-46564072D02*
X309024413Y-47373596D01*
X309072032Y-47468834D01*
X309119651Y-47516453D01*
X309214889Y-47564072D01*
X309405365Y-47564072D01*
X309500603Y-47516453D01*
X309548222Y-47468834D01*
X309595841Y-47373596D01*
X309595841Y-46564072D01*
X310595841Y-47564072D02*
X310024413Y-47564072D01*
X310310127Y-47564072D02*
X310310127Y-46564072D01*
X310214889Y-46706930D01*
X310119651Y-46802168D01*
X310024413Y-46849787D01*
X304440926Y-44741148D02*
X304917117Y-44741148D01*
X304345688Y-45026862D02*
X304679022Y-44026862D01*
X305012355Y-45026862D01*
X305202831Y-44026862D02*
X305774260Y-44026862D01*
X305488545Y-45026862D02*
X305488545Y-44026862D01*
X306107593Y-45026862D02*
X306107593Y-44360196D01*
X306107593Y-44455434D02*
X306155212Y-44407815D01*
X306250450Y-44360196D01*
X306393307Y-44360196D01*
X306488545Y-44407815D01*
X306536164Y-44503053D01*
X306536164Y-45026862D01*
X306536164Y-44503053D02*
X306583784Y-44407815D01*
X306679022Y-44360196D01*
X306821879Y-44360196D01*
X306917117Y-44407815D01*
X306964736Y-44503053D01*
X306964736Y-45026862D01*
X307821879Y-44979243D02*
X307726641Y-45026862D01*
X307536164Y-45026862D01*
X307440926Y-44979243D01*
X307393307Y-44884005D01*
X307393307Y-44503053D01*
X307440926Y-44407815D01*
X307536164Y-44360196D01*
X307726641Y-44360196D01*
X307821879Y-44407815D01*
X307869498Y-44503053D01*
X307869498Y-44598291D01*
X307393307Y-44693529D01*
X308726641Y-44360196D02*
X308726641Y-45169720D01*
X308679022Y-45264958D01*
X308631403Y-45312577D01*
X308536164Y-45360196D01*
X308393307Y-45360196D01*
X308298069Y-45312577D01*
X308726641Y-44979243D02*
X308631403Y-45026862D01*
X308440926Y-45026862D01*
X308345688Y-44979243D01*
X308298069Y-44931624D01*
X308250450Y-44836386D01*
X308250450Y-44550672D01*
X308298069Y-44455434D01*
X308345688Y-44407815D01*
X308440926Y-44360196D01*
X308631403Y-44360196D01*
X308726641Y-44407815D01*
X309631403Y-45026862D02*
X309631403Y-44503053D01*
X309583784Y-44407815D01*
X309488545Y-44360196D01*
X309298069Y-44360196D01*
X309202831Y-44407815D01*
X309631403Y-44979243D02*
X309536164Y-45026862D01*
X309298069Y-45026862D01*
X309202831Y-44979243D01*
X309155212Y-44884005D01*
X309155212Y-44788767D01*
X309202831Y-44693529D01*
X309298069Y-44645910D01*
X309536164Y-44645910D01*
X309631403Y-44598291D01*
X310012355Y-44026862D02*
X310631403Y-44026862D01*
X310298069Y-44407815D01*
X310440926Y-44407815D01*
X310536164Y-44455434D01*
X310583784Y-44503053D01*
X310631403Y-44598291D01*
X310631403Y-44836386D01*
X310583784Y-44931624D01*
X310536164Y-44979243D01*
X310440926Y-45026862D01*
X310155212Y-45026862D01*
X310059974Y-44979243D01*
X310012355Y-44931624D01*
X311012355Y-44122101D02*
X311059974Y-44074482D01*
X311155212Y-44026862D01*
X311393307Y-44026862D01*
X311488545Y-44074482D01*
X311536164Y-44122101D01*
X311583784Y-44217339D01*
X311583784Y-44312577D01*
X311536164Y-44455434D01*
X310964736Y-45026862D01*
X311583784Y-45026862D01*
X311964736Y-44741148D02*
X312440926Y-44741148D01*
X311869498Y-45026862D02*
X312202831Y-44026862D01*
X312536164Y-45026862D01*
X312869498Y-44645910D02*
X313631403Y-44645910D01*
X314107593Y-45026862D02*
X314107593Y-44026862D01*
X314488545Y-44026862D01*
X314583784Y-44074482D01*
X314631403Y-44122101D01*
X314679022Y-44217339D01*
X314679022Y-44360196D01*
X314631403Y-44455434D01*
X314583784Y-44503053D01*
X314488545Y-44550672D01*
X314107593Y-44550672D01*
X315107593Y-44026862D02*
X315107593Y-44836386D01*
X315155212Y-44931624D01*
X315202831Y-44979243D01*
X315298069Y-45026862D01*
X315488545Y-45026862D01*
X315583784Y-44979243D01*
X315631403Y-44931624D01*
X315679022Y-44836386D01*
X315679022Y-44026862D01*
X320203603Y-58460144D02*
X320203603Y-58936334D01*
X319870270Y-57936334D02*
X320203603Y-58460144D01*
X320536936Y-57936334D01*
X321394079Y-58936334D02*
X320822651Y-58936334D01*
X321108365Y-58936334D02*
X321108365Y-57936334D01*
X321013127Y-58079192D01*
X320917889Y-58174430D01*
X320822651Y-58222049D01*
D11*
X284070399Y-54006651D02*
X283689447Y-54273318D01*
X284070399Y-54463794D02*
X283270399Y-54463794D01*
X283270399Y-54159032D01*
X283308495Y-54082841D01*
X283346590Y-54044746D01*
X283422780Y-54006651D01*
X283537066Y-54006651D01*
X283613256Y-54044746D01*
X283651352Y-54082841D01*
X283689447Y-54159032D01*
X283689447Y-54463794D01*
X283537066Y-53320937D02*
X284070399Y-53320937D01*
X283232304Y-53511413D02*
X283803733Y-53701889D01*
X283803733Y-53206651D01*
X277464068Y-53478967D02*
X277997402Y-53478967D01*
X277654545Y-54278967D01*
X278683116Y-53478967D02*
X278302164Y-53478967D01*
X278264068Y-53859920D01*
X278302164Y-53821824D01*
X278378354Y-53783729D01*
X278568830Y-53783729D01*
X278645021Y-53821824D01*
X278683116Y-53859920D01*
X278721211Y-53936110D01*
X278721211Y-54126586D01*
X278683116Y-54202777D01*
X278645021Y-54240872D01*
X278568830Y-54278967D01*
X278378354Y-54278967D01*
X278302164Y-54240872D01*
X278264068Y-54202777D01*
X279521211Y-54278967D02*
X279254545Y-53898015D01*
X279064068Y-54278967D02*
X279064068Y-53478967D01*
X279368830Y-53478967D01*
X279445021Y-53517063D01*
X279483116Y-53555158D01*
X279521211Y-53631348D01*
X279521211Y-53745634D01*
X279483116Y-53821824D01*
X279445021Y-53859920D01*
X279368830Y-53898015D01*
X279064068Y-53898015D01*
X284070399Y-51495736D02*
X283689447Y-51762403D01*
X284070399Y-51952879D02*
X283270399Y-51952879D01*
X283270399Y-51648117D01*
X283308495Y-51571926D01*
X283346590Y-51533831D01*
X283422780Y-51495736D01*
X283537066Y-51495736D01*
X283613256Y-51533831D01*
X283651352Y-51571926D01*
X283689447Y-51648117D01*
X283689447Y-51952879D01*
X283270399Y-51229069D02*
X283270399Y-50733831D01*
X283575161Y-51000498D01*
X283575161Y-50886212D01*
X283613256Y-50810022D01*
X283651352Y-50771926D01*
X283727542Y-50733831D01*
X283918018Y-50733831D01*
X283994209Y-50771926D01*
X284032304Y-50810022D01*
X284070399Y-50886212D01*
X284070399Y-51114783D01*
X284032304Y-51190974D01*
X283994209Y-51229069D01*
X277464068Y-51011796D02*
X277997402Y-51011796D01*
X277654545Y-51811796D01*
X278683116Y-51011796D02*
X278302164Y-51011796D01*
X278264068Y-51392749D01*
X278302164Y-51354653D01*
X278378354Y-51316558D01*
X278568830Y-51316558D01*
X278645021Y-51354653D01*
X278683116Y-51392749D01*
X278721211Y-51468939D01*
X278721211Y-51659415D01*
X278683116Y-51735606D01*
X278645021Y-51773701D01*
X278568830Y-51811796D01*
X278378354Y-51811796D01*
X278302164Y-51773701D01*
X278264068Y-51735606D01*
X279521211Y-51811796D02*
X279254545Y-51430844D01*
X279064068Y-51811796D02*
X279064068Y-51011796D01*
X279368830Y-51011796D01*
X279445021Y-51049892D01*
X279483116Y-51087987D01*
X279521211Y-51164177D01*
X279521211Y-51278463D01*
X279483116Y-51354653D01*
X279445021Y-51392749D01*
X279368830Y-51430844D01*
X279064068Y-51430844D01*
X284070399Y-56517567D02*
X283689447Y-56784234D01*
X284070399Y-56974710D02*
X283270399Y-56974710D01*
X283270399Y-56669948D01*
X283308495Y-56593757D01*
X283346590Y-56555662D01*
X283422780Y-56517567D01*
X283537066Y-56517567D01*
X283613256Y-56555662D01*
X283651352Y-56593757D01*
X283689447Y-56669948D01*
X283689447Y-56974710D01*
X283270399Y-55793757D02*
X283270399Y-56174710D01*
X283651352Y-56212805D01*
X283613256Y-56174710D01*
X283575161Y-56098519D01*
X283575161Y-55908043D01*
X283613256Y-55831853D01*
X283651352Y-55793757D01*
X283727542Y-55755662D01*
X283918018Y-55755662D01*
X283994209Y-55793757D01*
X284032304Y-55831853D01*
X284070399Y-55908043D01*
X284070399Y-56098519D01*
X284032304Y-56174710D01*
X283994209Y-56212805D01*
X277845021Y-56798631D02*
X277387878Y-56798631D01*
X277616449Y-56798631D02*
X277616449Y-55998631D01*
X277540259Y-56112917D01*
X277464068Y-56189107D01*
X277387878Y-56227203D01*
X278187878Y-56722441D02*
X278225973Y-56760536D01*
X278187878Y-56798631D01*
X278149783Y-56760536D01*
X278187878Y-56722441D01*
X278187878Y-56798631D01*
X278949783Y-55998631D02*
X278568830Y-55998631D01*
X278530735Y-56379584D01*
X278568830Y-56341488D01*
X278645021Y-56303393D01*
X278835497Y-56303393D01*
X278911688Y-56341488D01*
X278949783Y-56379584D01*
X278987878Y-56455774D01*
X278987878Y-56646250D01*
X278949783Y-56722441D01*
X278911688Y-56760536D01*
X278835497Y-56798631D01*
X278645021Y-56798631D01*
X278568830Y-56760536D01*
X278530735Y-56722441D01*
X279330735Y-56798631D02*
X279330735Y-55998631D01*
X279406926Y-56493869D02*
X279635497Y-56798631D01*
X279635497Y-56265298D02*
X279330735Y-56570060D01*
X284070399Y-46473906D02*
X283689447Y-46740573D01*
X284070399Y-46931049D02*
X283270399Y-46931049D01*
X283270399Y-46626287D01*
X283308495Y-46550096D01*
X283346590Y-46512001D01*
X283422780Y-46473906D01*
X283537066Y-46473906D01*
X283613256Y-46512001D01*
X283651352Y-46550096D01*
X283689447Y-46626287D01*
X283689447Y-46931049D01*
X284070399Y-45712001D02*
X284070399Y-46169144D01*
X284070399Y-45940573D02*
X283270399Y-45940573D01*
X283384685Y-46016763D01*
X283460875Y-46092953D01*
X283498971Y-46169144D01*
X284070399Y-48984821D02*
X283689447Y-49251488D01*
X284070399Y-49441964D02*
X283270399Y-49441964D01*
X283270399Y-49137202D01*
X283308495Y-49061011D01*
X283346590Y-49022916D01*
X283422780Y-48984821D01*
X283537066Y-48984821D01*
X283613256Y-49022916D01*
X283651352Y-49061011D01*
X283689447Y-49137202D01*
X283689447Y-49441964D01*
X283346590Y-48680059D02*
X283308495Y-48641964D01*
X283270399Y-48565773D01*
X283270399Y-48375297D01*
X283308495Y-48299107D01*
X283346590Y-48261011D01*
X283422780Y-48222916D01*
X283498971Y-48222916D01*
X283613256Y-48261011D01*
X284070399Y-48718154D01*
X284070399Y-48222916D01*
X284070399Y-43962991D02*
X283689447Y-44229658D01*
X284070399Y-44420134D02*
X283270399Y-44420134D01*
X283270399Y-44115372D01*
X283308495Y-44039181D01*
X283346590Y-44001086D01*
X283422780Y-43962991D01*
X283537066Y-43962991D01*
X283613256Y-44001086D01*
X283651352Y-44039181D01*
X283689447Y-44115372D01*
X283689447Y-44420134D01*
X283270399Y-43277277D02*
X283270399Y-43429658D01*
X283308495Y-43505848D01*
X283346590Y-43543943D01*
X283460875Y-43620134D01*
X283613256Y-43658229D01*
X283918018Y-43658229D01*
X283994209Y-43620134D01*
X284032304Y-43582038D01*
X284070399Y-43505848D01*
X284070399Y-43353467D01*
X284032304Y-43277277D01*
X283994209Y-43239181D01*
X283918018Y-43201086D01*
X283727542Y-43201086D01*
X283651352Y-43239181D01*
X283613256Y-43277277D01*
X283575161Y-43353467D01*
X283575161Y-43505848D01*
X283613256Y-43582038D01*
X283651352Y-43620134D01*
X283727542Y-43658229D01*
X277768830Y-44218968D02*
X277311688Y-44218968D01*
X277540259Y-44218968D02*
X277540259Y-43418968D01*
X277464068Y-43533254D01*
X277387878Y-43609444D01*
X277311688Y-43647540D01*
X278111688Y-44142778D02*
X278149783Y-44180873D01*
X278111688Y-44218968D01*
X278073592Y-44180873D01*
X278111688Y-44142778D01*
X278111688Y-44218968D01*
X278873592Y-43418968D02*
X278492640Y-43418968D01*
X278454545Y-43799921D01*
X278492640Y-43761825D01*
X278568830Y-43723730D01*
X278759307Y-43723730D01*
X278835497Y-43761825D01*
X278873592Y-43799921D01*
X278911688Y-43876111D01*
X278911688Y-44066587D01*
X278873592Y-44142778D01*
X278835497Y-44180873D01*
X278759307Y-44218968D01*
X278568830Y-44218968D01*
X278492640Y-44180873D01*
X278454545Y-44142778D01*
X279254545Y-44218968D02*
X279254545Y-43418968D01*
X279711688Y-44218968D02*
X279368830Y-43761825D01*
X279711688Y-43418968D02*
X279254545Y-43876111D01*
X284070399Y-41452076D02*
X283689447Y-41718743D01*
X284070399Y-41909219D02*
X283270399Y-41909219D01*
X283270399Y-41604457D01*
X283308495Y-41528266D01*
X283346590Y-41490171D01*
X283422780Y-41452076D01*
X283537066Y-41452076D01*
X283613256Y-41490171D01*
X283651352Y-41528266D01*
X283689447Y-41604457D01*
X283689447Y-41909219D01*
X283270399Y-41185409D02*
X283270399Y-40652076D01*
X284070399Y-40994933D01*
X278035497Y-41730422D02*
X277578354Y-41730422D01*
X277806926Y-41730422D02*
X277806926Y-40930422D01*
X277730735Y-41044708D01*
X277654545Y-41120898D01*
X277578354Y-41158994D01*
X278530735Y-40930422D02*
X278606926Y-40930422D01*
X278683116Y-40968518D01*
X278721211Y-41006613D01*
X278759307Y-41082803D01*
X278797402Y-41235184D01*
X278797402Y-41425660D01*
X278759307Y-41578041D01*
X278721211Y-41654232D01*
X278683116Y-41692327D01*
X278606926Y-41730422D01*
X278530735Y-41730422D01*
X278454545Y-41692327D01*
X278416449Y-41654232D01*
X278378354Y-41578041D01*
X278340259Y-41425660D01*
X278340259Y-41235184D01*
X278378354Y-41082803D01*
X278416449Y-41006613D01*
X278454545Y-40968518D01*
X278530735Y-40930422D01*
X279140259Y-41730422D02*
X279140259Y-40930422D01*
X279216449Y-41425660D02*
X279445021Y-41730422D01*
X279445021Y-41197089D02*
X279140259Y-41501851D01*
D10*
X261696020Y-36852682D02*
X261696020Y-37662206D01*
X261743639Y-37757444D01*
X261791258Y-37805063D01*
X261886496Y-37852682D01*
X262076973Y-37852682D01*
X262172211Y-37805063D01*
X262219830Y-37757444D01*
X262267449Y-37662206D01*
X262267449Y-36852682D01*
X262696020Y-37805063D02*
X262838877Y-37852682D01*
X263076973Y-37852682D01*
X263172211Y-37805063D01*
X263219830Y-37757444D01*
X263267449Y-37662206D01*
X263267449Y-37566968D01*
X263219830Y-37471730D01*
X263172211Y-37424111D01*
X263076973Y-37376492D01*
X262886496Y-37328873D01*
X262791258Y-37281254D01*
X262743639Y-37233635D01*
X262696020Y-37138397D01*
X262696020Y-37043159D01*
X262743639Y-36947921D01*
X262791258Y-36900302D01*
X262886496Y-36852682D01*
X263124592Y-36852682D01*
X263267449Y-36900302D01*
X264029354Y-37328873D02*
X264172211Y-37376492D01*
X264219830Y-37424111D01*
X264267449Y-37519349D01*
X264267449Y-37662206D01*
X264219830Y-37757444D01*
X264172211Y-37805063D01*
X264076973Y-37852682D01*
X263696020Y-37852682D01*
X263696020Y-36852682D01*
X264029354Y-36852682D01*
X264124592Y-36900302D01*
X264172211Y-36947921D01*
X264219830Y-37043159D01*
X264219830Y-37138397D01*
X264172211Y-37233635D01*
X264124592Y-37281254D01*
X264029354Y-37328873D01*
X263696020Y-37328873D01*
X265219830Y-37852682D02*
X264648401Y-37852682D01*
X264934116Y-37852682D02*
X264934116Y-36852682D01*
X264838877Y-36995540D01*
X264743639Y-37090778D01*
X264648401Y-37138397D01*
X255874335Y-41437011D02*
X255874335Y-41770345D01*
X256398144Y-41770345D02*
X255398144Y-41770345D01*
X255398144Y-41294154D01*
X255398144Y-40913202D02*
X256207668Y-40913202D01*
X256302906Y-40865583D01*
X256350525Y-40817964D01*
X256398144Y-40722726D01*
X256398144Y-40532249D01*
X256350525Y-40437011D01*
X256302906Y-40389392D01*
X256207668Y-40341773D01*
X255398144Y-40341773D01*
X256350525Y-39913202D02*
X256398144Y-39770345D01*
X256398144Y-39532249D01*
X256350525Y-39437011D01*
X256302906Y-39389392D01*
X256207668Y-39341773D01*
X256112430Y-39341773D01*
X256017192Y-39389392D01*
X255969573Y-39437011D01*
X255921954Y-39532249D01*
X255874335Y-39722726D01*
X255826716Y-39817964D01*
X255779097Y-39865583D01*
X255683859Y-39913202D01*
X255588621Y-39913202D01*
X255493383Y-39865583D01*
X255445764Y-39817964D01*
X255398144Y-39722726D01*
X255398144Y-39484630D01*
X255445764Y-39341773D01*
X255874335Y-38913202D02*
X255874335Y-38579868D01*
X256398144Y-38437011D02*
X256398144Y-38913202D01*
X255398144Y-38913202D01*
X255398144Y-38437011D01*
X226288828Y-44239415D02*
X226431685Y-44287034D01*
X226479304Y-44334653D01*
X226526923Y-44429891D01*
X226526923Y-44572748D01*
X226479304Y-44667986D01*
X226431685Y-44715605D01*
X226336447Y-44763224D01*
X225955494Y-44763224D01*
X225955494Y-43763224D01*
X226288828Y-43763224D01*
X226384066Y-43810844D01*
X226431685Y-43858463D01*
X226479304Y-43953701D01*
X226479304Y-44048939D01*
X226431685Y-44144177D01*
X226384066Y-44191796D01*
X226288828Y-44239415D01*
X225955494Y-44239415D01*
X227145971Y-43763224D02*
X227336447Y-43763224D01*
X227431685Y-43810844D01*
X227526923Y-43906082D01*
X227574542Y-44096558D01*
X227574542Y-44429891D01*
X227526923Y-44620367D01*
X227431685Y-44715605D01*
X227336447Y-44763224D01*
X227145971Y-44763224D01*
X227050732Y-44715605D01*
X226955494Y-44620367D01*
X226907875Y-44429891D01*
X226907875Y-44096558D01*
X226955494Y-43906082D01*
X227050732Y-43810844D01*
X227145971Y-43763224D01*
X228193590Y-43763224D02*
X228384066Y-43763224D01*
X228479304Y-43810844D01*
X228574542Y-43906082D01*
X228622161Y-44096558D01*
X228622161Y-44429891D01*
X228574542Y-44620367D01*
X228479304Y-44715605D01*
X228384066Y-44763224D01*
X228193590Y-44763224D01*
X228098351Y-44715605D01*
X228003113Y-44620367D01*
X227955494Y-44429891D01*
X227955494Y-44096558D01*
X228003113Y-43906082D01*
X228098351Y-43810844D01*
X228193590Y-43763224D01*
X228907875Y-43763224D02*
X229479304Y-43763224D01*
X229193590Y-44763224D02*
X229193590Y-43763224D01*
X49830338Y-53812738D02*
X49030338Y-53812738D01*
X49030338Y-53622262D01*
X49068434Y-53507976D01*
X49144624Y-53431785D01*
X49220814Y-53393690D01*
X49373195Y-53355595D01*
X49487481Y-53355595D01*
X49639862Y-53393690D01*
X49716053Y-53431785D01*
X49792243Y-53507976D01*
X49830338Y-53622262D01*
X49830338Y-53812738D01*
X49830338Y-52593690D02*
X49830338Y-53050833D01*
X49830338Y-52822262D02*
X49030338Y-52822262D01*
X49144624Y-52898452D01*
X49220814Y-52974642D01*
X49258910Y-53050833D01*
X59338727Y-59154277D02*
X58538727Y-59154277D01*
X58538727Y-58963801D01*
X58576823Y-58849515D01*
X58653013Y-58773325D01*
X58729203Y-58735229D01*
X58881584Y-58697134D01*
X58995870Y-58697134D01*
X59148251Y-58735229D01*
X59224442Y-58773325D01*
X59300632Y-58849515D01*
X59338727Y-58963801D01*
X59338727Y-59154277D01*
X58805394Y-58011420D02*
X59338727Y-58011420D01*
X58500632Y-58201896D02*
X59072061Y-58392372D01*
X59072061Y-57897134D01*
X58538727Y-57211420D02*
X58538727Y-57592372D01*
X58919680Y-57630468D01*
X58881584Y-57592372D01*
X58843489Y-57516182D01*
X58843489Y-57325706D01*
X58881584Y-57249515D01*
X58919680Y-57211420D01*
X58995870Y-57173325D01*
X59186346Y-57173325D01*
X59262537Y-57211420D01*
X59300632Y-57249515D01*
X59338727Y-57325706D01*
X59338727Y-57516182D01*
X59300632Y-57592372D01*
X59262537Y-57630468D01*
X72016579Y-58773325D02*
X71216579Y-58773325D01*
X71216579Y-58582849D01*
X71254675Y-58468563D01*
X71330865Y-58392372D01*
X71407055Y-58354277D01*
X71559436Y-58316182D01*
X71673722Y-58316182D01*
X71826103Y-58354277D01*
X71902294Y-58392372D01*
X71978484Y-58468563D01*
X72016579Y-58582849D01*
X72016579Y-58773325D01*
X71292770Y-58011420D02*
X71254675Y-57973325D01*
X71216579Y-57897134D01*
X71216579Y-57706658D01*
X71254675Y-57630468D01*
X71292770Y-57592372D01*
X71368960Y-57554277D01*
X71445151Y-57554277D01*
X71559436Y-57592372D01*
X72016579Y-58049515D01*
X72016579Y-57554277D01*
X75186042Y-54193690D02*
X74386042Y-54193690D01*
X74386042Y-54003214D01*
X74424138Y-53888928D01*
X74500328Y-53812738D01*
X74576518Y-53774642D01*
X74728899Y-53736547D01*
X74843185Y-53736547D01*
X74995566Y-53774642D01*
X75071757Y-53812738D01*
X75147947Y-53888928D01*
X75186042Y-54003214D01*
X75186042Y-54193690D01*
X74652709Y-53050833D02*
X75186042Y-53050833D01*
X74347947Y-53241309D02*
X74919376Y-53431785D01*
X74919376Y-52936547D01*
X74386042Y-52288928D02*
X74386042Y-52441309D01*
X74424138Y-52517500D01*
X74462233Y-52555595D01*
X74576518Y-52631785D01*
X74728899Y-52669881D01*
X75033661Y-52669881D01*
X75109852Y-52631785D01*
X75147947Y-52593690D01*
X75186042Y-52517500D01*
X75186042Y-52365119D01*
X75147947Y-52288928D01*
X75109852Y-52250833D01*
X75033661Y-52212738D01*
X74843185Y-52212738D01*
X74766995Y-52250833D01*
X74728899Y-52288928D01*
X74690804Y-52365119D01*
X74690804Y-52517500D01*
X74728899Y-52593690D01*
X74766995Y-52631785D01*
X74843185Y-52669881D01*
X87863894Y-54193690D02*
X87063894Y-54193690D01*
X87063894Y-54003214D01*
X87101990Y-53888928D01*
X87178180Y-53812738D01*
X87254370Y-53774642D01*
X87406751Y-53736547D01*
X87521037Y-53736547D01*
X87673418Y-53774642D01*
X87749609Y-53812738D01*
X87825799Y-53888928D01*
X87863894Y-54003214D01*
X87863894Y-54193690D01*
X87330561Y-53050833D02*
X87863894Y-53050833D01*
X87025799Y-53241309D02*
X87597228Y-53431785D01*
X87597228Y-52936547D01*
X87063894Y-52707976D02*
X87063894Y-52174642D01*
X87863894Y-52517500D01*
X100541746Y-54193690D02*
X99741746Y-54193690D01*
X99741746Y-54003214D01*
X99779842Y-53888928D01*
X99856032Y-53812738D01*
X99932222Y-53774642D01*
X100084603Y-53736547D01*
X100198889Y-53736547D01*
X100351270Y-53774642D01*
X100427461Y-53812738D01*
X100503651Y-53888928D01*
X100541746Y-54003214D01*
X100541746Y-54193690D01*
X100008413Y-53050833D02*
X100541746Y-53050833D01*
X99703651Y-53241309D02*
X100275080Y-53431785D01*
X100275080Y-52936547D01*
X100084603Y-52517500D02*
X100046508Y-52593690D01*
X100008413Y-52631785D01*
X99932222Y-52669881D01*
X99894127Y-52669881D01*
X99817937Y-52631785D01*
X99779842Y-52593690D01*
X99741746Y-52517500D01*
X99741746Y-52365119D01*
X99779842Y-52288928D01*
X99817937Y-52250833D01*
X99894127Y-52212738D01*
X99932222Y-52212738D01*
X100008413Y-52250833D01*
X100046508Y-52288928D01*
X100084603Y-52365119D01*
X100084603Y-52517500D01*
X100122699Y-52593690D01*
X100160794Y-52631785D01*
X100236984Y-52669881D01*
X100389365Y-52669881D01*
X100465556Y-52631785D01*
X100503651Y-52593690D01*
X100541746Y-52517500D01*
X100541746Y-52365119D01*
X100503651Y-52288928D01*
X100465556Y-52250833D01*
X100389365Y-52212738D01*
X100236984Y-52212738D01*
X100160794Y-52250833D01*
X100122699Y-52288928D01*
X100084603Y-52365119D01*
X113219598Y-54193690D02*
X112419598Y-54193690D01*
X112419598Y-54003214D01*
X112457694Y-53888928D01*
X112533884Y-53812738D01*
X112610074Y-53774642D01*
X112762455Y-53736547D01*
X112876741Y-53736547D01*
X113029122Y-53774642D01*
X113105313Y-53812738D01*
X113181503Y-53888928D01*
X113219598Y-54003214D01*
X113219598Y-54193690D01*
X112686265Y-53050833D02*
X113219598Y-53050833D01*
X112381503Y-53241309D02*
X112952932Y-53431785D01*
X112952932Y-52936547D01*
X113219598Y-52593690D02*
X113219598Y-52441309D01*
X113181503Y-52365119D01*
X113143408Y-52327023D01*
X113029122Y-52250833D01*
X112876741Y-52212738D01*
X112571979Y-52212738D01*
X112495789Y-52250833D01*
X112457694Y-52288928D01*
X112419598Y-52365119D01*
X112419598Y-52517500D01*
X112457694Y-52593690D01*
X112495789Y-52631785D01*
X112571979Y-52669881D01*
X112762455Y-52669881D01*
X112838646Y-52631785D01*
X112876741Y-52593690D01*
X112914836Y-52517500D01*
X112914836Y-52365119D01*
X112876741Y-52288928D01*
X112838646Y-52250833D01*
X112762455Y-52212738D01*
X125897450Y-54193690D02*
X125097450Y-54193690D01*
X125097450Y-54003214D01*
X125135546Y-53888928D01*
X125211736Y-53812738D01*
X125287926Y-53774642D01*
X125440307Y-53736547D01*
X125554593Y-53736547D01*
X125706974Y-53774642D01*
X125783165Y-53812738D01*
X125859355Y-53888928D01*
X125897450Y-54003214D01*
X125897450Y-54193690D01*
X125097450Y-53012738D02*
X125097450Y-53393690D01*
X125478403Y-53431785D01*
X125440307Y-53393690D01*
X125402212Y-53317500D01*
X125402212Y-53127023D01*
X125440307Y-53050833D01*
X125478403Y-53012738D01*
X125554593Y-52974642D01*
X125745069Y-52974642D01*
X125821260Y-53012738D01*
X125859355Y-53050833D01*
X125897450Y-53127023D01*
X125897450Y-53317500D01*
X125859355Y-53393690D01*
X125821260Y-53431785D01*
X125097450Y-52479404D02*
X125097450Y-52403214D01*
X125135546Y-52327023D01*
X125173641Y-52288928D01*
X125249831Y-52250833D01*
X125402212Y-52212738D01*
X125592688Y-52212738D01*
X125745069Y-52250833D01*
X125821260Y-52288928D01*
X125859355Y-52327023D01*
X125897450Y-52403214D01*
X125897450Y-52479404D01*
X125859355Y-52555595D01*
X125821260Y-52593690D01*
X125745069Y-52631785D01*
X125592688Y-52669881D01*
X125402212Y-52669881D01*
X125249831Y-52631785D01*
X125173641Y-52593690D01*
X125135546Y-52555595D01*
X125097450Y-52479404D01*
X138575302Y-54193690D02*
X137775302Y-54193690D01*
X137775302Y-54003214D01*
X137813398Y-53888928D01*
X137889588Y-53812738D01*
X137965778Y-53774642D01*
X138118159Y-53736547D01*
X138232445Y-53736547D01*
X138384826Y-53774642D01*
X138461017Y-53812738D01*
X138537207Y-53888928D01*
X138575302Y-54003214D01*
X138575302Y-54193690D01*
X137775302Y-53012738D02*
X137775302Y-53393690D01*
X138156255Y-53431785D01*
X138118159Y-53393690D01*
X138080064Y-53317500D01*
X138080064Y-53127023D01*
X138118159Y-53050833D01*
X138156255Y-53012738D01*
X138232445Y-52974642D01*
X138422921Y-52974642D01*
X138499112Y-53012738D01*
X138537207Y-53050833D01*
X138575302Y-53127023D01*
X138575302Y-53317500D01*
X138537207Y-53393690D01*
X138499112Y-53431785D01*
X138575302Y-52212738D02*
X138575302Y-52669881D01*
X138575302Y-52441309D02*
X137775302Y-52441309D01*
X137889588Y-52517500D01*
X137965778Y-52593690D01*
X138003874Y-52669881D01*
X151253154Y-54193690D02*
X150453154Y-54193690D01*
X150453154Y-54003214D01*
X150491250Y-53888928D01*
X150567440Y-53812738D01*
X150643630Y-53774642D01*
X150796011Y-53736547D01*
X150910297Y-53736547D01*
X151062678Y-53774642D01*
X151138869Y-53812738D01*
X151215059Y-53888928D01*
X151253154Y-54003214D01*
X151253154Y-54193690D01*
X150453154Y-53012738D02*
X150453154Y-53393690D01*
X150834107Y-53431785D01*
X150796011Y-53393690D01*
X150757916Y-53317500D01*
X150757916Y-53127023D01*
X150796011Y-53050833D01*
X150834107Y-53012738D01*
X150910297Y-52974642D01*
X151100773Y-52974642D01*
X151176964Y-53012738D01*
X151215059Y-53050833D01*
X151253154Y-53127023D01*
X151253154Y-53317500D01*
X151215059Y-53393690D01*
X151176964Y-53431785D01*
X150529345Y-52669881D02*
X150491250Y-52631785D01*
X150453154Y-52555595D01*
X150453154Y-52365119D01*
X150491250Y-52288928D01*
X150529345Y-52250833D01*
X150605535Y-52212738D01*
X150681726Y-52212738D01*
X150796011Y-52250833D01*
X151253154Y-52707976D01*
X151253154Y-52212738D01*
X163931006Y-54193690D02*
X163131006Y-54193690D01*
X163131006Y-54003214D01*
X163169102Y-53888928D01*
X163245292Y-53812738D01*
X163321482Y-53774642D01*
X163473863Y-53736547D01*
X163588149Y-53736547D01*
X163740530Y-53774642D01*
X163816721Y-53812738D01*
X163892911Y-53888928D01*
X163931006Y-54003214D01*
X163931006Y-54193690D01*
X163131006Y-53012738D02*
X163131006Y-53393690D01*
X163511959Y-53431785D01*
X163473863Y-53393690D01*
X163435768Y-53317500D01*
X163435768Y-53127023D01*
X163473863Y-53050833D01*
X163511959Y-53012738D01*
X163588149Y-52974642D01*
X163778625Y-52974642D01*
X163854816Y-53012738D01*
X163892911Y-53050833D01*
X163931006Y-53127023D01*
X163931006Y-53317500D01*
X163892911Y-53393690D01*
X163854816Y-53431785D01*
X163131006Y-52707976D02*
X163131006Y-52212738D01*
X163435768Y-52479404D01*
X163435768Y-52365119D01*
X163473863Y-52288928D01*
X163511959Y-52250833D01*
X163588149Y-52212738D01*
X163778625Y-52212738D01*
X163854816Y-52250833D01*
X163892911Y-52288928D01*
X163931006Y-52365119D01*
X163931006Y-52593690D01*
X163892911Y-52669881D01*
X163854816Y-52707976D01*
X176608858Y-54193690D02*
X175808858Y-54193690D01*
X175808858Y-54003214D01*
X175846954Y-53888928D01*
X175923144Y-53812738D01*
X175999334Y-53774642D01*
X176151715Y-53736547D01*
X176266001Y-53736547D01*
X176418382Y-53774642D01*
X176494573Y-53812738D01*
X176570763Y-53888928D01*
X176608858Y-54003214D01*
X176608858Y-54193690D01*
X175808858Y-53012738D02*
X175808858Y-53393690D01*
X176189811Y-53431785D01*
X176151715Y-53393690D01*
X176113620Y-53317500D01*
X176113620Y-53127023D01*
X176151715Y-53050833D01*
X176189811Y-53012738D01*
X176266001Y-52974642D01*
X176456477Y-52974642D01*
X176532668Y-53012738D01*
X176570763Y-53050833D01*
X176608858Y-53127023D01*
X176608858Y-53317500D01*
X176570763Y-53393690D01*
X176532668Y-53431785D01*
X176075525Y-52288928D02*
X176608858Y-52288928D01*
X175770763Y-52479404D02*
X176342192Y-52669881D01*
X176342192Y-52174642D01*
X189286710Y-54193690D02*
X188486710Y-54193690D01*
X188486710Y-54003214D01*
X188524806Y-53888928D01*
X188600996Y-53812738D01*
X188677186Y-53774642D01*
X188829567Y-53736547D01*
X188943853Y-53736547D01*
X189096234Y-53774642D01*
X189172425Y-53812738D01*
X189248615Y-53888928D01*
X189286710Y-54003214D01*
X189286710Y-54193690D01*
X188486710Y-53012738D02*
X188486710Y-53393690D01*
X188867663Y-53431785D01*
X188829567Y-53393690D01*
X188791472Y-53317500D01*
X188791472Y-53127023D01*
X188829567Y-53050833D01*
X188867663Y-53012738D01*
X188943853Y-52974642D01*
X189134329Y-52974642D01*
X189210520Y-53012738D01*
X189248615Y-53050833D01*
X189286710Y-53127023D01*
X189286710Y-53317500D01*
X189248615Y-53393690D01*
X189210520Y-53431785D01*
X188486710Y-52250833D02*
X188486710Y-52631785D01*
X188867663Y-52669881D01*
X188829567Y-52631785D01*
X188791472Y-52555595D01*
X188791472Y-52365119D01*
X188829567Y-52288928D01*
X188867663Y-52250833D01*
X188943853Y-52212738D01*
X189134329Y-52212738D01*
X189210520Y-52250833D01*
X189248615Y-52288928D01*
X189286710Y-52365119D01*
X189286710Y-52555595D01*
X189248615Y-52631785D01*
X189210520Y-52669881D01*
X201964562Y-54193690D02*
X201164562Y-54193690D01*
X201164562Y-54003214D01*
X201202658Y-53888928D01*
X201278848Y-53812738D01*
X201355038Y-53774642D01*
X201507419Y-53736547D01*
X201621705Y-53736547D01*
X201774086Y-53774642D01*
X201850277Y-53812738D01*
X201926467Y-53888928D01*
X201964562Y-54003214D01*
X201964562Y-54193690D01*
X201164562Y-53012738D02*
X201164562Y-53393690D01*
X201545515Y-53431785D01*
X201507419Y-53393690D01*
X201469324Y-53317500D01*
X201469324Y-53127023D01*
X201507419Y-53050833D01*
X201545515Y-53012738D01*
X201621705Y-52974642D01*
X201812181Y-52974642D01*
X201888372Y-53012738D01*
X201926467Y-53050833D01*
X201964562Y-53127023D01*
X201964562Y-53317500D01*
X201926467Y-53393690D01*
X201888372Y-53431785D01*
X201164562Y-52288928D02*
X201164562Y-52441309D01*
X201202658Y-52517500D01*
X201240753Y-52555595D01*
X201355038Y-52631785D01*
X201507419Y-52669881D01*
X201812181Y-52669881D01*
X201888372Y-52631785D01*
X201926467Y-52593690D01*
X201964562Y-52517500D01*
X201964562Y-52365119D01*
X201926467Y-52288928D01*
X201888372Y-52250833D01*
X201812181Y-52212738D01*
X201621705Y-52212738D01*
X201545515Y-52250833D01*
X201507419Y-52288928D01*
X201469324Y-52365119D01*
X201469324Y-52517500D01*
X201507419Y-52593690D01*
X201545515Y-52631785D01*
X201621705Y-52669881D01*
X214572430Y-54193690D02*
X213772430Y-54193690D01*
X213772430Y-54003214D01*
X213810526Y-53888928D01*
X213886716Y-53812738D01*
X213962906Y-53774642D01*
X214115287Y-53736547D01*
X214229573Y-53736547D01*
X214381954Y-53774642D01*
X214458145Y-53812738D01*
X214534335Y-53888928D01*
X214572430Y-54003214D01*
X214572430Y-54193690D01*
X213772430Y-53012738D02*
X213772430Y-53393690D01*
X214153383Y-53431785D01*
X214115287Y-53393690D01*
X214077192Y-53317500D01*
X214077192Y-53127023D01*
X214115287Y-53050833D01*
X214153383Y-53012738D01*
X214229573Y-52974642D01*
X214420049Y-52974642D01*
X214496240Y-53012738D01*
X214534335Y-53050833D01*
X214572430Y-53127023D01*
X214572430Y-53317500D01*
X214534335Y-53393690D01*
X214496240Y-53431785D01*
X213772430Y-52707976D02*
X213772430Y-52174642D01*
X214572430Y-52517500D01*
X261771983Y-59154277D02*
X260971983Y-59154277D01*
X260971983Y-58963801D01*
X261010079Y-58849515D01*
X261086269Y-58773325D01*
X261162459Y-58735229D01*
X261314840Y-58697134D01*
X261429126Y-58697134D01*
X261581507Y-58735229D01*
X261657698Y-58773325D01*
X261733888Y-58849515D01*
X261771983Y-58963801D01*
X261771983Y-59154277D01*
X261771983Y-57935229D02*
X261771983Y-58392372D01*
X261771983Y-58163801D02*
X260971983Y-58163801D01*
X261086269Y-58239991D01*
X261162459Y-58316182D01*
X261200555Y-58392372D01*
X260971983Y-57211420D02*
X260971983Y-57592372D01*
X261352936Y-57630468D01*
X261314840Y-57592372D01*
X261276745Y-57516182D01*
X261276745Y-57325706D01*
X261314840Y-57249515D01*
X261352936Y-57211420D01*
X261429126Y-57173325D01*
X261619602Y-57173325D01*
X261695793Y-57211420D01*
X261733888Y-57249515D01*
X261771983Y-57325706D01*
X261771983Y-57516182D01*
X261733888Y-57592372D01*
X261695793Y-57630468D01*
X52999801Y-55847219D02*
X52199801Y-55847219D01*
X52199801Y-55656743D01*
X52237897Y-55542457D01*
X52314087Y-55466267D01*
X52390277Y-55428171D01*
X52542658Y-55390076D01*
X52656944Y-55390076D01*
X52809325Y-55428171D01*
X52885516Y-55466267D01*
X52961706Y-55542457D01*
X52999801Y-55656743D01*
X52999801Y-55847219D01*
X52999801Y-54628171D02*
X52999801Y-55085314D01*
X52999801Y-54856743D02*
X52199801Y-54856743D01*
X52314087Y-54932933D01*
X52390277Y-55009124D01*
X52428373Y-55085314D01*
X52199801Y-53942457D02*
X52199801Y-54094838D01*
X52237897Y-54171029D01*
X52275992Y-54209124D01*
X52390277Y-54285314D01*
X52542658Y-54323410D01*
X52847420Y-54323410D01*
X52923611Y-54285314D01*
X52961706Y-54247219D01*
X52999801Y-54171029D01*
X52999801Y-54018648D01*
X52961706Y-53942457D01*
X52923611Y-53904362D01*
X52847420Y-53866267D01*
X52656944Y-53866267D01*
X52580754Y-53904362D01*
X52542658Y-53942457D01*
X52504563Y-54018648D01*
X52504563Y-54171029D01*
X52542658Y-54247219D01*
X52580754Y-54285314D01*
X52656944Y-54323410D01*
X68847116Y-57500748D02*
X68047116Y-57500748D01*
X68047116Y-57310272D01*
X68085212Y-57195986D01*
X68161402Y-57119796D01*
X68237592Y-57081700D01*
X68389973Y-57043605D01*
X68504259Y-57043605D01*
X68656640Y-57081700D01*
X68732831Y-57119796D01*
X68809021Y-57195986D01*
X68847116Y-57310272D01*
X68847116Y-57500748D01*
X68847116Y-56281700D02*
X68847116Y-56738843D01*
X68847116Y-56510272D02*
X68047116Y-56510272D01*
X68161402Y-56586462D01*
X68237592Y-56662653D01*
X68275688Y-56738843D01*
X68047116Y-56015034D02*
X68047116Y-55481700D01*
X68847116Y-55824558D01*
X78355505Y-55847219D02*
X77555505Y-55847219D01*
X77555505Y-55656743D01*
X77593601Y-55542457D01*
X77669791Y-55466267D01*
X77745981Y-55428171D01*
X77898362Y-55390076D01*
X78012648Y-55390076D01*
X78165029Y-55428171D01*
X78241220Y-55466267D01*
X78317410Y-55542457D01*
X78355505Y-55656743D01*
X78355505Y-55847219D01*
X77555505Y-55123410D02*
X77555505Y-54628171D01*
X77860267Y-54894838D01*
X77860267Y-54780552D01*
X77898362Y-54704362D01*
X77936458Y-54666267D01*
X78012648Y-54628171D01*
X78203124Y-54628171D01*
X78279315Y-54666267D01*
X78317410Y-54704362D01*
X78355505Y-54780552D01*
X78355505Y-55009124D01*
X78317410Y-55085314D01*
X78279315Y-55123410D01*
X77555505Y-54361505D02*
X77555505Y-53866267D01*
X77860267Y-54132933D01*
X77860267Y-54018648D01*
X77898362Y-53942457D01*
X77936458Y-53904362D01*
X78012648Y-53866267D01*
X78203124Y-53866267D01*
X78279315Y-53904362D01*
X78317410Y-53942457D01*
X78355505Y-54018648D01*
X78355505Y-54247219D01*
X78317410Y-54323410D01*
X78279315Y-54361505D01*
X91033357Y-55847219D02*
X90233357Y-55847219D01*
X90233357Y-55656743D01*
X90271453Y-55542457D01*
X90347643Y-55466267D01*
X90423833Y-55428171D01*
X90576214Y-55390076D01*
X90690500Y-55390076D01*
X90842881Y-55428171D01*
X90919072Y-55466267D01*
X90995262Y-55542457D01*
X91033357Y-55656743D01*
X91033357Y-55847219D01*
X90233357Y-55123410D02*
X90233357Y-54628171D01*
X90538119Y-54894838D01*
X90538119Y-54780552D01*
X90576214Y-54704362D01*
X90614310Y-54666267D01*
X90690500Y-54628171D01*
X90880976Y-54628171D01*
X90957167Y-54666267D01*
X90995262Y-54704362D01*
X91033357Y-54780552D01*
X91033357Y-55009124D01*
X90995262Y-55085314D01*
X90957167Y-55123410D01*
X90500024Y-53942457D02*
X91033357Y-53942457D01*
X90195262Y-54132933D02*
X90766691Y-54323410D01*
X90766691Y-53828171D01*
X103711209Y-55847219D02*
X102911209Y-55847219D01*
X102911209Y-55656743D01*
X102949305Y-55542457D01*
X103025495Y-55466267D01*
X103101685Y-55428171D01*
X103254066Y-55390076D01*
X103368352Y-55390076D01*
X103520733Y-55428171D01*
X103596924Y-55466267D01*
X103673114Y-55542457D01*
X103711209Y-55656743D01*
X103711209Y-55847219D01*
X102911209Y-55123410D02*
X102911209Y-54628171D01*
X103215971Y-54894838D01*
X103215971Y-54780552D01*
X103254066Y-54704362D01*
X103292162Y-54666267D01*
X103368352Y-54628171D01*
X103558828Y-54628171D01*
X103635019Y-54666267D01*
X103673114Y-54704362D01*
X103711209Y-54780552D01*
X103711209Y-55009124D01*
X103673114Y-55085314D01*
X103635019Y-55123410D01*
X102911209Y-53904362D02*
X102911209Y-54285314D01*
X103292162Y-54323410D01*
X103254066Y-54285314D01*
X103215971Y-54209124D01*
X103215971Y-54018648D01*
X103254066Y-53942457D01*
X103292162Y-53904362D01*
X103368352Y-53866267D01*
X103558828Y-53866267D01*
X103635019Y-53904362D01*
X103673114Y-53942457D01*
X103711209Y-54018648D01*
X103711209Y-54209124D01*
X103673114Y-54285314D01*
X103635019Y-54323410D01*
X116389061Y-55847219D02*
X115589061Y-55847219D01*
X115589061Y-55656743D01*
X115627157Y-55542457D01*
X115703347Y-55466267D01*
X115779537Y-55428171D01*
X115931918Y-55390076D01*
X116046204Y-55390076D01*
X116198585Y-55428171D01*
X116274776Y-55466267D01*
X116350966Y-55542457D01*
X116389061Y-55656743D01*
X116389061Y-55847219D01*
X115589061Y-55123410D02*
X115589061Y-54628171D01*
X115893823Y-54894838D01*
X115893823Y-54780552D01*
X115931918Y-54704362D01*
X115970014Y-54666267D01*
X116046204Y-54628171D01*
X116236680Y-54628171D01*
X116312871Y-54666267D01*
X116350966Y-54704362D01*
X116389061Y-54780552D01*
X116389061Y-55009124D01*
X116350966Y-55085314D01*
X116312871Y-55123410D01*
X115589061Y-53942457D02*
X115589061Y-54094838D01*
X115627157Y-54171029D01*
X115665252Y-54209124D01*
X115779537Y-54285314D01*
X115931918Y-54323410D01*
X116236680Y-54323410D01*
X116312871Y-54285314D01*
X116350966Y-54247219D01*
X116389061Y-54171029D01*
X116389061Y-54018648D01*
X116350966Y-53942457D01*
X116312871Y-53904362D01*
X116236680Y-53866267D01*
X116046204Y-53866267D01*
X115970014Y-53904362D01*
X115931918Y-53942457D01*
X115893823Y-54018648D01*
X115893823Y-54171029D01*
X115931918Y-54247219D01*
X115970014Y-54285314D01*
X116046204Y-54323410D01*
X129066913Y-55847219D02*
X128266913Y-55847219D01*
X128266913Y-55656743D01*
X128305009Y-55542457D01*
X128381199Y-55466267D01*
X128457389Y-55428171D01*
X128609770Y-55390076D01*
X128724056Y-55390076D01*
X128876437Y-55428171D01*
X128952628Y-55466267D01*
X129028818Y-55542457D01*
X129066913Y-55656743D01*
X129066913Y-55847219D01*
X128266913Y-55123410D02*
X128266913Y-54628171D01*
X128571675Y-54894838D01*
X128571675Y-54780552D01*
X128609770Y-54704362D01*
X128647866Y-54666267D01*
X128724056Y-54628171D01*
X128914532Y-54628171D01*
X128990723Y-54666267D01*
X129028818Y-54704362D01*
X129066913Y-54780552D01*
X129066913Y-55009124D01*
X129028818Y-55085314D01*
X128990723Y-55123410D01*
X128266913Y-54361505D02*
X128266913Y-53828171D01*
X129066913Y-54171029D01*
X141744765Y-55847219D02*
X140944765Y-55847219D01*
X140944765Y-55656743D01*
X140982861Y-55542457D01*
X141059051Y-55466267D01*
X141135241Y-55428171D01*
X141287622Y-55390076D01*
X141401908Y-55390076D01*
X141554289Y-55428171D01*
X141630480Y-55466267D01*
X141706670Y-55542457D01*
X141744765Y-55656743D01*
X141744765Y-55847219D01*
X140944765Y-55123410D02*
X140944765Y-54628171D01*
X141249527Y-54894838D01*
X141249527Y-54780552D01*
X141287622Y-54704362D01*
X141325718Y-54666267D01*
X141401908Y-54628171D01*
X141592384Y-54628171D01*
X141668575Y-54666267D01*
X141706670Y-54704362D01*
X141744765Y-54780552D01*
X141744765Y-55009124D01*
X141706670Y-55085314D01*
X141668575Y-55123410D01*
X141287622Y-54171029D02*
X141249527Y-54247219D01*
X141211432Y-54285314D01*
X141135241Y-54323410D01*
X141097146Y-54323410D01*
X141020956Y-54285314D01*
X140982861Y-54247219D01*
X140944765Y-54171029D01*
X140944765Y-54018648D01*
X140982861Y-53942457D01*
X141020956Y-53904362D01*
X141097146Y-53866267D01*
X141135241Y-53866267D01*
X141211432Y-53904362D01*
X141249527Y-53942457D01*
X141287622Y-54018648D01*
X141287622Y-54171029D01*
X141325718Y-54247219D01*
X141363813Y-54285314D01*
X141440003Y-54323410D01*
X141592384Y-54323410D01*
X141668575Y-54285314D01*
X141706670Y-54247219D01*
X141744765Y-54171029D01*
X141744765Y-54018648D01*
X141706670Y-53942457D01*
X141668575Y-53904362D01*
X141592384Y-53866267D01*
X141440003Y-53866267D01*
X141363813Y-53904362D01*
X141325718Y-53942457D01*
X141287622Y-54018648D01*
X154422617Y-55847219D02*
X153622617Y-55847219D01*
X153622617Y-55656743D01*
X153660713Y-55542457D01*
X153736903Y-55466267D01*
X153813093Y-55428171D01*
X153965474Y-55390076D01*
X154079760Y-55390076D01*
X154232141Y-55428171D01*
X154308332Y-55466267D01*
X154384522Y-55542457D01*
X154422617Y-55656743D01*
X154422617Y-55847219D01*
X153622617Y-55123410D02*
X153622617Y-54628171D01*
X153927379Y-54894838D01*
X153927379Y-54780552D01*
X153965474Y-54704362D01*
X154003570Y-54666267D01*
X154079760Y-54628171D01*
X154270236Y-54628171D01*
X154346427Y-54666267D01*
X154384522Y-54704362D01*
X154422617Y-54780552D01*
X154422617Y-55009124D01*
X154384522Y-55085314D01*
X154346427Y-55123410D01*
X154422617Y-54247219D02*
X154422617Y-54094838D01*
X154384522Y-54018648D01*
X154346427Y-53980552D01*
X154232141Y-53904362D01*
X154079760Y-53866267D01*
X153774998Y-53866267D01*
X153698808Y-53904362D01*
X153660713Y-53942457D01*
X153622617Y-54018648D01*
X153622617Y-54171029D01*
X153660713Y-54247219D01*
X153698808Y-54285314D01*
X153774998Y-54323410D01*
X153965474Y-54323410D01*
X154041665Y-54285314D01*
X154079760Y-54247219D01*
X154117855Y-54171029D01*
X154117855Y-54018648D01*
X154079760Y-53942457D01*
X154041665Y-53904362D01*
X153965474Y-53866267D01*
X167100469Y-55847219D02*
X166300469Y-55847219D01*
X166300469Y-55656743D01*
X166338565Y-55542457D01*
X166414755Y-55466267D01*
X166490945Y-55428171D01*
X166643326Y-55390076D01*
X166757612Y-55390076D01*
X166909993Y-55428171D01*
X166986184Y-55466267D01*
X167062374Y-55542457D01*
X167100469Y-55656743D01*
X167100469Y-55847219D01*
X166567136Y-54704362D02*
X167100469Y-54704362D01*
X166262374Y-54894838D02*
X166833803Y-55085314D01*
X166833803Y-54590076D01*
X166300469Y-54132933D02*
X166300469Y-54056743D01*
X166338565Y-53980552D01*
X166376660Y-53942457D01*
X166452850Y-53904362D01*
X166605231Y-53866267D01*
X166795707Y-53866267D01*
X166948088Y-53904362D01*
X167024279Y-53942457D01*
X167062374Y-53980552D01*
X167100469Y-54056743D01*
X167100469Y-54132933D01*
X167062374Y-54209124D01*
X167024279Y-54247219D01*
X166948088Y-54285314D01*
X166795707Y-54323410D01*
X166605231Y-54323410D01*
X166452850Y-54285314D01*
X166376660Y-54247219D01*
X166338565Y-54209124D01*
X166300469Y-54132933D01*
X179778321Y-55847219D02*
X178978321Y-55847219D01*
X178978321Y-55656743D01*
X179016417Y-55542457D01*
X179092607Y-55466267D01*
X179168797Y-55428171D01*
X179321178Y-55390076D01*
X179435464Y-55390076D01*
X179587845Y-55428171D01*
X179664036Y-55466267D01*
X179740226Y-55542457D01*
X179778321Y-55656743D01*
X179778321Y-55847219D01*
X179244988Y-54704362D02*
X179778321Y-54704362D01*
X178940226Y-54894838D02*
X179511655Y-55085314D01*
X179511655Y-54590076D01*
X179778321Y-53866267D02*
X179778321Y-54323410D01*
X179778321Y-54094838D02*
X178978321Y-54094838D01*
X179092607Y-54171029D01*
X179168797Y-54247219D01*
X179206893Y-54323410D01*
X192456173Y-55847219D02*
X191656173Y-55847219D01*
X191656173Y-55656743D01*
X191694269Y-55542457D01*
X191770459Y-55466267D01*
X191846649Y-55428171D01*
X191999030Y-55390076D01*
X192113316Y-55390076D01*
X192265697Y-55428171D01*
X192341888Y-55466267D01*
X192418078Y-55542457D01*
X192456173Y-55656743D01*
X192456173Y-55847219D01*
X191922840Y-54704362D02*
X192456173Y-54704362D01*
X191618078Y-54894838D02*
X192189507Y-55085314D01*
X192189507Y-54590076D01*
X191732364Y-54323410D02*
X191694269Y-54285314D01*
X191656173Y-54209124D01*
X191656173Y-54018648D01*
X191694269Y-53942457D01*
X191732364Y-53904362D01*
X191808554Y-53866267D01*
X191884745Y-53866267D01*
X191999030Y-53904362D01*
X192456173Y-54361505D01*
X192456173Y-53866267D01*
X205116529Y-55847219D02*
X204316529Y-55847219D01*
X204316529Y-55656743D01*
X204354625Y-55542457D01*
X204430815Y-55466267D01*
X204507005Y-55428171D01*
X204659386Y-55390076D01*
X204773672Y-55390076D01*
X204926053Y-55428171D01*
X205002244Y-55466267D01*
X205078434Y-55542457D01*
X205116529Y-55656743D01*
X205116529Y-55847219D01*
X204583196Y-54704362D02*
X205116529Y-54704362D01*
X204278434Y-54894838D02*
X204849863Y-55085314D01*
X204849863Y-54590076D01*
X204316529Y-54361505D02*
X204316529Y-53866267D01*
X204621291Y-54132933D01*
X204621291Y-54018648D01*
X204659386Y-53942457D01*
X204697482Y-53904362D01*
X204773672Y-53866267D01*
X204964148Y-53866267D01*
X205040339Y-53904362D01*
X205078434Y-53942457D01*
X205116529Y-54018648D01*
X205116529Y-54247219D01*
X205078434Y-54323410D01*
X205040339Y-54361505D01*
X217723203Y-55847219D02*
X216923203Y-55847219D01*
X216923203Y-55656743D01*
X216961299Y-55542457D01*
X217037489Y-55466267D01*
X217113679Y-55428171D01*
X217266060Y-55390076D01*
X217380346Y-55390076D01*
X217532727Y-55428171D01*
X217608918Y-55466267D01*
X217685108Y-55542457D01*
X217723203Y-55656743D01*
X217723203Y-55847219D01*
X216999394Y-55085314D02*
X216961299Y-55047219D01*
X216923203Y-54971029D01*
X216923203Y-54780552D01*
X216961299Y-54704362D01*
X216999394Y-54666267D01*
X217075584Y-54628171D01*
X217151775Y-54628171D01*
X217266060Y-54666267D01*
X217723203Y-55123410D01*
X217723203Y-54628171D01*
X217723203Y-54247219D02*
X217723203Y-54094838D01*
X217685108Y-54018648D01*
X217647013Y-53980552D01*
X217532727Y-53904362D01*
X217380346Y-53866267D01*
X217075584Y-53866267D01*
X216999394Y-53904362D01*
X216961299Y-53942457D01*
X216923203Y-54018648D01*
X216923203Y-54171029D01*
X216961299Y-54247219D01*
X216999394Y-54285314D01*
X217075584Y-54323410D01*
X217266060Y-54323410D01*
X217342251Y-54285314D01*
X217380346Y-54247219D01*
X217418441Y-54171029D01*
X217418441Y-54018648D01*
X217380346Y-53942457D01*
X217342251Y-53904362D01*
X217266060Y-53866267D01*
X258683259Y-57500748D02*
X257883259Y-57500748D01*
X257883259Y-57310272D01*
X257921355Y-57195986D01*
X257997545Y-57119796D01*
X258073735Y-57081700D01*
X258226116Y-57043605D01*
X258340402Y-57043605D01*
X258492783Y-57081700D01*
X258568974Y-57119796D01*
X258645164Y-57195986D01*
X258683259Y-57310272D01*
X258683259Y-57500748D01*
X257883259Y-56776939D02*
X257883259Y-56281700D01*
X258188021Y-56548367D01*
X258188021Y-56434081D01*
X258226116Y-56357891D01*
X258264212Y-56319796D01*
X258340402Y-56281700D01*
X258530878Y-56281700D01*
X258607069Y-56319796D01*
X258645164Y-56357891D01*
X258683259Y-56434081D01*
X258683259Y-56662653D01*
X258645164Y-56738843D01*
X258607069Y-56776939D01*
X257883259Y-55786462D02*
X257883259Y-55710272D01*
X257921355Y-55634081D01*
X257959450Y-55595986D01*
X258035640Y-55557891D01*
X258188021Y-55519796D01*
X258378497Y-55519796D01*
X258530878Y-55557891D01*
X258607069Y-55595986D01*
X258645164Y-55634081D01*
X258683259Y-55710272D01*
X258683259Y-55786462D01*
X258645164Y-55862653D01*
X258607069Y-55900748D01*
X258530878Y-55938843D01*
X258378497Y-55976939D01*
X258188021Y-55976939D01*
X258035640Y-55938843D01*
X257959450Y-55900748D01*
X257921355Y-55862653D01*
X257883259Y-55786462D01*
X56169264Y-57500748D02*
X55369264Y-57500748D01*
X55369264Y-57310272D01*
X55407360Y-57195986D01*
X55483550Y-57119796D01*
X55559740Y-57081700D01*
X55712121Y-57043605D01*
X55826407Y-57043605D01*
X55978788Y-57081700D01*
X56054979Y-57119796D01*
X56131169Y-57195986D01*
X56169264Y-57310272D01*
X56169264Y-57500748D01*
X55369264Y-56776939D02*
X55369264Y-56281700D01*
X55674026Y-56548367D01*
X55674026Y-56434081D01*
X55712121Y-56357891D01*
X55750217Y-56319796D01*
X55826407Y-56281700D01*
X56016883Y-56281700D01*
X56093074Y-56319796D01*
X56131169Y-56357891D01*
X56169264Y-56434081D01*
X56169264Y-56662653D01*
X56131169Y-56738843D01*
X56093074Y-56776939D01*
X56169264Y-55519796D02*
X56169264Y-55976939D01*
X56169264Y-55748367D02*
X55369264Y-55748367D01*
X55483550Y-55824558D01*
X55559740Y-55900748D01*
X55597836Y-55976939D01*
X65677653Y-55847219D02*
X64877653Y-55847219D01*
X64877653Y-55656743D01*
X64915749Y-55542457D01*
X64991939Y-55466267D01*
X65068129Y-55428171D01*
X65220510Y-55390076D01*
X65334796Y-55390076D01*
X65487177Y-55428171D01*
X65563368Y-55466267D01*
X65639558Y-55542457D01*
X65677653Y-55656743D01*
X65677653Y-55847219D01*
X64877653Y-55123410D02*
X64877653Y-54628171D01*
X65182415Y-54894838D01*
X65182415Y-54780552D01*
X65220510Y-54704362D01*
X65258606Y-54666267D01*
X65334796Y-54628171D01*
X65525272Y-54628171D01*
X65601463Y-54666267D01*
X65639558Y-54704362D01*
X65677653Y-54780552D01*
X65677653Y-55009124D01*
X65639558Y-55085314D01*
X65601463Y-55123410D01*
X64953844Y-54323410D02*
X64915749Y-54285314D01*
X64877653Y-54209124D01*
X64877653Y-54018648D01*
X64915749Y-53942457D01*
X64953844Y-53904362D01*
X65030034Y-53866267D01*
X65106225Y-53866267D01*
X65220510Y-53904362D01*
X65677653Y-54361505D01*
X65677653Y-53866267D01*
X81524968Y-57500748D02*
X80724968Y-57500748D01*
X80724968Y-57310272D01*
X80763064Y-57195986D01*
X80839254Y-57119796D01*
X80915444Y-57081700D01*
X81067825Y-57043605D01*
X81182111Y-57043605D01*
X81334492Y-57081700D01*
X81410683Y-57119796D01*
X81486873Y-57195986D01*
X81524968Y-57310272D01*
X81524968Y-57500748D01*
X81524968Y-56281700D02*
X81524968Y-56738843D01*
X81524968Y-56510272D02*
X80724968Y-56510272D01*
X80839254Y-56586462D01*
X80915444Y-56662653D01*
X80953540Y-56738843D01*
X81067825Y-55824558D02*
X81029730Y-55900748D01*
X80991635Y-55938843D01*
X80915444Y-55976939D01*
X80877349Y-55976939D01*
X80801159Y-55938843D01*
X80763064Y-55900748D01*
X80724968Y-55824558D01*
X80724968Y-55672177D01*
X80763064Y-55595986D01*
X80801159Y-55557891D01*
X80877349Y-55519796D01*
X80915444Y-55519796D01*
X80991635Y-55557891D01*
X81029730Y-55595986D01*
X81067825Y-55672177D01*
X81067825Y-55824558D01*
X81105921Y-55900748D01*
X81144016Y-55938843D01*
X81220206Y-55976939D01*
X81372587Y-55976939D01*
X81448778Y-55938843D01*
X81486873Y-55900748D01*
X81524968Y-55824558D01*
X81524968Y-55672177D01*
X81486873Y-55595986D01*
X81448778Y-55557891D01*
X81372587Y-55519796D01*
X81220206Y-55519796D01*
X81144016Y-55557891D01*
X81105921Y-55595986D01*
X81067825Y-55672177D01*
X94202820Y-57500748D02*
X93402820Y-57500748D01*
X93402820Y-57310272D01*
X93440916Y-57195986D01*
X93517106Y-57119796D01*
X93593296Y-57081700D01*
X93745677Y-57043605D01*
X93859963Y-57043605D01*
X94012344Y-57081700D01*
X94088535Y-57119796D01*
X94164725Y-57195986D01*
X94202820Y-57310272D01*
X94202820Y-57500748D01*
X94202820Y-56281700D02*
X94202820Y-56738843D01*
X94202820Y-56510272D02*
X93402820Y-56510272D01*
X93517106Y-56586462D01*
X93593296Y-56662653D01*
X93631392Y-56738843D01*
X94202820Y-55900748D02*
X94202820Y-55748367D01*
X94164725Y-55672177D01*
X94126630Y-55634081D01*
X94012344Y-55557891D01*
X93859963Y-55519796D01*
X93555201Y-55519796D01*
X93479011Y-55557891D01*
X93440916Y-55595986D01*
X93402820Y-55672177D01*
X93402820Y-55824558D01*
X93440916Y-55900748D01*
X93479011Y-55938843D01*
X93555201Y-55976939D01*
X93745677Y-55976939D01*
X93821868Y-55938843D01*
X93859963Y-55900748D01*
X93898058Y-55824558D01*
X93898058Y-55672177D01*
X93859963Y-55595986D01*
X93821868Y-55557891D01*
X93745677Y-55519796D01*
X106880672Y-57500748D02*
X106080672Y-57500748D01*
X106080672Y-57310272D01*
X106118768Y-57195986D01*
X106194958Y-57119796D01*
X106271148Y-57081700D01*
X106423529Y-57043605D01*
X106537815Y-57043605D01*
X106690196Y-57081700D01*
X106766387Y-57119796D01*
X106842577Y-57195986D01*
X106880672Y-57310272D01*
X106880672Y-57500748D01*
X106156863Y-56738843D02*
X106118768Y-56700748D01*
X106080672Y-56624558D01*
X106080672Y-56434081D01*
X106118768Y-56357891D01*
X106156863Y-56319796D01*
X106233053Y-56281700D01*
X106309244Y-56281700D01*
X106423529Y-56319796D01*
X106880672Y-56776939D01*
X106880672Y-56281700D01*
X106080672Y-55786462D02*
X106080672Y-55710272D01*
X106118768Y-55634081D01*
X106156863Y-55595986D01*
X106233053Y-55557891D01*
X106385434Y-55519796D01*
X106575910Y-55519796D01*
X106728291Y-55557891D01*
X106804482Y-55595986D01*
X106842577Y-55634081D01*
X106880672Y-55710272D01*
X106880672Y-55786462D01*
X106842577Y-55862653D01*
X106804482Y-55900748D01*
X106728291Y-55938843D01*
X106575910Y-55976939D01*
X106385434Y-55976939D01*
X106233053Y-55938843D01*
X106156863Y-55900748D01*
X106118768Y-55862653D01*
X106080672Y-55786462D01*
X119558524Y-57500748D02*
X118758524Y-57500748D01*
X118758524Y-57310272D01*
X118796620Y-57195986D01*
X118872810Y-57119796D01*
X118949000Y-57081700D01*
X119101381Y-57043605D01*
X119215667Y-57043605D01*
X119368048Y-57081700D01*
X119444239Y-57119796D01*
X119520429Y-57195986D01*
X119558524Y-57310272D01*
X119558524Y-57500748D01*
X118834715Y-56738843D02*
X118796620Y-56700748D01*
X118758524Y-56624558D01*
X118758524Y-56434081D01*
X118796620Y-56357891D01*
X118834715Y-56319796D01*
X118910905Y-56281700D01*
X118987096Y-56281700D01*
X119101381Y-56319796D01*
X119558524Y-56776939D01*
X119558524Y-56281700D01*
X119558524Y-55519796D02*
X119558524Y-55976939D01*
X119558524Y-55748367D02*
X118758524Y-55748367D01*
X118872810Y-55824558D01*
X118949000Y-55900748D01*
X118987096Y-55976939D01*
X132236376Y-57500748D02*
X131436376Y-57500748D01*
X131436376Y-57310272D01*
X131474472Y-57195986D01*
X131550662Y-57119796D01*
X131626852Y-57081700D01*
X131779233Y-57043605D01*
X131893519Y-57043605D01*
X132045900Y-57081700D01*
X132122091Y-57119796D01*
X132198281Y-57195986D01*
X132236376Y-57310272D01*
X132236376Y-57500748D01*
X131512567Y-56738843D02*
X131474472Y-56700748D01*
X131436376Y-56624558D01*
X131436376Y-56434081D01*
X131474472Y-56357891D01*
X131512567Y-56319796D01*
X131588757Y-56281700D01*
X131664948Y-56281700D01*
X131779233Y-56319796D01*
X132236376Y-56776939D01*
X132236376Y-56281700D01*
X131512567Y-55976939D02*
X131474472Y-55938843D01*
X131436376Y-55862653D01*
X131436376Y-55672177D01*
X131474472Y-55595986D01*
X131512567Y-55557891D01*
X131588757Y-55519796D01*
X131664948Y-55519796D01*
X131779233Y-55557891D01*
X132236376Y-56015034D01*
X132236376Y-55519796D01*
X144914228Y-57500748D02*
X144114228Y-57500748D01*
X144114228Y-57310272D01*
X144152324Y-57195986D01*
X144228514Y-57119796D01*
X144304704Y-57081700D01*
X144457085Y-57043605D01*
X144571371Y-57043605D01*
X144723752Y-57081700D01*
X144799943Y-57119796D01*
X144876133Y-57195986D01*
X144914228Y-57310272D01*
X144914228Y-57500748D01*
X144190419Y-56738843D02*
X144152324Y-56700748D01*
X144114228Y-56624558D01*
X144114228Y-56434081D01*
X144152324Y-56357891D01*
X144190419Y-56319796D01*
X144266609Y-56281700D01*
X144342800Y-56281700D01*
X144457085Y-56319796D01*
X144914228Y-56776939D01*
X144914228Y-56281700D01*
X144114228Y-56015034D02*
X144114228Y-55519796D01*
X144418990Y-55786462D01*
X144418990Y-55672177D01*
X144457085Y-55595986D01*
X144495181Y-55557891D01*
X144571371Y-55519796D01*
X144761847Y-55519796D01*
X144838038Y-55557891D01*
X144876133Y-55595986D01*
X144914228Y-55672177D01*
X144914228Y-55900748D01*
X144876133Y-55976939D01*
X144838038Y-56015034D01*
X157592080Y-57500748D02*
X156792080Y-57500748D01*
X156792080Y-57310272D01*
X156830176Y-57195986D01*
X156906366Y-57119796D01*
X156982556Y-57081700D01*
X157134937Y-57043605D01*
X157249223Y-57043605D01*
X157401604Y-57081700D01*
X157477795Y-57119796D01*
X157553985Y-57195986D01*
X157592080Y-57310272D01*
X157592080Y-57500748D01*
X156868271Y-56738843D02*
X156830176Y-56700748D01*
X156792080Y-56624558D01*
X156792080Y-56434081D01*
X156830176Y-56357891D01*
X156868271Y-56319796D01*
X156944461Y-56281700D01*
X157020652Y-56281700D01*
X157134937Y-56319796D01*
X157592080Y-56776939D01*
X157592080Y-56281700D01*
X157058747Y-55595986D02*
X157592080Y-55595986D01*
X156753985Y-55786462D02*
X157325414Y-55976939D01*
X157325414Y-55481700D01*
X170269932Y-57500748D02*
X169469932Y-57500748D01*
X169469932Y-57310272D01*
X169508028Y-57195986D01*
X169584218Y-57119796D01*
X169660408Y-57081700D01*
X169812789Y-57043605D01*
X169927075Y-57043605D01*
X170079456Y-57081700D01*
X170155647Y-57119796D01*
X170231837Y-57195986D01*
X170269932Y-57310272D01*
X170269932Y-57500748D01*
X169546123Y-56738843D02*
X169508028Y-56700748D01*
X169469932Y-56624558D01*
X169469932Y-56434081D01*
X169508028Y-56357891D01*
X169546123Y-56319796D01*
X169622313Y-56281700D01*
X169698504Y-56281700D01*
X169812789Y-56319796D01*
X170269932Y-56776939D01*
X170269932Y-56281700D01*
X169469932Y-55557891D02*
X169469932Y-55938843D01*
X169850885Y-55976939D01*
X169812789Y-55938843D01*
X169774694Y-55862653D01*
X169774694Y-55672177D01*
X169812789Y-55595986D01*
X169850885Y-55557891D01*
X169927075Y-55519796D01*
X170117551Y-55519796D01*
X170193742Y-55557891D01*
X170231837Y-55595986D01*
X170269932Y-55672177D01*
X170269932Y-55862653D01*
X170231837Y-55938843D01*
X170193742Y-55976939D01*
X182947784Y-57500748D02*
X182147784Y-57500748D01*
X182147784Y-57310272D01*
X182185880Y-57195986D01*
X182262070Y-57119796D01*
X182338260Y-57081700D01*
X182490641Y-57043605D01*
X182604927Y-57043605D01*
X182757308Y-57081700D01*
X182833499Y-57119796D01*
X182909689Y-57195986D01*
X182947784Y-57310272D01*
X182947784Y-57500748D01*
X182223975Y-56738843D02*
X182185880Y-56700748D01*
X182147784Y-56624558D01*
X182147784Y-56434081D01*
X182185880Y-56357891D01*
X182223975Y-56319796D01*
X182300165Y-56281700D01*
X182376356Y-56281700D01*
X182490641Y-56319796D01*
X182947784Y-56776939D01*
X182947784Y-56281700D01*
X182147784Y-55595986D02*
X182147784Y-55748367D01*
X182185880Y-55824558D01*
X182223975Y-55862653D01*
X182338260Y-55938843D01*
X182490641Y-55976939D01*
X182795403Y-55976939D01*
X182871594Y-55938843D01*
X182909689Y-55900748D01*
X182947784Y-55824558D01*
X182947784Y-55672177D01*
X182909689Y-55595986D01*
X182871594Y-55557891D01*
X182795403Y-55519796D01*
X182604927Y-55519796D01*
X182528737Y-55557891D01*
X182490641Y-55595986D01*
X182452546Y-55672177D01*
X182452546Y-55824558D01*
X182490641Y-55900748D01*
X182528737Y-55938843D01*
X182604927Y-55976939D01*
X195625636Y-57500748D02*
X194825636Y-57500748D01*
X194825636Y-57310272D01*
X194863732Y-57195986D01*
X194939922Y-57119796D01*
X195016112Y-57081700D01*
X195168493Y-57043605D01*
X195282779Y-57043605D01*
X195435160Y-57081700D01*
X195511351Y-57119796D01*
X195587541Y-57195986D01*
X195625636Y-57310272D01*
X195625636Y-57500748D01*
X194901827Y-56738843D02*
X194863732Y-56700748D01*
X194825636Y-56624558D01*
X194825636Y-56434081D01*
X194863732Y-56357891D01*
X194901827Y-56319796D01*
X194978017Y-56281700D01*
X195054208Y-56281700D01*
X195168493Y-56319796D01*
X195625636Y-56776939D01*
X195625636Y-56281700D01*
X194825636Y-56015034D02*
X194825636Y-55481700D01*
X195625636Y-55824558D01*
X220873976Y-57500748D02*
X220073976Y-57500748D01*
X220073976Y-57310272D01*
X220112072Y-57195986D01*
X220188262Y-57119796D01*
X220264452Y-57081700D01*
X220416833Y-57043605D01*
X220531119Y-57043605D01*
X220683500Y-57081700D01*
X220759691Y-57119796D01*
X220835881Y-57195986D01*
X220873976Y-57310272D01*
X220873976Y-57500748D01*
X220073976Y-56357891D02*
X220073976Y-56510272D01*
X220112072Y-56586462D01*
X220150167Y-56624558D01*
X220264452Y-56700748D01*
X220416833Y-56738843D01*
X220721595Y-56738843D01*
X220797786Y-56700748D01*
X220835881Y-56662653D01*
X220873976Y-56586462D01*
X220873976Y-56434081D01*
X220835881Y-56357891D01*
X220797786Y-56319796D01*
X220721595Y-56281700D01*
X220531119Y-56281700D01*
X220454929Y-56319796D01*
X220416833Y-56357891D01*
X220378738Y-56434081D01*
X220378738Y-56586462D01*
X220416833Y-56662653D01*
X220454929Y-56700748D01*
X220531119Y-56738843D01*
X220416833Y-55824558D02*
X220378738Y-55900748D01*
X220340643Y-55938843D01*
X220264452Y-55976939D01*
X220226357Y-55976939D01*
X220150167Y-55938843D01*
X220112072Y-55900748D01*
X220073976Y-55824558D01*
X220073976Y-55672177D01*
X220112072Y-55595986D01*
X220150167Y-55557891D01*
X220226357Y-55519796D01*
X220264452Y-55519796D01*
X220340643Y-55557891D01*
X220378738Y-55595986D01*
X220416833Y-55672177D01*
X220416833Y-55824558D01*
X220454929Y-55900748D01*
X220493024Y-55938843D01*
X220569214Y-55976939D01*
X220721595Y-55976939D01*
X220797786Y-55938843D01*
X220835881Y-55900748D01*
X220873976Y-55824558D01*
X220873976Y-55672177D01*
X220835881Y-55595986D01*
X220797786Y-55557891D01*
X220721595Y-55519796D01*
X220569214Y-55519796D01*
X220493024Y-55557891D01*
X220454929Y-55595986D01*
X220416833Y-55672177D01*
X255594535Y-55847219D02*
X254794535Y-55847219D01*
X254794535Y-55656743D01*
X254832631Y-55542457D01*
X254908821Y-55466267D01*
X254985011Y-55428171D01*
X255137392Y-55390076D01*
X255251678Y-55390076D01*
X255404059Y-55428171D01*
X255480250Y-55466267D01*
X255556440Y-55542457D01*
X255594535Y-55656743D01*
X255594535Y-55847219D01*
X255061202Y-54704362D02*
X255594535Y-54704362D01*
X254756440Y-54894838D02*
X255327869Y-55085314D01*
X255327869Y-54590076D01*
X255061202Y-53942457D02*
X255594535Y-53942457D01*
X254756440Y-54132933D02*
X255327869Y-54323410D01*
X255327869Y-53828171D01*
X84694431Y-58773325D02*
X83894431Y-58773325D01*
X83894431Y-58582849D01*
X83932527Y-58468563D01*
X84008717Y-58392372D01*
X84084907Y-58354277D01*
X84237288Y-58316182D01*
X84351574Y-58316182D01*
X84503955Y-58354277D01*
X84580146Y-58392372D01*
X84656336Y-58468563D01*
X84694431Y-58582849D01*
X84694431Y-58773325D01*
X83894431Y-58049515D02*
X83894431Y-57554277D01*
X84199193Y-57820944D01*
X84199193Y-57706658D01*
X84237288Y-57630468D01*
X84275384Y-57592372D01*
X84351574Y-57554277D01*
X84542050Y-57554277D01*
X84618241Y-57592372D01*
X84656336Y-57630468D01*
X84694431Y-57706658D01*
X84694431Y-57935229D01*
X84656336Y-58011420D01*
X84618241Y-58049515D01*
X97372283Y-58773325D02*
X96572283Y-58773325D01*
X96572283Y-58582849D01*
X96610379Y-58468563D01*
X96686569Y-58392372D01*
X96762759Y-58354277D01*
X96915140Y-58316182D01*
X97029426Y-58316182D01*
X97181807Y-58354277D01*
X97257998Y-58392372D01*
X97334188Y-58468563D01*
X97372283Y-58582849D01*
X97372283Y-58773325D01*
X96838950Y-57630468D02*
X97372283Y-57630468D01*
X96534188Y-57820944D02*
X97105617Y-58011420D01*
X97105617Y-57516182D01*
X110050135Y-58773325D02*
X109250135Y-58773325D01*
X109250135Y-58582849D01*
X109288231Y-58468563D01*
X109364421Y-58392372D01*
X109440611Y-58354277D01*
X109592992Y-58316182D01*
X109707278Y-58316182D01*
X109859659Y-58354277D01*
X109935850Y-58392372D01*
X110012040Y-58468563D01*
X110050135Y-58582849D01*
X110050135Y-58773325D01*
X109250135Y-57592372D02*
X109250135Y-57973325D01*
X109631088Y-58011420D01*
X109592992Y-57973325D01*
X109554897Y-57897134D01*
X109554897Y-57706658D01*
X109592992Y-57630468D01*
X109631088Y-57592372D01*
X109707278Y-57554277D01*
X109897754Y-57554277D01*
X109973945Y-57592372D01*
X110012040Y-57630468D01*
X110050135Y-57706658D01*
X110050135Y-57897134D01*
X110012040Y-57973325D01*
X109973945Y-58011420D01*
X122727987Y-58773325D02*
X121927987Y-58773325D01*
X121927987Y-58582849D01*
X121966083Y-58468563D01*
X122042273Y-58392372D01*
X122118463Y-58354277D01*
X122270844Y-58316182D01*
X122385130Y-58316182D01*
X122537511Y-58354277D01*
X122613702Y-58392372D01*
X122689892Y-58468563D01*
X122727987Y-58582849D01*
X122727987Y-58773325D01*
X121927987Y-57630468D02*
X121927987Y-57782849D01*
X121966083Y-57859039D01*
X122004178Y-57897134D01*
X122118463Y-57973325D01*
X122270844Y-58011420D01*
X122575606Y-58011420D01*
X122651797Y-57973325D01*
X122689892Y-57935229D01*
X122727987Y-57859039D01*
X122727987Y-57706658D01*
X122689892Y-57630468D01*
X122651797Y-57592372D01*
X122575606Y-57554277D01*
X122385130Y-57554277D01*
X122308940Y-57592372D01*
X122270844Y-57630468D01*
X122232749Y-57706658D01*
X122232749Y-57859039D01*
X122270844Y-57935229D01*
X122308940Y-57973325D01*
X122385130Y-58011420D01*
X135405839Y-58773325D02*
X134605839Y-58773325D01*
X134605839Y-58582849D01*
X134643935Y-58468563D01*
X134720125Y-58392372D01*
X134796315Y-58354277D01*
X134948696Y-58316182D01*
X135062982Y-58316182D01*
X135215363Y-58354277D01*
X135291554Y-58392372D01*
X135367744Y-58468563D01*
X135405839Y-58582849D01*
X135405839Y-58773325D01*
X134605839Y-58049515D02*
X134605839Y-57516182D01*
X135405839Y-57859039D01*
X148083691Y-58773325D02*
X147283691Y-58773325D01*
X147283691Y-58582849D01*
X147321787Y-58468563D01*
X147397977Y-58392372D01*
X147474167Y-58354277D01*
X147626548Y-58316182D01*
X147740834Y-58316182D01*
X147893215Y-58354277D01*
X147969406Y-58392372D01*
X148045596Y-58468563D01*
X148083691Y-58582849D01*
X148083691Y-58773325D01*
X147626548Y-57859039D02*
X147588453Y-57935229D01*
X147550358Y-57973325D01*
X147474167Y-58011420D01*
X147436072Y-58011420D01*
X147359882Y-57973325D01*
X147321787Y-57935229D01*
X147283691Y-57859039D01*
X147283691Y-57706658D01*
X147321787Y-57630468D01*
X147359882Y-57592372D01*
X147436072Y-57554277D01*
X147474167Y-57554277D01*
X147550358Y-57592372D01*
X147588453Y-57630468D01*
X147626548Y-57706658D01*
X147626548Y-57859039D01*
X147664644Y-57935229D01*
X147702739Y-57973325D01*
X147778929Y-58011420D01*
X147931310Y-58011420D01*
X148007501Y-57973325D01*
X148045596Y-57935229D01*
X148083691Y-57859039D01*
X148083691Y-57706658D01*
X148045596Y-57630468D01*
X148007501Y-57592372D01*
X147931310Y-57554277D01*
X147778929Y-57554277D01*
X147702739Y-57592372D01*
X147664644Y-57630468D01*
X147626548Y-57706658D01*
X160761543Y-58773325D02*
X159961543Y-58773325D01*
X159961543Y-58582849D01*
X159999639Y-58468563D01*
X160075829Y-58392372D01*
X160152019Y-58354277D01*
X160304400Y-58316182D01*
X160418686Y-58316182D01*
X160571067Y-58354277D01*
X160647258Y-58392372D01*
X160723448Y-58468563D01*
X160761543Y-58582849D01*
X160761543Y-58773325D01*
X160761543Y-57935229D02*
X160761543Y-57782849D01*
X160723448Y-57706658D01*
X160685353Y-57668563D01*
X160571067Y-57592372D01*
X160418686Y-57554277D01*
X160113924Y-57554277D01*
X160037734Y-57592372D01*
X159999639Y-57630468D01*
X159961543Y-57706658D01*
X159961543Y-57859039D01*
X159999639Y-57935229D01*
X160037734Y-57973325D01*
X160113924Y-58011420D01*
X160304400Y-58011420D01*
X160380591Y-57973325D01*
X160418686Y-57935229D01*
X160456781Y-57859039D01*
X160456781Y-57706658D01*
X160418686Y-57630468D01*
X160380591Y-57592372D01*
X160304400Y-57554277D01*
X173439395Y-59154277D02*
X172639395Y-59154277D01*
X172639395Y-58963801D01*
X172677491Y-58849515D01*
X172753681Y-58773325D01*
X172829871Y-58735229D01*
X172982252Y-58697134D01*
X173096538Y-58697134D01*
X173248919Y-58735229D01*
X173325110Y-58773325D01*
X173401300Y-58849515D01*
X173439395Y-58963801D01*
X173439395Y-59154277D01*
X173439395Y-57935229D02*
X173439395Y-58392372D01*
X173439395Y-58163801D02*
X172639395Y-58163801D01*
X172753681Y-58239991D01*
X172829871Y-58316182D01*
X172867967Y-58392372D01*
X172639395Y-57439991D02*
X172639395Y-57363801D01*
X172677491Y-57287610D01*
X172715586Y-57249515D01*
X172791776Y-57211420D01*
X172944157Y-57173325D01*
X173134633Y-57173325D01*
X173287014Y-57211420D01*
X173363205Y-57249515D01*
X173401300Y-57287610D01*
X173439395Y-57363801D01*
X173439395Y-57439991D01*
X173401300Y-57516182D01*
X173363205Y-57554277D01*
X173287014Y-57592372D01*
X173134633Y-57630468D01*
X172944157Y-57630468D01*
X172791776Y-57592372D01*
X172715586Y-57554277D01*
X172677491Y-57516182D01*
X172639395Y-57439991D01*
X186117247Y-59154277D02*
X185317247Y-59154277D01*
X185317247Y-58963801D01*
X185355343Y-58849515D01*
X185431533Y-58773325D01*
X185507723Y-58735229D01*
X185660104Y-58697134D01*
X185774390Y-58697134D01*
X185926771Y-58735229D01*
X186002962Y-58773325D01*
X186079152Y-58849515D01*
X186117247Y-58963801D01*
X186117247Y-59154277D01*
X186117247Y-57935229D02*
X186117247Y-58392372D01*
X186117247Y-58163801D02*
X185317247Y-58163801D01*
X185431533Y-58239991D01*
X185507723Y-58316182D01*
X185545819Y-58392372D01*
X186117247Y-57173325D02*
X186117247Y-57630468D01*
X186117247Y-57401896D02*
X185317247Y-57401896D01*
X185431533Y-57478087D01*
X185507723Y-57554277D01*
X185545819Y-57630468D01*
X198795099Y-59154277D02*
X197995099Y-59154277D01*
X197995099Y-58963801D01*
X198033195Y-58849515D01*
X198109385Y-58773325D01*
X198185575Y-58735229D01*
X198337956Y-58697134D01*
X198452242Y-58697134D01*
X198604623Y-58735229D01*
X198680814Y-58773325D01*
X198757004Y-58849515D01*
X198795099Y-58963801D01*
X198795099Y-59154277D01*
X198795099Y-57935229D02*
X198795099Y-58392372D01*
X198795099Y-58163801D02*
X197995099Y-58163801D01*
X198109385Y-58239991D01*
X198185575Y-58316182D01*
X198223671Y-58392372D01*
X198071290Y-57630468D02*
X198033195Y-57592372D01*
X197995099Y-57516182D01*
X197995099Y-57325706D01*
X198033195Y-57249515D01*
X198071290Y-57211420D01*
X198147480Y-57173325D01*
X198223671Y-57173325D01*
X198337956Y-57211420D01*
X198795099Y-57668563D01*
X198795099Y-57173325D01*
X208268496Y-57500748D02*
X207468496Y-57500748D01*
X207468496Y-57310272D01*
X207506592Y-57195986D01*
X207582782Y-57119796D01*
X207658972Y-57081700D01*
X207811353Y-57043605D01*
X207925639Y-57043605D01*
X208078020Y-57081700D01*
X208154211Y-57119796D01*
X208230401Y-57195986D01*
X208268496Y-57310272D01*
X208268496Y-57500748D01*
X207544687Y-56738843D02*
X207506592Y-56700748D01*
X207468496Y-56624558D01*
X207468496Y-56434081D01*
X207506592Y-56357891D01*
X207544687Y-56319796D01*
X207620877Y-56281700D01*
X207697068Y-56281700D01*
X207811353Y-56319796D01*
X208268496Y-56776939D01*
X208268496Y-56281700D01*
X207811353Y-55824558D02*
X207773258Y-55900748D01*
X207735163Y-55938843D01*
X207658972Y-55976939D01*
X207620877Y-55976939D01*
X207544687Y-55938843D01*
X207506592Y-55900748D01*
X207468496Y-55824558D01*
X207468496Y-55672177D01*
X207506592Y-55595986D01*
X207544687Y-55557891D01*
X207620877Y-55519796D01*
X207658972Y-55519796D01*
X207735163Y-55557891D01*
X207773258Y-55595986D01*
X207811353Y-55672177D01*
X207811353Y-55824558D01*
X207849449Y-55900748D01*
X207887544Y-55938843D01*
X207963734Y-55976939D01*
X208116115Y-55976939D01*
X208192306Y-55938843D01*
X208230401Y-55900748D01*
X208268496Y-55824558D01*
X208268496Y-55672177D01*
X208230401Y-55595986D01*
X208192306Y-55557891D01*
X208116115Y-55519796D01*
X207963734Y-55519796D01*
X207887544Y-55557891D01*
X207849449Y-55595986D01*
X207811353Y-55672177D01*
X224024749Y-59154277D02*
X223224749Y-59154277D01*
X223224749Y-58963801D01*
X223262845Y-58849515D01*
X223339035Y-58773325D01*
X223415225Y-58735229D01*
X223567606Y-58697134D01*
X223681892Y-58697134D01*
X223834273Y-58735229D01*
X223910464Y-58773325D01*
X223986654Y-58849515D01*
X224024749Y-58963801D01*
X224024749Y-59154277D01*
X224024749Y-57935229D02*
X224024749Y-58392372D01*
X224024749Y-58163801D02*
X223224749Y-58163801D01*
X223339035Y-58239991D01*
X223415225Y-58316182D01*
X223453321Y-58392372D01*
X223491416Y-57249515D02*
X224024749Y-57249515D01*
X223186654Y-57439991D02*
X223758083Y-57630468D01*
X223758083Y-57135229D01*
X252319660Y-54193690D02*
X251519660Y-54193690D01*
X251519660Y-54003214D01*
X251557756Y-53888928D01*
X251633946Y-53812738D01*
X251710136Y-53774642D01*
X251862517Y-53736547D01*
X251976803Y-53736547D01*
X252129184Y-53774642D01*
X252205375Y-53812738D01*
X252281565Y-53888928D01*
X252319660Y-54003214D01*
X252319660Y-54193690D01*
X251519660Y-53012738D02*
X251519660Y-53393690D01*
X251900613Y-53431785D01*
X251862517Y-53393690D01*
X251824422Y-53317500D01*
X251824422Y-53127023D01*
X251862517Y-53050833D01*
X251900613Y-53012738D01*
X251976803Y-52974642D01*
X252167279Y-52974642D01*
X252243470Y-53012738D01*
X252281565Y-53050833D01*
X252319660Y-53127023D01*
X252319660Y-53317500D01*
X252281565Y-53393690D01*
X252243470Y-53431785D01*
X251862517Y-52517500D02*
X251824422Y-52593690D01*
X251786327Y-52631785D01*
X251710136Y-52669881D01*
X251672041Y-52669881D01*
X251595851Y-52631785D01*
X251557756Y-52593690D01*
X251519660Y-52517500D01*
X251519660Y-52365119D01*
X251557756Y-52288928D01*
X251595851Y-52250833D01*
X251672041Y-52212738D01*
X251710136Y-52212738D01*
X251786327Y-52250833D01*
X251824422Y-52288928D01*
X251862517Y-52365119D01*
X251862517Y-52517500D01*
X251900613Y-52593690D01*
X251938708Y-52631785D01*
X252014898Y-52669881D01*
X252167279Y-52669881D01*
X252243470Y-52631785D01*
X252281565Y-52593690D01*
X252319660Y-52517500D01*
X252319660Y-52365119D01*
X252281565Y-52288928D01*
X252243470Y-52250833D01*
X252167279Y-52212738D01*
X252014898Y-52212738D01*
X251938708Y-52250833D01*
X251900613Y-52288928D01*
X251862517Y-52365119D01*
X246018112Y-57500748D02*
X245218112Y-57500748D01*
X245218112Y-57310272D01*
X245256208Y-57195986D01*
X245332398Y-57119796D01*
X245408588Y-57081700D01*
X245560969Y-57043605D01*
X245675255Y-57043605D01*
X245827636Y-57081700D01*
X245903827Y-57119796D01*
X245980017Y-57195986D01*
X246018112Y-57310272D01*
X246018112Y-57500748D01*
X245218112Y-56319796D02*
X245218112Y-56700748D01*
X245599065Y-56738843D01*
X245560969Y-56700748D01*
X245522874Y-56624558D01*
X245522874Y-56434081D01*
X245560969Y-56357891D01*
X245599065Y-56319796D01*
X245675255Y-56281700D01*
X245865731Y-56281700D01*
X245941922Y-56319796D01*
X245980017Y-56357891D01*
X246018112Y-56434081D01*
X246018112Y-56624558D01*
X245980017Y-56700748D01*
X245941922Y-56738843D01*
X246018112Y-55900748D02*
X246018112Y-55748367D01*
X245980017Y-55672177D01*
X245941922Y-55634081D01*
X245827636Y-55557891D01*
X245675255Y-55519796D01*
X245370493Y-55519796D01*
X245294303Y-55557891D01*
X245256208Y-55595986D01*
X245218112Y-55672177D01*
X245218112Y-55824558D01*
X245256208Y-55900748D01*
X245294303Y-55938843D01*
X245370493Y-55976939D01*
X245560969Y-55976939D01*
X245637160Y-55938843D01*
X245675255Y-55900748D01*
X245713350Y-55824558D01*
X245713350Y-55672177D01*
X245675255Y-55595986D01*
X245637160Y-55557891D01*
X245560969Y-55519796D01*
X62508190Y-54193690D02*
X61708190Y-54193690D01*
X61708190Y-54003214D01*
X61746286Y-53888928D01*
X61822476Y-53812738D01*
X61898666Y-53774642D01*
X62051047Y-53736547D01*
X62165333Y-53736547D01*
X62317714Y-53774642D01*
X62393905Y-53812738D01*
X62470095Y-53888928D01*
X62508190Y-54003214D01*
X62508190Y-54193690D01*
X61708190Y-53050833D02*
X61708190Y-53203214D01*
X61746286Y-53279404D01*
X61784381Y-53317500D01*
X61898666Y-53393690D01*
X62051047Y-53431785D01*
X62355809Y-53431785D01*
X62432000Y-53393690D01*
X62470095Y-53355595D01*
X62508190Y-53279404D01*
X62508190Y-53127023D01*
X62470095Y-53050833D01*
X62432000Y-53012738D01*
X62355809Y-52974642D01*
X62165333Y-52974642D01*
X62089143Y-53012738D01*
X62051047Y-53050833D01*
X62012952Y-53127023D01*
X62012952Y-53279404D01*
X62051047Y-53355595D01*
X62089143Y-53393690D01*
X62165333Y-53431785D01*
X61708190Y-52479404D02*
X61708190Y-52403214D01*
X61746286Y-52327023D01*
X61784381Y-52288928D01*
X61860571Y-52250833D01*
X62012952Y-52212738D01*
X62203428Y-52212738D01*
X62355809Y-52250833D01*
X62432000Y-52288928D01*
X62470095Y-52327023D01*
X62508190Y-52403214D01*
X62508190Y-52479404D01*
X62470095Y-52555595D01*
X62432000Y-52593690D01*
X62355809Y-52631785D01*
X62203428Y-52669881D01*
X62012952Y-52669881D01*
X61860571Y-52631785D01*
X61784381Y-52593690D01*
X61746286Y-52555595D01*
X61708190Y-52479404D01*
X242867338Y-55847219D02*
X242067338Y-55847219D01*
X242067338Y-55656743D01*
X242105434Y-55542457D01*
X242181624Y-55466267D01*
X242257814Y-55428171D01*
X242410195Y-55390076D01*
X242524481Y-55390076D01*
X242676862Y-55428171D01*
X242753053Y-55466267D01*
X242829243Y-55542457D01*
X242867338Y-55656743D01*
X242867338Y-55847219D01*
X242067338Y-54704362D02*
X242067338Y-54856743D01*
X242105434Y-54932933D01*
X242143529Y-54971029D01*
X242257814Y-55047219D01*
X242410195Y-55085314D01*
X242714957Y-55085314D01*
X242791148Y-55047219D01*
X242829243Y-55009124D01*
X242867338Y-54932933D01*
X242867338Y-54780552D01*
X242829243Y-54704362D01*
X242791148Y-54666267D01*
X242714957Y-54628171D01*
X242524481Y-54628171D01*
X242448291Y-54666267D01*
X242410195Y-54704362D01*
X242372100Y-54780552D01*
X242372100Y-54932933D01*
X242410195Y-55009124D01*
X242448291Y-55047219D01*
X242524481Y-55085314D01*
X242867338Y-53866267D02*
X242867338Y-54323410D01*
X242867338Y-54094838D02*
X242067338Y-54094838D01*
X242181624Y-54171029D01*
X242257814Y-54247219D01*
X242295910Y-54323410D01*
X239716565Y-54193690D02*
X238916565Y-54193690D01*
X238916565Y-54003214D01*
X238954661Y-53888928D01*
X239030851Y-53812738D01*
X239107041Y-53774642D01*
X239259422Y-53736547D01*
X239373708Y-53736547D01*
X239526089Y-53774642D01*
X239602280Y-53812738D01*
X239678470Y-53888928D01*
X239716565Y-54003214D01*
X239716565Y-54193690D01*
X238916565Y-53050833D02*
X238916565Y-53203214D01*
X238954661Y-53279404D01*
X238992756Y-53317500D01*
X239107041Y-53393690D01*
X239259422Y-53431785D01*
X239564184Y-53431785D01*
X239640375Y-53393690D01*
X239678470Y-53355595D01*
X239716565Y-53279404D01*
X239716565Y-53127023D01*
X239678470Y-53050833D01*
X239640375Y-53012738D01*
X239564184Y-52974642D01*
X239373708Y-52974642D01*
X239297518Y-53012738D01*
X239259422Y-53050833D01*
X239221327Y-53127023D01*
X239221327Y-53279404D01*
X239259422Y-53355595D01*
X239297518Y-53393690D01*
X239373708Y-53431785D01*
X238992756Y-52669881D02*
X238954661Y-52631785D01*
X238916565Y-52555595D01*
X238916565Y-52365119D01*
X238954661Y-52288928D01*
X238992756Y-52250833D01*
X239068946Y-52212738D01*
X239145137Y-52212738D01*
X239259422Y-52250833D01*
X239716565Y-52707976D01*
X239716565Y-52212738D01*
X236565792Y-59154277D02*
X235765792Y-59154277D01*
X235765792Y-58963801D01*
X235803888Y-58849515D01*
X235880078Y-58773325D01*
X235956268Y-58735229D01*
X236108649Y-58697134D01*
X236222935Y-58697134D01*
X236375316Y-58735229D01*
X236451507Y-58773325D01*
X236527697Y-58849515D01*
X236565792Y-58963801D01*
X236565792Y-59154277D01*
X235765792Y-58011420D02*
X235765792Y-58163801D01*
X235803888Y-58239991D01*
X235841983Y-58278087D01*
X235956268Y-58354277D01*
X236108649Y-58392372D01*
X236413411Y-58392372D01*
X236489602Y-58354277D01*
X236527697Y-58316182D01*
X236565792Y-58239991D01*
X236565792Y-58087610D01*
X236527697Y-58011420D01*
X236489602Y-57973325D01*
X236413411Y-57935229D01*
X236222935Y-57935229D01*
X236146745Y-57973325D01*
X236108649Y-58011420D01*
X236070554Y-58087610D01*
X236070554Y-58239991D01*
X236108649Y-58316182D01*
X236146745Y-58354277D01*
X236222935Y-58392372D01*
X235765792Y-57668563D02*
X235765792Y-57173325D01*
X236070554Y-57439991D01*
X236070554Y-57325706D01*
X236108649Y-57249515D01*
X236146745Y-57211420D01*
X236222935Y-57173325D01*
X236413411Y-57173325D01*
X236489602Y-57211420D01*
X236527697Y-57249515D01*
X236565792Y-57325706D01*
X236565792Y-57554277D01*
X236527697Y-57630468D01*
X236489602Y-57668563D01*
X211420463Y-59154277D02*
X210620463Y-59154277D01*
X210620463Y-58963801D01*
X210658559Y-58849515D01*
X210734749Y-58773325D01*
X210810939Y-58735229D01*
X210963320Y-58697134D01*
X211077606Y-58697134D01*
X211229987Y-58735229D01*
X211306178Y-58773325D01*
X211382368Y-58849515D01*
X211420463Y-58963801D01*
X211420463Y-59154277D01*
X211420463Y-57935229D02*
X211420463Y-58392372D01*
X211420463Y-58163801D02*
X210620463Y-58163801D01*
X210734749Y-58239991D01*
X210810939Y-58316182D01*
X210849035Y-58392372D01*
X210620463Y-57668563D02*
X210620463Y-57173325D01*
X210925225Y-57439991D01*
X210925225Y-57325706D01*
X210963320Y-57249515D01*
X211001416Y-57211420D01*
X211077606Y-57173325D01*
X211268082Y-57173325D01*
X211344273Y-57211420D01*
X211382368Y-57249515D01*
X211420463Y-57325706D01*
X211420463Y-57554277D01*
X211382368Y-57630468D01*
X211344273Y-57668563D01*
X230326295Y-55847219D02*
X229526295Y-55847219D01*
X229526295Y-55656743D01*
X229564391Y-55542457D01*
X229640581Y-55466267D01*
X229716771Y-55428171D01*
X229869152Y-55390076D01*
X229983438Y-55390076D01*
X230135819Y-55428171D01*
X230212010Y-55466267D01*
X230288200Y-55542457D01*
X230326295Y-55656743D01*
X230326295Y-55847219D01*
X229526295Y-54704362D02*
X229526295Y-54856743D01*
X229564391Y-54932933D01*
X229602486Y-54971029D01*
X229716771Y-55047219D01*
X229869152Y-55085314D01*
X230173914Y-55085314D01*
X230250105Y-55047219D01*
X230288200Y-55009124D01*
X230326295Y-54932933D01*
X230326295Y-54780552D01*
X230288200Y-54704362D01*
X230250105Y-54666267D01*
X230173914Y-54628171D01*
X229983438Y-54628171D01*
X229907248Y-54666267D01*
X229869152Y-54704362D01*
X229831057Y-54780552D01*
X229831057Y-54932933D01*
X229869152Y-55009124D01*
X229907248Y-55047219D01*
X229983438Y-55085314D01*
X229526295Y-53904362D02*
X229526295Y-54285314D01*
X229907248Y-54323410D01*
X229869152Y-54285314D01*
X229831057Y-54209124D01*
X229831057Y-54018648D01*
X229869152Y-53942457D01*
X229907248Y-53904362D01*
X229983438Y-53866267D01*
X230173914Y-53866267D01*
X230250105Y-53904362D01*
X230288200Y-53942457D01*
X230326295Y-54018648D01*
X230326295Y-54209124D01*
X230288200Y-54285314D01*
X230250105Y-54323410D01*
X227175522Y-54193690D02*
X226375522Y-54193690D01*
X226375522Y-54003214D01*
X226413618Y-53888928D01*
X226489808Y-53812738D01*
X226565998Y-53774642D01*
X226718379Y-53736547D01*
X226832665Y-53736547D01*
X226985046Y-53774642D01*
X227061237Y-53812738D01*
X227137427Y-53888928D01*
X227175522Y-54003214D01*
X227175522Y-54193690D01*
X226375522Y-53050833D02*
X226375522Y-53203214D01*
X226413618Y-53279404D01*
X226451713Y-53317500D01*
X226565998Y-53393690D01*
X226718379Y-53431785D01*
X227023141Y-53431785D01*
X227099332Y-53393690D01*
X227137427Y-53355595D01*
X227175522Y-53279404D01*
X227175522Y-53127023D01*
X227137427Y-53050833D01*
X227099332Y-53012738D01*
X227023141Y-52974642D01*
X226832665Y-52974642D01*
X226756475Y-53012738D01*
X226718379Y-53050833D01*
X226680284Y-53127023D01*
X226680284Y-53279404D01*
X226718379Y-53355595D01*
X226756475Y-53393690D01*
X226832665Y-53431785D01*
X226375522Y-52288928D02*
X226375522Y-52441309D01*
X226413618Y-52517500D01*
X226451713Y-52555595D01*
X226565998Y-52631785D01*
X226718379Y-52669881D01*
X227023141Y-52669881D01*
X227099332Y-52631785D01*
X227137427Y-52593690D01*
X227175522Y-52517500D01*
X227175522Y-52365119D01*
X227137427Y-52288928D01*
X227099332Y-52250833D01*
X227023141Y-52212738D01*
X226832665Y-52212738D01*
X226756475Y-52250833D01*
X226718379Y-52288928D01*
X226680284Y-52365119D01*
X226680284Y-52517500D01*
X226718379Y-52593690D01*
X226756475Y-52631785D01*
X226832665Y-52669881D01*
X249168886Y-59154277D02*
X248368886Y-59154277D01*
X248368886Y-58963801D01*
X248406982Y-58849515D01*
X248483172Y-58773325D01*
X248559362Y-58735229D01*
X248711743Y-58697134D01*
X248826029Y-58697134D01*
X248978410Y-58735229D01*
X249054601Y-58773325D01*
X249130791Y-58849515D01*
X249168886Y-58963801D01*
X249168886Y-59154277D01*
X248368886Y-58011420D02*
X248368886Y-58163801D01*
X248406982Y-58239991D01*
X248445077Y-58278087D01*
X248559362Y-58354277D01*
X248711743Y-58392372D01*
X249016505Y-58392372D01*
X249092696Y-58354277D01*
X249130791Y-58316182D01*
X249168886Y-58239991D01*
X249168886Y-58087610D01*
X249130791Y-58011420D01*
X249092696Y-57973325D01*
X249016505Y-57935229D01*
X248826029Y-57935229D01*
X248749839Y-57973325D01*
X248711743Y-58011420D01*
X248673648Y-58087610D01*
X248673648Y-58239991D01*
X248711743Y-58316182D01*
X248749839Y-58354277D01*
X248826029Y-58392372D01*
X248368886Y-57668563D02*
X248368886Y-57135229D01*
X249168886Y-57478087D01*
X233415019Y-57500748D02*
X232615019Y-57500748D01*
X232615019Y-57310272D01*
X232653115Y-57195986D01*
X232729305Y-57119796D01*
X232805495Y-57081700D01*
X232957876Y-57043605D01*
X233072162Y-57043605D01*
X233224543Y-57081700D01*
X233300734Y-57119796D01*
X233376924Y-57195986D01*
X233415019Y-57310272D01*
X233415019Y-57500748D01*
X232615019Y-56357891D02*
X232615019Y-56510272D01*
X232653115Y-56586462D01*
X232691210Y-56624558D01*
X232805495Y-56700748D01*
X232957876Y-56738843D01*
X233262638Y-56738843D01*
X233338829Y-56700748D01*
X233376924Y-56662653D01*
X233415019Y-56586462D01*
X233415019Y-56434081D01*
X233376924Y-56357891D01*
X233338829Y-56319796D01*
X233262638Y-56281700D01*
X233072162Y-56281700D01*
X232995972Y-56319796D01*
X232957876Y-56357891D01*
X232919781Y-56434081D01*
X232919781Y-56586462D01*
X232957876Y-56662653D01*
X232995972Y-56700748D01*
X233072162Y-56738843D01*
X232881686Y-55595986D02*
X233415019Y-55595986D01*
X232576924Y-55786462D02*
X233148353Y-55976939D01*
X233148353Y-55481700D01*
%LPC*%
D13*
X151596700Y-142866000D02*
G75*
G02X151596700Y-149215600I0J-3174800D01*
G01*
X127785700Y-149215600D02*
G75*
G02X127785700Y-142866000I0J3174800D01*
G01*
D10*
X139358161Y-147413914D02*
X139358161Y-148080580D01*
X139358161Y-147509152D02*
X139405780Y-147461533D01*
X139501019Y-147413914D01*
X139643876Y-147413914D01*
X139739114Y-147461533D01*
X139786733Y-147556771D01*
X139786733Y-148080580D01*
X140215304Y-148032961D02*
X140310542Y-148080580D01*
X140501019Y-148080580D01*
X140596257Y-148032961D01*
X140643876Y-147937723D01*
X140643876Y-147890104D01*
X140596257Y-147794866D01*
X140501019Y-147747247D01*
X140358161Y-147747247D01*
X140262923Y-147699628D01*
X140215304Y-147604390D01*
X140215304Y-147556771D01*
X140262923Y-147461533D01*
X140358161Y-147413914D01*
X140501019Y-147413914D01*
X140596257Y-147461533D01*
X141072447Y-148080580D02*
X141072447Y-147413914D01*
X141072447Y-147509152D02*
X141120066Y-147461533D01*
X141215304Y-147413914D01*
X141358161Y-147413914D01*
X141453400Y-147461533D01*
X141501019Y-147556771D01*
X141501019Y-148080580D01*
X141501019Y-147556771D02*
X141548638Y-147461533D01*
X141643876Y-147413914D01*
X141786733Y-147413914D01*
X141881971Y-147461533D01*
X141929590Y-147556771D01*
X141929590Y-148080580D01*
X142405780Y-148080580D02*
X142405780Y-147080580D01*
X142501019Y-147699628D02*
X142786733Y-148080580D01*
X142786733Y-147413914D02*
X142405780Y-147794866D01*
X143977209Y-148080580D02*
X143977209Y-147413914D01*
X143977209Y-147604390D02*
X144024828Y-147509152D01*
X144072447Y-147461533D01*
X144167685Y-147413914D01*
X144262923Y-147413914D01*
X144977209Y-148032961D02*
X144881971Y-148080580D01*
X144691495Y-148080580D01*
X144596257Y-148032961D01*
X144548638Y-147937723D01*
X144548638Y-147556771D01*
X144596257Y-147461533D01*
X144691495Y-147413914D01*
X144881971Y-147413914D01*
X144977209Y-147461533D01*
X145024828Y-147556771D01*
X145024828Y-147652009D01*
X144548638Y-147747247D01*
X145358161Y-147413914D02*
X145596257Y-148080580D01*
X145834352Y-147413914D01*
X146739114Y-148080580D02*
X146167685Y-148080580D01*
X146453400Y-148080580D02*
X146453400Y-147080580D01*
X146358161Y-147223438D01*
X146262923Y-147318676D01*
X146167685Y-147366295D01*
X147167685Y-147985342D02*
X147215304Y-148032961D01*
X147167685Y-148080580D01*
X147120066Y-148032961D01*
X147167685Y-147985342D01*
X147167685Y-148080580D01*
X148167685Y-148080580D02*
X147596257Y-148080580D01*
X147881971Y-148080580D02*
X147881971Y-147080580D01*
X147786733Y-147223438D01*
X147691495Y-147318676D01*
X147596257Y-147366295D01*
X148596257Y-147985342D02*
X148643876Y-148032961D01*
X148596257Y-148080580D01*
X148548638Y-148032961D01*
X148596257Y-147985342D01*
X148596257Y-148080580D01*
X149262923Y-147080580D02*
X149358161Y-147080580D01*
X149453400Y-147128200D01*
X149501019Y-147175819D01*
X149548638Y-147271057D01*
X149596257Y-147461533D01*
X149596257Y-147699628D01*
X149548638Y-147890104D01*
X149501019Y-147985342D01*
X149453400Y-148032961D01*
X149358161Y-148080580D01*
X149262923Y-148080580D01*
X149167685Y-148032961D01*
X149120066Y-147985342D01*
X149072447Y-147890104D01*
X149024828Y-147699628D01*
X149024828Y-147461533D01*
X149072447Y-147271057D01*
X149120066Y-147175819D01*
X149167685Y-147128200D01*
X149262923Y-147080580D01*
D13*
X151596700Y-142866000D02*
X127785700Y-142866000D01*
X127785700Y-149215600D02*
X151596700Y-149215600D01*
D15*
X129876914Y-145925671D02*
X129876914Y-144425671D01*
X130305485Y-144425671D01*
X130562628Y-144497100D01*
X130734057Y-144639957D01*
X130819771Y-144782814D01*
X130905485Y-145068528D01*
X130905485Y-145282814D01*
X130819771Y-145568528D01*
X130734057Y-145711385D01*
X130562628Y-145854242D01*
X130305485Y-145925671D01*
X129876914Y-145925671D01*
X131676914Y-145925671D02*
X131676914Y-144425671D01*
X132448342Y-145854242D02*
X132705485Y-145925671D01*
X133134057Y-145925671D01*
X133305485Y-145854242D01*
X133391200Y-145782814D01*
X133476914Y-145639957D01*
X133476914Y-145497100D01*
X133391200Y-145354242D01*
X133305485Y-145282814D01*
X133134057Y-145211385D01*
X132791200Y-145139957D01*
X132619771Y-145068528D01*
X132534057Y-144997100D01*
X132448342Y-144854242D01*
X132448342Y-144711385D01*
X132534057Y-144568528D01*
X132619771Y-144497100D01*
X132791200Y-144425671D01*
X133219771Y-144425671D01*
X133476914Y-144497100D01*
X135276914Y-145782814D02*
X135191200Y-145854242D01*
X134934057Y-145925671D01*
X134762628Y-145925671D01*
X134505485Y-145854242D01*
X134334057Y-145711385D01*
X134248342Y-145568528D01*
X134162628Y-145282814D01*
X134162628Y-145068528D01*
X134248342Y-144782814D01*
X134334057Y-144639957D01*
X134505485Y-144497100D01*
X134762628Y-144425671D01*
X134934057Y-144425671D01*
X135191200Y-144497100D01*
X135276914Y-144568528D01*
X136048342Y-145925671D02*
X136048342Y-144425671D01*
X136905485Y-145925671D02*
X136905485Y-144425671D01*
X137591200Y-144425671D01*
X137762628Y-144497100D01*
X137848342Y-144568528D01*
X137934057Y-144711385D01*
X137934057Y-144925671D01*
X137848342Y-145068528D01*
X137762628Y-145139957D01*
X137591200Y-145211385D01*
X136905485Y-145211385D01*
X139562628Y-145925671D02*
X138705485Y-145925671D01*
X138705485Y-144425671D01*
X140162628Y-145925671D02*
X140162628Y-144425671D01*
X141019771Y-145925671D02*
X141019771Y-144425671D01*
X142048342Y-145925671D01*
X142048342Y-144425671D01*
X142905485Y-145139957D02*
X143505485Y-145139957D01*
X143762628Y-145925671D02*
X142905485Y-145925671D01*
X142905485Y-144425671D01*
X143762628Y-144425671D01*
X144534057Y-145354242D02*
X145905485Y-145354242D01*
X146762628Y-145925671D02*
X146762628Y-144425671D01*
X146762628Y-145139957D02*
X147791200Y-145139957D01*
X147791200Y-145925671D02*
X147791200Y-144425671D01*
X148562628Y-145854242D02*
X148819771Y-145925671D01*
X149248342Y-145925671D01*
X149419771Y-145854242D01*
X149505485Y-145782814D01*
X149591200Y-145639957D01*
X149591200Y-145497100D01*
X149505485Y-145354242D01*
X149419771Y-145282814D01*
X149248342Y-145211385D01*
X148905485Y-145139957D01*
X148734057Y-145068528D01*
X148648342Y-144997100D01*
X148562628Y-144854242D01*
X148562628Y-144711385D01*
X148648342Y-144568528D01*
X148734057Y-144497100D01*
X148905485Y-144425671D01*
X149334057Y-144425671D01*
X149591200Y-144497100D01*
D16*
X209122458Y-37749670D02*
X48751154Y-37749670D01*
X209122458Y-40232940D02*
X48751154Y-40232940D01*
X209122458Y-42716210D02*
X48751154Y-42716210D01*
D17*
G36*
X44539875Y-47986260D02*
G01*
X45109258Y-47988437D01*
X45678641Y-47990613D01*
X45678641Y-48397013D01*
X44539875Y-48401365D01*
X44539875Y-49061646D01*
X45259542Y-49061646D01*
X45259542Y-49493446D01*
X44539875Y-49493446D01*
X44539875Y-50170660D01*
X45109258Y-50172837D01*
X45678641Y-50175013D01*
X45680904Y-50388796D01*
X45683166Y-50602579D01*
X44539875Y-50602579D01*
X44539875Y-51220646D01*
X44099608Y-51220646D01*
X44099608Y-50602579D01*
X42965075Y-50602579D01*
X42965075Y-50170780D01*
X44099608Y-50170780D01*
X44099608Y-49493446D01*
X43388408Y-49493446D01*
X43388408Y-49061646D01*
X44099608Y-49061646D01*
X44099608Y-48401246D01*
X42965075Y-48401246D01*
X42965075Y-47986380D01*
X44099389Y-47986380D01*
X44103841Y-47397946D01*
X44321858Y-47395687D01*
X44539875Y-47393427D01*
X44539875Y-47986260D01*
G37*
X44539875Y-47986260D02*
X45109258Y-47988437D01*
X45678641Y-47990613D01*
X45678641Y-48397013D01*
X44539875Y-48401365D01*
X44539875Y-49061646D01*
X45259542Y-49061646D01*
X45259542Y-49493446D01*
X44539875Y-49493446D01*
X44539875Y-50170660D01*
X45109258Y-50172837D01*
X45678641Y-50175013D01*
X45680904Y-50388796D01*
X45683166Y-50602579D01*
X44539875Y-50602579D01*
X44539875Y-51220646D01*
X44099608Y-51220646D01*
X44099608Y-50602579D01*
X42965075Y-50602579D01*
X42965075Y-50170780D01*
X44099608Y-50170780D01*
X44099608Y-49493446D01*
X43388408Y-49493446D01*
X43388408Y-49061646D01*
X44099608Y-49061646D01*
X44099608Y-48401246D01*
X42965075Y-48401246D01*
X42965075Y-47986380D01*
X44099389Y-47986380D01*
X44103841Y-47397946D01*
X44321858Y-47395687D01*
X44539875Y-47393427D01*
X44539875Y-47986260D01*
G36*
X340155506Y-47986260D02*
G01*
X340724889Y-47988437D01*
X341294272Y-47990613D01*
X341294272Y-48397013D01*
X340155506Y-48401365D01*
X340155506Y-49061646D01*
X340875173Y-49061646D01*
X340875173Y-49493446D01*
X340155506Y-49493446D01*
X340155506Y-50170660D01*
X340724889Y-50172837D01*
X341294272Y-50175013D01*
X341296535Y-50388796D01*
X341298797Y-50602579D01*
X340155506Y-50602579D01*
X340155506Y-51220646D01*
X339715239Y-51220646D01*
X339715239Y-50602579D01*
X338580706Y-50602579D01*
X338580706Y-50170780D01*
X339715239Y-50170780D01*
X339715239Y-49493446D01*
X339004039Y-49493446D01*
X339004039Y-49061646D01*
X339715239Y-49061646D01*
X339715239Y-48401246D01*
X338580706Y-48401246D01*
X338580706Y-47986380D01*
X339715020Y-47986380D01*
X339719472Y-47397946D01*
X339937489Y-47395687D01*
X340155506Y-47393427D01*
X340155506Y-47986260D01*
G37*
X340155506Y-47986260D02*
X340724889Y-47988437D01*
X341294272Y-47990613D01*
X341294272Y-48397013D01*
X340155506Y-48401365D01*
X340155506Y-49061646D01*
X340875173Y-49061646D01*
X340875173Y-49493446D01*
X340155506Y-49493446D01*
X340155506Y-50170660D01*
X340724889Y-50172837D01*
X341294272Y-50175013D01*
X341296535Y-50388796D01*
X341298797Y-50602579D01*
X340155506Y-50602579D01*
X340155506Y-51220646D01*
X339715239Y-51220646D01*
X339715239Y-50602579D01*
X338580706Y-50602579D01*
X338580706Y-50170780D01*
X339715239Y-50170780D01*
X339715239Y-49493446D01*
X339004039Y-49493446D01*
X339004039Y-49061646D01*
X339715239Y-49061646D01*
X339715239Y-48401246D01*
X338580706Y-48401246D01*
X338580706Y-47986380D01*
X339715020Y-47986380D01*
X339719472Y-47397946D01*
X339937489Y-47395687D01*
X340155506Y-47393427D01*
X340155506Y-47986260D01*
D18*
X327774262Y-57752690D03*
X327774262Y-60252690D03*
X313548388Y-57752690D03*
X313548388Y-60252690D03*
D19*
X270345826Y-48651516D03*
D20*
X270345826Y-47151516D03*
D18*
X315993680Y-37172828D03*
X310993680Y-37172828D03*
X311339212Y-56963066D03*
X306339212Y-56963066D03*
D21*
X91910300Y-154295600D03*
D22*
X94450300Y-149215600D03*
D21*
X98260300Y-151755600D03*
D23*
X99530300Y-149215600D03*
X89370300Y-149215600D03*
D21*
X70480400Y-154295600D03*
D22*
X73020400Y-149215600D03*
D21*
X76830400Y-151755600D03*
D23*
X78100400Y-149215600D03*
X67940400Y-149215600D03*
D21*
X272873900Y-154295600D03*
D22*
X275413900Y-149215600D03*
D21*
X279223900Y-151755600D03*
D23*
X280493900Y-149215600D03*
X270333900Y-149215600D03*
D21*
X249062900Y-154295600D03*
D22*
X251602900Y-149215600D03*
D21*
X255412900Y-151755600D03*
D23*
X256682900Y-149215600D03*
X246522900Y-149215600D03*
D21*
X170486600Y-154295600D03*
D22*
X173026600Y-149215600D03*
D21*
X176836600Y-151755600D03*
D23*
X178106600Y-149215600D03*
X167946600Y-149215600D03*
D24*
X115876600Y-156200600D03*
X230176600Y-156200600D03*
D22*
X115876600Y-140960600D03*
X230176600Y-140960600D03*
D21*
X275572800Y-144135600D03*
D22*
X273032800Y-149215600D03*
D21*
X269222800Y-146675600D03*
D23*
X267952800Y-149215600D03*
X278112800Y-149215600D03*
D21*
X246999600Y-144135600D03*
D22*
X244459600Y-149215600D03*
D21*
X240649600Y-146675600D03*
D23*
X239379600Y-149215600D03*
X249539600Y-149215600D03*
D21*
X173185500Y-144135600D03*
D22*
X170645500Y-149215600D03*
D21*
X166835500Y-146675600D03*
D23*
X165565500Y-149215600D03*
X175725500Y-149215600D03*
D24*
X220645400Y-156200600D03*
X120645600Y-156200600D03*
D22*
X220645400Y-140960600D03*
X120645600Y-140960600D03*
D21*
X77941500Y-144135600D03*
D22*
X75401500Y-149215600D03*
D21*
X71591500Y-146675600D03*
D23*
X70321500Y-149215600D03*
X80481500Y-149215600D03*
D21*
X54130500Y-106038000D03*
D22*
X51590500Y-111118000D03*
D21*
X47780500Y-108578000D03*
D23*
X46510500Y-111118000D03*
X56670500Y-111118000D03*
D25*
X341005597Y-57301167D03*
X339838871Y-56817893D03*
X338672145Y-57301167D03*
X338188871Y-58467893D03*
X338672145Y-59634619D03*
X339838871Y-60117893D03*
X341005597Y-59634619D03*
X341488871Y-58467893D03*
D26*
X339838871Y-58467893D03*
D25*
X341005597Y-38979454D03*
X339838871Y-38496180D03*
X338672145Y-38979454D03*
X338188871Y-40146180D03*
X338672145Y-41312906D03*
X339838871Y-41796180D03*
X341005597Y-41312906D03*
X341488871Y-40146180D03*
D26*
X339838871Y-40146180D03*
D25*
X45490846Y-38979454D03*
X44324120Y-38496180D03*
X43157394Y-38979454D03*
X42674120Y-40146180D03*
X43157394Y-41312906D03*
X44324120Y-41796180D03*
X45490846Y-41312906D03*
X45974120Y-40146180D03*
D26*
X44324120Y-40146180D03*
D25*
X45490846Y-57301167D03*
X44324120Y-56817893D03*
X43157394Y-57301167D03*
X42674120Y-58467893D03*
X43157394Y-59634619D03*
X44324120Y-60117893D03*
X45490846Y-59634619D03*
X45974120Y-58467893D03*
D26*
X44324120Y-58467893D03*
D25*
X193250846Y-144041167D03*
X192084120Y-143557893D03*
X190917394Y-144041167D03*
X190434120Y-145207893D03*
X190917394Y-146374619D03*
X192084120Y-146857893D03*
X193250846Y-146374619D03*
X193734120Y-145207893D03*
D26*
X192084120Y-145207893D03*
D25*
X302890846Y-138231167D03*
X301724120Y-137747893D03*
X300557394Y-138231167D03*
X300074120Y-139397893D03*
X300557394Y-140564619D03*
X301724120Y-141047893D03*
X302890846Y-140564619D03*
X303374120Y-139397893D03*
D26*
X301724120Y-139397893D03*
D25*
X83600846Y-138231167D03*
X82434120Y-137747893D03*
X81267394Y-138231167D03*
X80784120Y-139397893D03*
X81267394Y-140564619D03*
X82434120Y-141047893D03*
X83600846Y-140564619D03*
X84084120Y-139397893D03*
D26*
X82434120Y-139397893D03*
D25*
X193252126Y-81381167D03*
X192085400Y-80897893D03*
X190918674Y-81381167D03*
X190435400Y-82547893D03*
X190918674Y-83714619D03*
X192085400Y-84197893D03*
X193252126Y-83714619D03*
X193735400Y-82547893D03*
D26*
X192085400Y-82547893D03*
D25*
X100790846Y-81381167D03*
X99624120Y-80897893D03*
X98457394Y-81381167D03*
X97974120Y-82547893D03*
X98457394Y-83714619D03*
X99624120Y-84197893D03*
X100790846Y-83714619D03*
X101274120Y-82547893D03*
D26*
X99624120Y-82547893D03*
D25*
X285705597Y-81381167D03*
X284538871Y-80897893D03*
X283372145Y-81381167D03*
X282888871Y-82547893D03*
X283372145Y-83714619D03*
X284538871Y-84197893D03*
X285705597Y-83714619D03*
X286188871Y-82547893D03*
D26*
X284538871Y-82547893D03*
D21*
X185091000Y-67940400D03*
D22*
X182551000Y-73020400D03*
D21*
X178741000Y-70480400D03*
D23*
X177471000Y-73020400D03*
X187631000Y-73020400D03*
D21*
X204139800Y-67940400D03*
D22*
X201599800Y-73020400D03*
D21*
X197789800Y-70480400D03*
D23*
X196519800Y-73020400D03*
X206679800Y-73020400D03*
D21*
X313352600Y-78100400D03*
D22*
X315892600Y-73020400D03*
D21*
X319702600Y-75560400D03*
D23*
X320972600Y-73020400D03*
X310812600Y-73020400D03*
D21*
X308908200Y-67940400D03*
D22*
X306368200Y-73020400D03*
D21*
X302558200Y-70480400D03*
D23*
X301288200Y-73020400D03*
X311448200Y-73020400D03*
D24*
X318306200Y-66035400D03*
X294430200Y-66035400D03*
D22*
X318306200Y-81275400D03*
X294430200Y-81275400D03*
D21*
X89847000Y-67940400D03*
D22*
X87307000Y-73020400D03*
D21*
X83497000Y-70480400D03*
D23*
X82227000Y-73020400D03*
X92387000Y-73020400D03*
D21*
X318432600Y-125086800D03*
D22*
X315892600Y-130166800D03*
D21*
X312082600Y-127626800D03*
D23*
X310812600Y-130166800D03*
X320972600Y-130166800D03*
D21*
X292240500Y-125086800D03*
D22*
X289700500Y-130166800D03*
D21*
X285890500Y-127626800D03*
D23*
X284620500Y-130166800D03*
X294780500Y-130166800D03*
D21*
X218426400Y-106038000D03*
D22*
X215886400Y-111118000D03*
D21*
X212076400Y-108578000D03*
D23*
X210806400Y-111118000D03*
X220966400Y-111118000D03*
D21*
X94609200Y-125086800D03*
D22*
X92069200Y-130166800D03*
D21*
X88259200Y-127626800D03*
D23*
X86989200Y-130166800D03*
X97149200Y-130166800D03*
D21*
X51749400Y-67940400D03*
D22*
X49209400Y-73020400D03*
D21*
X45399400Y-70480400D03*
D23*
X44129400Y-73020400D03*
X54289400Y-73020400D03*
D21*
X294303800Y-78100400D03*
D22*
X296843800Y-73020400D03*
D21*
X300653800Y-75560400D03*
D23*
X301923800Y-73020400D03*
X291763800Y-73020400D03*
D21*
X337481400Y-144135600D03*
D22*
X334941400Y-149215600D03*
D21*
X331131400Y-146675600D03*
D23*
X329861400Y-149215600D03*
X340021400Y-149215600D03*
D21*
X318432600Y-144135600D03*
D22*
X315892600Y-149215600D03*
D21*
X312082600Y-146675600D03*
D23*
X310812600Y-149215600D03*
X320972600Y-149215600D03*
D21*
X299383800Y-144135600D03*
D22*
X296843800Y-149215600D03*
D21*
X293033800Y-146675600D03*
D23*
X291763800Y-149215600D03*
X301923800Y-149215600D03*
D21*
X101752500Y-144135600D03*
D22*
X99212500Y-149215600D03*
D21*
X95402500Y-146675600D03*
D23*
X94132500Y-149215600D03*
X104292500Y-149215600D03*
D21*
X54130500Y-144135600D03*
D22*
X51590500Y-149215600D03*
D21*
X47780500Y-146675600D03*
D23*
X46510500Y-149215600D03*
X56670500Y-149215600D03*
D21*
X337481400Y-125086800D03*
D22*
X334941400Y-130166800D03*
D21*
X331131400Y-127626800D03*
D23*
X329861400Y-130166800D03*
X340021400Y-130166800D03*
D21*
X266048400Y-125086800D03*
D22*
X263508400Y-130166800D03*
D21*
X259698400Y-127626800D03*
D23*
X258428400Y-130166800D03*
X268588400Y-130166800D03*
D21*
X246999600Y-125086800D03*
D22*
X244459600Y-130166800D03*
D21*
X240649600Y-127626800D03*
D23*
X239379600Y-130166800D03*
X249539600Y-130166800D03*
D21*
X227950800Y-125086800D03*
D22*
X225410800Y-130166800D03*
D21*
X221600800Y-127626800D03*
D23*
X220330800Y-130166800D03*
X230490800Y-130166800D03*
D21*
X208902000Y-125086800D03*
D22*
X206362000Y-130166800D03*
D21*
X202552000Y-127626800D03*
D23*
X201282000Y-130166800D03*
X211442000Y-130166800D03*
D21*
X189853200Y-125086800D03*
D22*
X187313200Y-130166800D03*
D21*
X183503200Y-127626800D03*
D23*
X182233200Y-130166800D03*
X192393200Y-130166800D03*
D21*
X170804400Y-125086800D03*
D22*
X168264400Y-130166800D03*
D21*
X164454400Y-127626800D03*
D23*
X163184400Y-130166800D03*
X173344400Y-130166800D03*
D21*
X151755600Y-125086800D03*
D22*
X149215600Y-130166800D03*
D21*
X145405600Y-127626800D03*
D23*
X144135600Y-130166800D03*
X154295600Y-130166800D03*
D21*
X132706800Y-125086800D03*
D22*
X130166800Y-130166800D03*
D21*
X126356800Y-127626800D03*
D23*
X125086800Y-130166800D03*
X135246800Y-130166800D03*
D21*
X113658000Y-125086800D03*
D22*
X111118000Y-130166800D03*
D21*
X107308000Y-127626800D03*
D23*
X106038000Y-130166800D03*
X116198000Y-130166800D03*
D21*
X63654900Y-125086800D03*
D22*
X61114900Y-130166800D03*
D21*
X57304900Y-127626800D03*
D23*
X56034900Y-130166800D03*
X66194900Y-130166800D03*
D24*
X73052900Y-123181800D03*
X49176900Y-123181800D03*
D22*
X73052900Y-138421800D03*
X49176900Y-138421800D03*
D21*
X337481400Y-106038000D03*
D22*
X334941400Y-111118000D03*
D21*
X331131400Y-108578000D03*
D23*
X329861400Y-111118000D03*
X340021400Y-111118000D03*
D21*
X306527100Y-106038000D03*
D22*
X303987100Y-111118000D03*
D21*
X300177100Y-108578000D03*
D23*
X298907100Y-111118000D03*
X309067100Y-111118000D03*
D24*
X315925100Y-104133000D03*
X292049100Y-104133000D03*
D22*
X315925100Y-119373000D03*
X292049100Y-119373000D03*
D21*
X275572800Y-106038000D03*
D22*
X273032800Y-111118000D03*
D21*
X269222800Y-108578000D03*
D23*
X267952800Y-111118000D03*
X278112800Y-111118000D03*
D21*
X256524000Y-106038000D03*
D22*
X253984000Y-111118000D03*
D21*
X250174000Y-108578000D03*
D23*
X248904000Y-111118000D03*
X259064000Y-111118000D03*
D21*
X237475200Y-106038000D03*
D22*
X234935200Y-111118000D03*
D21*
X231125200Y-108578000D03*
D23*
X229855200Y-111118000D03*
X240015200Y-111118000D03*
D21*
X199377600Y-106038000D03*
D22*
X196837600Y-111118000D03*
D21*
X193027600Y-108578000D03*
D23*
X191757600Y-111118000D03*
X201917600Y-111118000D03*
D21*
X180328800Y-106038000D03*
D22*
X177788800Y-111118000D03*
D21*
X173978800Y-108578000D03*
D23*
X172708800Y-111118000D03*
X182868800Y-111118000D03*
D21*
X161280000Y-106038000D03*
D22*
X158740000Y-111118000D03*
D21*
X154930000Y-108578000D03*
D23*
X153660000Y-111118000D03*
X163820000Y-111118000D03*
D21*
X142231200Y-106038000D03*
D22*
X139691200Y-111118000D03*
D21*
X135881200Y-108578000D03*
D23*
X134611200Y-111118000D03*
X144771200Y-111118000D03*
D21*
X123182400Y-106038000D03*
D22*
X120642400Y-111118000D03*
D21*
X116832400Y-108578000D03*
D23*
X115562400Y-111118000D03*
X125722400Y-111118000D03*
D21*
X104133600Y-106038000D03*
D22*
X101593600Y-111118000D03*
D21*
X97783600Y-108578000D03*
D23*
X96513600Y-111118000D03*
X106673600Y-111118000D03*
D21*
X85084800Y-106038000D03*
D22*
X82544800Y-111118000D03*
D21*
X78734800Y-108578000D03*
D23*
X77464800Y-111118000D03*
X87624800Y-111118000D03*
D21*
X53812700Y-116198000D03*
D22*
X56352700Y-111118000D03*
D21*
X60162700Y-113658000D03*
D23*
X61432700Y-111118000D03*
X51272700Y-111118000D03*
D21*
X337481400Y-86989200D03*
D22*
X334941400Y-92069200D03*
D21*
X331131400Y-89529200D03*
D23*
X329861400Y-92069200D03*
X340021400Y-92069200D03*
D21*
X313670400Y-86989200D03*
D22*
X311130400Y-92069200D03*
D21*
X307320400Y-89529200D03*
D23*
X306050400Y-92069200D03*
X316210400Y-92069200D03*
D21*
X289859400Y-86989200D03*
D22*
X287319400Y-92069200D03*
D21*
X283509400Y-89529200D03*
D23*
X282239400Y-92069200D03*
X292399400Y-92069200D03*
D21*
X270810600Y-86989200D03*
D22*
X268270600Y-92069200D03*
D21*
X264460600Y-89529200D03*
D23*
X263190600Y-92069200D03*
X273350600Y-92069200D03*
D21*
X251761800Y-86989200D03*
D22*
X249221800Y-92069200D03*
D21*
X245411800Y-89529200D03*
D23*
X244141800Y-92069200D03*
X254301800Y-92069200D03*
D21*
X232713000Y-86989200D03*
D22*
X230173000Y-92069200D03*
D21*
X226363000Y-89529200D03*
D23*
X225093000Y-92069200D03*
X235253000Y-92069200D03*
D21*
X213664200Y-86989200D03*
D22*
X211124200Y-92069200D03*
D21*
X207314200Y-89529200D03*
D23*
X206044200Y-92069200D03*
X216204200Y-92069200D03*
D21*
X194615400Y-86989200D03*
D22*
X192075400Y-92069200D03*
D21*
X188265400Y-89529200D03*
D23*
X186995400Y-92069200D03*
X197155400Y-92069200D03*
D21*
X175566600Y-86989200D03*
D22*
X173026600Y-92069200D03*
D21*
X169216600Y-89529200D03*
D23*
X167946600Y-92069200D03*
X178106600Y-92069200D03*
D21*
X156517800Y-86989200D03*
D22*
X153977800Y-92069200D03*
D21*
X150167800Y-89529200D03*
D23*
X148897800Y-92069200D03*
X159057800Y-92069200D03*
D21*
X137469000Y-86989200D03*
D22*
X134929000Y-92069200D03*
D21*
X131119000Y-89529200D03*
D23*
X129849000Y-92069200D03*
X140009000Y-92069200D03*
D21*
X118420200Y-86989200D03*
D22*
X115880200Y-92069200D03*
D21*
X112070200Y-89529200D03*
D23*
X110800200Y-92069200D03*
X120960200Y-92069200D03*
D21*
X99371400Y-86989200D03*
D22*
X96831400Y-92069200D03*
D21*
X93021400Y-89529200D03*
D23*
X91751400Y-92069200D03*
X101911400Y-92069200D03*
D21*
X80322600Y-86989200D03*
D22*
X77782600Y-92069200D03*
D21*
X73972600Y-89529200D03*
D23*
X72702600Y-92069200D03*
X82862600Y-92069200D03*
D21*
X56511600Y-86989200D03*
D22*
X53971600Y-92069200D03*
D21*
X50161600Y-89529200D03*
D23*
X48891600Y-92069200D03*
X59051600Y-92069200D03*
D21*
X337481400Y-67940400D03*
D22*
X334941400Y-73020400D03*
D21*
X331131400Y-70480400D03*
D23*
X329861400Y-73020400D03*
X340021400Y-73020400D03*
D21*
X280335000Y-67940400D03*
D22*
X277795000Y-73020400D03*
D21*
X273985000Y-70480400D03*
D23*
X272715000Y-73020400D03*
X282875000Y-73020400D03*
D21*
X261286200Y-67940400D03*
D22*
X258746200Y-73020400D03*
D21*
X254936200Y-70480400D03*
D23*
X253666200Y-73020400D03*
X263826200Y-73020400D03*
D21*
X242237400Y-67940400D03*
D22*
X239697400Y-73020400D03*
D21*
X235887400Y-70480400D03*
D23*
X234617400Y-73020400D03*
X244777400Y-73020400D03*
D21*
X223188600Y-67940400D03*
D22*
X220648600Y-73020400D03*
D21*
X216838600Y-70480400D03*
D23*
X215568600Y-73020400D03*
X225728600Y-73020400D03*
D21*
X166042200Y-67940400D03*
D22*
X163502200Y-73020400D03*
D21*
X159692200Y-70480400D03*
D23*
X158422200Y-73020400D03*
X168582200Y-73020400D03*
D21*
X146993400Y-67940400D03*
D22*
X144453400Y-73020400D03*
D21*
X140643400Y-70480400D03*
D23*
X139373400Y-73020400D03*
X149533400Y-73020400D03*
D21*
X127944600Y-67940400D03*
D22*
X125404600Y-73020400D03*
D21*
X121594600Y-70480400D03*
D23*
X120324600Y-73020400D03*
X130484600Y-73020400D03*
D21*
X108895800Y-67940400D03*
D22*
X106355800Y-73020400D03*
D21*
X102545800Y-70480400D03*
D23*
X101275800Y-73020400D03*
X111435800Y-73020400D03*
D21*
X70798200Y-67940400D03*
D22*
X68258200Y-73020400D03*
D21*
X64448200Y-70480400D03*
D23*
X63178200Y-73020400D03*
X73338200Y-73020400D03*
D27*
X285621580Y-54635832D03*
D28*
X333881580Y-39395832D03*
X288161580Y-54635832D03*
X331341580Y-39395832D03*
X290701580Y-54635832D03*
X328801580Y-39395832D03*
X293241580Y-54635832D03*
X326261580Y-39395832D03*
X295781580Y-54635832D03*
X323721580Y-39395832D03*
X298321580Y-54635832D03*
X321181580Y-39395832D03*
X300861580Y-54635832D03*
X318641580Y-39395832D03*
X303401580Y-54635832D03*
X316101580Y-39395832D03*
X305941580Y-54635832D03*
X313561580Y-39395832D03*
X308481580Y-54635832D03*
X311021580Y-39395832D03*
X311021580Y-54635832D03*
X308481580Y-39395832D03*
X313561580Y-54635832D03*
X305941580Y-39395832D03*
X316101580Y-54635832D03*
X303401580Y-39395832D03*
X318641580Y-54635832D03*
X300861580Y-39395832D03*
X321181580Y-54635832D03*
X298321580Y-39395832D03*
X323721580Y-54635832D03*
X295781580Y-39395832D03*
X326261580Y-54635832D03*
X293241580Y-39395832D03*
X328801580Y-54635832D03*
X290701580Y-39395832D03*
X331341580Y-54635832D03*
X288161580Y-39395832D03*
X333881580Y-54635832D03*
X285621580Y-39395832D03*
D29*
X241161980Y-38597520D03*
D30*
X241161980Y-41137520D03*
X238621980Y-38597520D03*
X238621980Y-41137520D03*
X236081980Y-38597520D03*
X236081980Y-41137520D03*
D31*
X323119794Y-58502890D03*
X318239794Y-58502890D03*
D32*
X282244466Y-53892167D03*
D33*
X274624466Y-53892167D03*
D32*
X282244466Y-51398702D03*
D33*
X274624466Y-51398702D03*
D32*
X282244466Y-56385632D03*
D33*
X274624466Y-56385632D03*
D32*
X274624466Y-48826861D03*
D33*
X282244466Y-48826861D03*
D32*
X274624466Y-46307149D03*
D33*
X282244466Y-46307149D03*
D32*
X274624466Y-43813684D03*
D33*
X282244466Y-43813684D03*
D32*
X282244466Y-41319854D03*
D33*
X274624466Y-41319854D03*
D34*
X272535866Y-40217480D03*
D35*
X269995866Y-40217480D03*
D36*
X264691618Y-44637672D03*
X266391618Y-44637672D03*
X265541618Y-44637672D03*
X263841618Y-44637672D03*
X262991618Y-44637672D03*
X262141618Y-44637672D03*
X261291618Y-44637672D03*
X260441618Y-44637672D03*
X266391618Y-43312672D03*
X265536618Y-43312672D03*
X264686618Y-43312672D03*
X263836618Y-43312672D03*
X262986618Y-43312672D03*
X262136618Y-43312672D03*
X261286618Y-43312672D03*
X260436618Y-43312672D03*
D37*
X267741618Y-43657672D03*
X259091618Y-43657672D03*
D38*
X267741618Y-40277672D03*
X259091618Y-40277672D03*
D32*
X255915764Y-37597488D03*
X255915764Y-42697488D03*
D39*
X230853882Y-38082724D03*
X230853882Y-42582724D03*
X224353882Y-38082724D03*
X224353882Y-42582724D03*
X218853882Y-38082724D03*
X218853882Y-42582724D03*
X212353882Y-38082724D03*
X212353882Y-42582724D03*
D28*
X49468434Y-50802262D03*
D27*
X49468434Y-45722262D03*
D28*
X58976823Y-55762849D03*
D27*
X58976823Y-50682849D03*
D28*
X71654675Y-55762849D03*
D27*
X71654675Y-50682849D03*
D28*
X74824138Y-50802262D03*
D27*
X74824138Y-45722262D03*
D28*
X87501990Y-50802262D03*
D27*
X87501990Y-45722262D03*
D28*
X100179842Y-50802262D03*
D27*
X100179842Y-45722262D03*
D28*
X112857694Y-50802262D03*
D27*
X112857694Y-45722262D03*
D28*
X125535546Y-50802262D03*
D27*
X125535546Y-45722262D03*
D28*
X138213398Y-50802262D03*
D27*
X138213398Y-45722262D03*
D28*
X150891250Y-50802262D03*
D27*
X150891250Y-45722262D03*
D28*
X163569102Y-50802262D03*
D27*
X163569102Y-45722262D03*
D28*
X176246954Y-50802262D03*
D27*
X176246954Y-45722262D03*
D28*
X188924806Y-50802262D03*
D27*
X188924806Y-45722262D03*
D28*
X201602658Y-50802262D03*
D27*
X201602658Y-45722262D03*
D28*
X214210526Y-50802262D03*
D27*
X214210526Y-45722262D03*
D28*
X261410079Y-55762849D03*
D27*
X261410079Y-50682849D03*
D28*
X52637897Y-52455791D03*
D27*
X52637897Y-47375791D03*
D28*
X68485212Y-54109320D03*
D27*
X68485212Y-49029320D03*
D28*
X77993601Y-52455791D03*
D27*
X77993601Y-47375791D03*
D28*
X90671453Y-52455791D03*
D27*
X90671453Y-47375791D03*
D28*
X103349305Y-52455791D03*
D27*
X103349305Y-47375791D03*
D28*
X116027157Y-52455791D03*
D27*
X116027157Y-47375791D03*
D28*
X128705009Y-52455791D03*
D27*
X128705009Y-47375791D03*
D28*
X141382861Y-52455791D03*
D27*
X141382861Y-47375791D03*
D28*
X154060713Y-52455791D03*
D27*
X154060713Y-47375791D03*
D28*
X166738565Y-52455791D03*
D27*
X166738565Y-47375791D03*
D28*
X179416417Y-52455791D03*
D27*
X179416417Y-47375791D03*
D28*
X192094269Y-52455791D03*
D27*
X192094269Y-47375791D03*
D28*
X204754625Y-52455791D03*
D27*
X204754625Y-47375791D03*
D28*
X217361299Y-52455791D03*
D27*
X217361299Y-47375791D03*
D28*
X258321355Y-54109320D03*
D27*
X258321355Y-49029320D03*
D28*
X55807360Y-54109320D03*
D27*
X55807360Y-49029320D03*
D28*
X65315749Y-52455791D03*
D27*
X65315749Y-47375791D03*
D28*
X81163064Y-54109320D03*
D27*
X81163064Y-49029320D03*
D28*
X93840916Y-54109320D03*
D27*
X93840916Y-49029320D03*
D28*
X106518768Y-54109320D03*
D27*
X106518768Y-49029320D03*
D28*
X119196620Y-54109320D03*
D27*
X119196620Y-49029320D03*
D28*
X131874472Y-54109320D03*
D27*
X131874472Y-49029320D03*
D28*
X144552324Y-54109320D03*
D27*
X144552324Y-49029320D03*
D28*
X157230176Y-54109320D03*
D27*
X157230176Y-49029320D03*
D28*
X169908028Y-54109320D03*
D27*
X169908028Y-49029320D03*
D28*
X182585880Y-54109320D03*
D27*
X182585880Y-49029320D03*
D28*
X195263732Y-54109320D03*
D27*
X195263732Y-49029320D03*
D28*
X220512072Y-54109320D03*
D27*
X220512072Y-49029320D03*
D28*
X255232631Y-52455791D03*
D27*
X255232631Y-47375791D03*
D28*
X84332527Y-55762849D03*
D27*
X84332527Y-50682849D03*
D28*
X97010379Y-55762849D03*
D27*
X97010379Y-50682849D03*
D28*
X109688231Y-55762849D03*
D27*
X109688231Y-50682849D03*
D28*
X122366083Y-55762849D03*
D27*
X122366083Y-50682849D03*
D28*
X135043935Y-55762849D03*
D27*
X135043935Y-50682849D03*
D28*
X147721787Y-55762849D03*
D27*
X147721787Y-50682849D03*
D28*
X160399639Y-55762849D03*
D27*
X160399639Y-50682849D03*
D28*
X173077491Y-55762849D03*
D27*
X173077491Y-50682849D03*
D28*
X185755343Y-55762849D03*
D27*
X185755343Y-50682849D03*
D28*
X198433195Y-55762849D03*
D27*
X198433195Y-50682849D03*
D28*
X207906592Y-54109320D03*
D27*
X207906592Y-49029320D03*
D28*
X223662845Y-55762849D03*
D27*
X223662845Y-50682849D03*
D28*
X251957756Y-50802262D03*
D27*
X251957756Y-45722262D03*
D28*
X245656208Y-54109320D03*
D27*
X245656208Y-49029320D03*
D28*
X62146286Y-50802262D03*
D27*
X62146286Y-45722262D03*
D28*
X242505434Y-52455791D03*
D27*
X242505434Y-47375791D03*
D28*
X239354661Y-50802262D03*
D27*
X239354661Y-45722262D03*
D28*
X236203888Y-55762849D03*
D27*
X236203888Y-50682849D03*
D28*
X211058559Y-55762849D03*
D27*
X211058559Y-50682849D03*
D28*
X229964391Y-52455791D03*
D27*
X229964391Y-47375791D03*
D28*
X226813618Y-50802262D03*
D27*
X226813618Y-45722262D03*
D28*
X248806982Y-55762849D03*
D27*
X248806982Y-50682849D03*
D28*
X233053115Y-54109320D03*
D27*
X233053115Y-49029320D03*
D28*
X272043132Y-56488846D03*
D27*
X272043132Y-51408846D03*
D28*
X269173460Y-56488846D03*
D27*
X269173460Y-51408846D03*
M02*
