M48
; DRILL file {KiCad (5.1.5)-3} date 22/03/2020 10:56:25 AM
; FORMAT={-:-/ absolute / inch / decimal}
; #@! TF.CreationDate,2020-03-22T10:56:25+11:00
; #@! TF.GenerationSoftware,Kicad,Pcbnew,(5.1.5)-3
; #@! TF.FileFunction,NonPlated,1,2,NPTH
FMAT,2
INCH
T1C0.0689
T2C0.1181
T3C0.1200
T4C0.1570
%
G90
G05
T1
X5.4871Y-2.8748
X5.8871Y-2.8748
X3.0498Y-4.3747
X3.4498Y-4.3747
X10.3618Y-3.6248
X10.7618Y-3.6248
X7.5495Y-4.3747
X7.9495Y-4.3747
X6.4246Y-5.1247
X6.8246Y-5.1247
X12.9867Y-4.3747
X13.3867Y-4.3747
X10.5493Y-4.3747
X10.9493Y-4.3747
X9.4244Y-5.1247
X9.8244Y-5.1247
X12.2367Y-5.1247
X12.6367Y-5.1247
X3.6123Y-3.6248
X4.0123Y-3.6248
X6.2371Y-2.8748
X6.6371Y-2.8748
X7.362Y-3.6248
X7.762Y-3.6248
X12.0492Y-3.6248
X12.4492Y-3.6248
X11.1118Y-3.6248
X11.5118Y-3.6248
X12.9867Y-5.1247
X13.3867Y-5.1247
X10.6431Y-5.8746
X11.0431Y-5.8746
X2.2061Y-5.1247
X2.6061Y-5.1247
X3.5185Y-5.8746
X3.9185Y-5.8746
X4.5497Y-4.3747
X4.9497Y-4.3747
X5.2997Y-4.3747
X5.6997Y-4.3747
X1.9249Y-3.6248
X2.3249Y-3.6248
X5.8621Y-3.6248
X6.2621Y-3.6248
X4.9247Y-5.1247
X5.3247Y-5.1247
X3.4248Y-5.1247
X3.8248Y-5.1247
X12.2367Y-5.8746
X12.6367Y-5.8746
X11.4868Y-5.8746
X11.8868Y-5.8746
X12.2367Y-2.8748
X12.6367Y-2.8748
X1.8311Y-4.3747
X2.2311Y-4.3747
X2.4873Y-2.8748
X2.8873Y-2.8748
X8.487Y-2.8748
X8.887Y-2.8748
X6.7996Y-4.3747
X7.1996Y-4.3747
X12.9867Y-2.8748
X13.3867Y-2.8748
X7.1745Y-5.1247
X7.5745Y-5.1247
X9.0494Y-4.3747
X9.4494Y-4.3747
X4.1747Y-5.1247
X4.5747Y-5.1247
X1.7374Y-2.8748
X2.1374Y-2.8748
X11.8617Y-2.8748
X12.2617Y-2.8748
X7.737Y-2.8748
X8.137Y-2.8748
X8.2995Y-4.3747
X8.6995Y-4.3747
X9.2369Y-2.8748
X9.6369Y-2.8748
X3.9872Y-2.8748
X4.3872Y-2.8748
X9.9869Y-2.8748
X10.3869Y-2.8748
X5.1122Y-3.6248
X5.5122Y-3.6248
X2.8623Y-3.6248
X3.2623Y-3.6248
X6.6121Y-3.6248
X7.0121Y-3.6248
X7.9245Y-5.1247
X8.3245Y-5.1247
X9.7994Y-4.3747
X10.1994Y-4.3747
X9.7056Y-5.8746
X10.1056Y-5.8746
X11.2055Y-5.1247
X11.6055Y-5.1247
X6.987Y-2.8748
X7.387Y-2.8748
X2.6748Y-5.8746
X3.0748Y-5.8746
X2.0186Y-4.3747
X2.4186Y-4.3747
X8.112Y-3.6248
X8.512Y-3.6248
X4.3622Y-3.6248
X4.7622Y-3.6248
X8.8619Y-3.6248
X9.2619Y-3.6248
X6.0496Y-4.3747
X6.4496Y-4.3747
X12.9867Y-3.6248
X13.3867Y-3.6248
X10.1743Y-5.1247
X10.5743Y-5.1247
X8.6744Y-5.1247
X9.0744Y-5.1247
X11.4868Y-2.8748
X11.8868Y-2.8748
X6.6121Y-5.8746
X7.0121Y-5.8746
X3.2373Y-2.8748
X3.6373Y-2.8748
X4.7372Y-2.8748
X5.1372Y-2.8748
X10.7368Y-2.8748
X11.1368Y-2.8748
X3.7997Y-4.3747
X4.1997Y-4.3747
X9.6119Y-3.6248
X10.0119Y-3.6248
X11.768Y-4.3747
X12.168Y-4.3747
X1.8311Y-5.8746
X2.2311Y-5.8746
X12.9867Y-5.8746
X13.3867Y-5.8746
X5.6746Y-5.1247
X6.0746Y-5.1247
T2
X5.5371Y-2.7748
X5.7871Y-2.6748
X3.0998Y-4.2747
X3.3498Y-4.1747
X10.4118Y-3.5248
X10.6618Y-3.4248
X7.5995Y-4.2747
X7.8495Y-4.1747
X6.4746Y-5.0247
X6.7246Y-4.9247
X13.0367Y-4.2747
X13.2867Y-4.1747
X10.5993Y-4.2747
X10.8493Y-4.1747
X9.4744Y-5.0247
X9.7244Y-4.9247
X12.2867Y-5.0247
X12.5367Y-4.9247
X3.6623Y-3.5248
X3.9123Y-3.4248
X6.2871Y-2.7748
X6.5371Y-2.6748
X7.412Y-3.5248
X7.662Y-3.4248
X12.0992Y-3.5248
X12.3492Y-3.4248
X11.1618Y-3.5248
X11.4118Y-3.4248
X13.0367Y-5.0247
X13.2867Y-4.9247
X10.6931Y-5.7746
X10.9431Y-5.6746
X2.2561Y-5.0247
X2.5061Y-4.9247
X3.5685Y-5.7746
X3.8185Y-5.6746
X4.5997Y-4.2747
X4.8497Y-4.1747
X5.3497Y-4.2747
X5.5997Y-4.1747
X1.9749Y-3.5248
X2.2249Y-3.4248
X5.9121Y-3.5248
X6.1621Y-3.4248
X4.9747Y-5.0247
X5.2247Y-4.9247
X3.4748Y-5.0247
X3.7248Y-4.9247
X12.2867Y-5.7746
X12.5367Y-5.6746
X11.5368Y-5.7746
X11.7868Y-5.6746
X12.3367Y-3.0748
X12.5867Y-2.9748
X1.8811Y-4.2747
X2.1311Y-4.1747
X2.5373Y-2.7748
X2.7873Y-2.6748
X8.537Y-2.7748
X8.787Y-2.6748
X6.8496Y-4.2747
X7.0996Y-4.1747
X13.0367Y-2.7748
X13.2867Y-2.6748
X7.2245Y-5.0247
X7.4745Y-4.9247
X9.0994Y-4.2747
X9.3494Y-4.1747
X4.2247Y-5.0247
X4.4747Y-4.9247
X1.7874Y-2.7748
X2.0374Y-2.6748
X11.9117Y-2.7748
X12.1617Y-2.6748
X7.787Y-2.7748
X8.037Y-2.6748
X8.3495Y-4.2747
X8.5995Y-4.1747
X9.2869Y-2.7748
X9.5369Y-2.6748
X4.0372Y-2.7748
X4.2872Y-2.6748
X10.0369Y-2.7748
X10.2869Y-2.6748
X5.1622Y-3.5248
X5.4122Y-3.4248
X2.9123Y-3.5248
X3.1623Y-3.4248
X6.6621Y-3.5248
X6.9121Y-3.4248
X7.9745Y-5.0247
X8.2245Y-4.9247
X9.8494Y-4.2747
X10.0994Y-4.1747
X9.7556Y-5.7746
X10.0056Y-5.6746
X11.2555Y-5.0247
X11.5055Y-4.9247
X7.037Y-2.7748
X7.287Y-2.6748
X2.7248Y-5.7746
X2.9748Y-5.6746
X2.1186Y-4.5747
X2.3686Y-4.4747
X8.162Y-3.5248
X8.412Y-3.4248
X4.4122Y-3.5248
X4.6622Y-3.4248
X8.9119Y-3.5248
X9.1619Y-3.4248
X6.0996Y-4.2747
X6.3496Y-4.1747
X13.0367Y-3.5248
X13.2867Y-3.4248
X10.2243Y-5.0247
X10.4743Y-4.9247
X8.7244Y-5.0247
X8.9744Y-4.9247
X11.5868Y-3.0748
X11.8368Y-2.9748
X6.6621Y-5.7746
X6.9121Y-5.6746
X3.2873Y-2.7748
X3.5373Y-2.6748
X4.7872Y-2.7748
X5.0372Y-2.6748
X10.7868Y-2.7748
X11.0368Y-2.6748
X3.8497Y-4.2747
X4.0997Y-4.1747
X9.6619Y-3.5248
X9.9119Y-3.4248
X11.818Y-4.2747
X12.068Y-4.1747
X1.8811Y-5.7746
X2.1311Y-5.6746
X13.0367Y-5.7746
X13.2867Y-5.6746
X5.7246Y-5.0247
X5.9746Y-4.9247
T3
X1.9361Y-4.8497
X2.8761Y-4.8497
X11.5917Y-2.5998
X12.5317Y-2.5998
X4.5621Y-6.1496
X9.0621Y-6.1496
X11.498Y-4.0997
X12.438Y-4.0997
T4
X11.498Y-4.6997
X11.968Y-4.3747
X12.438Y-4.6997
X2.0311Y-5.8746
X13.1867Y-5.8746
X5.8746Y-5.1247
X5.6871Y-2.8748
X3.2498Y-4.3747
X10.5618Y-3.6248
X7.7495Y-4.3747
X6.6246Y-5.1247
X13.1867Y-4.3747
X10.7493Y-4.3747
X9.6244Y-5.1247
X12.4367Y-5.1247
X3.8123Y-3.6248
X6.4371Y-2.8748
X7.562Y-3.6248
X12.2492Y-3.6248
X11.3118Y-3.6248
X13.1867Y-5.1247
X10.8431Y-5.8746
X1.9361Y-5.4497
X2.4061Y-5.1247
X2.8761Y-5.4497
X3.7185Y-5.8746
X4.7497Y-4.3747
X5.4997Y-4.3747
X2.1249Y-3.6248
X6.0621Y-3.6248
X5.1247Y-5.1247
X3.6248Y-5.1247
X12.4367Y-5.8746
X11.6868Y-5.8746
X12.4367Y-2.8748
X2.0311Y-4.3747
X2.6873Y-2.8748
X8.687Y-2.8748
X6.9996Y-4.3747
X13.1867Y-2.8748
X7.3745Y-5.1247
X9.2494Y-4.3747
X4.3747Y-5.1247
X1.9374Y-2.8748
X11.5917Y-3.1998
X12.0617Y-2.8748
X12.5317Y-3.1998
X7.937Y-2.8748
X8.4995Y-4.3747
X9.4369Y-2.8748
X4.1872Y-2.8748
X10.1869Y-2.8748
X5.3122Y-3.6248
X3.0623Y-3.6248
X6.8121Y-3.6248
X8.1245Y-5.1247
X9.9994Y-4.3747
X9.9056Y-5.8746
X11.4055Y-5.1247
X7.187Y-2.8748
X2.8748Y-5.8746
X2.2186Y-4.3747
X8.312Y-3.6248
X4.5622Y-3.6248
X9.0619Y-3.6248
X6.2496Y-4.3747
X13.1867Y-3.6248
X10.3743Y-5.1247
X8.8744Y-5.1247
X11.6868Y-2.8748
X4.5621Y-5.5496
X6.8121Y-5.8746
X9.0621Y-5.5496
X3.4373Y-2.8748
X4.9372Y-2.8748
X10.9368Y-2.8748
X3.9997Y-4.3747
X9.8119Y-3.6248
T0
M30
