G04 #@! TF.GenerationSoftware,KiCad,Pcbnew,(5.1.5)-3*
G04 #@! TF.CreationDate,2020-03-22T10:56:23+11:00*
G04 #@! TF.ProjectId,discipline-pcb,64697363-6970-46c6-996e-652d7063622e,rev?*
G04 #@! TF.SameCoordinates,Original*
G04 #@! TF.FileFunction,Legend,Bot*
G04 #@! TF.FilePolarity,Positive*
%FSLAX46Y46*%
G04 Gerber Fmt 4.6, Leading zero omitted, Abs format (unit mm)*
G04 Created by KiCad (PCBNEW (5.1.5)-3) date 2020-03-22 10:56:23*
%MOMM*%
%LPD*%
G04 APERTURE LIST*
%ADD10C,0.150000*%
%ADD11R,2.652000X2.602000*%
%ADD12C,1.852000*%
%ADD13C,3.102000*%
%ADD14C,4.089800*%
%ADD15C,0.802000*%
%ADD16C,4.502000*%
%ADD17C,3.150000*%
%ADD18C,0.100000*%
%ADD19R,1.702000X1.702000*%
%ADD20O,1.702000X1.702000*%
%ADD21R,1.802000X1.802000*%
%ADD22C,1.802000*%
%ADD23C,1.602000*%
%ADD24C,1.702000*%
%ADD25C,1.502000*%
%ADD26O,1.502000X1.502000*%
%ADD27R,1.302000X1.302000*%
%ADD28C,1.302000*%
%ADD29C,1.902000*%
%ADD30R,1.902000X1.902000*%
%ADD31O,0.752000X1.102000*%
%ADD32O,1.002000X2.502000*%
%ADD33O,1.002000X1.802000*%
%ADD34C,2.102000*%
G04 APERTURE END LIST*
D10*
X53400023Y-114570761D02*
X53257166Y-114618380D01*
X53019071Y-114618380D01*
X52923833Y-114570761D01*
X52876214Y-114523142D01*
X52828595Y-114427904D01*
X52828595Y-114332666D01*
X52876214Y-114237428D01*
X52923833Y-114189809D01*
X53019071Y-114142190D01*
X53209547Y-114094571D01*
X53304785Y-114046952D01*
X53352404Y-113999333D01*
X53400023Y-113904095D01*
X53400023Y-113808857D01*
X53352404Y-113713619D01*
X53304785Y-113666000D01*
X53209547Y-113618380D01*
X52971452Y-113618380D01*
X52828595Y-113666000D01*
X52495261Y-113618380D02*
X52257166Y-114618380D01*
X52066690Y-113904095D01*
X51876214Y-114618380D01*
X51638119Y-113618380D01*
X50828595Y-113618380D02*
X51019071Y-113618380D01*
X51114309Y-113666000D01*
X51161928Y-113713619D01*
X51257166Y-113856476D01*
X51304785Y-114046952D01*
X51304785Y-114427904D01*
X51257166Y-114523142D01*
X51209547Y-114570761D01*
X51114309Y-114618380D01*
X50923833Y-114618380D01*
X50828595Y-114570761D01*
X50780976Y-114523142D01*
X50733357Y-114427904D01*
X50733357Y-114189809D01*
X50780976Y-114094571D01*
X50828595Y-114046952D01*
X50923833Y-113999333D01*
X51114309Y-113999333D01*
X51209547Y-114046952D01*
X51257166Y-114094571D01*
X51304785Y-114189809D01*
X50257166Y-114618380D02*
X50066690Y-114618380D01*
X49971452Y-114570761D01*
X49923833Y-114523142D01*
X49828595Y-114380285D01*
X49780976Y-114189809D01*
X49780976Y-113808857D01*
X49828595Y-113713619D01*
X49876214Y-113666000D01*
X49971452Y-113618380D01*
X50161928Y-113618380D01*
X50257166Y-113666000D01*
X50304785Y-113713619D01*
X50352404Y-113808857D01*
X50352404Y-114046952D01*
X50304785Y-114142190D01*
X50257166Y-114189809D01*
X50161928Y-114237428D01*
X49971452Y-114237428D01*
X49876214Y-114189809D01*
X49828595Y-114142190D01*
X49780976Y-114046952D01*
%LPC*%
D11*
X57432500Y-106038000D03*
X44505500Y-108578000D03*
D12*
X56670500Y-111118000D03*
X46510500Y-111118000D03*
D13*
X47780500Y-108578000D03*
D14*
X51590500Y-111118000D03*
D13*
X54130500Y-106038000D03*
D15*
X341005597Y-57301167D03*
X339838871Y-56817893D03*
X338672145Y-57301167D03*
X338188871Y-58467893D03*
X338672145Y-59634619D03*
X339838871Y-60117893D03*
X341005597Y-59634619D03*
X341488871Y-58467893D03*
D16*
X339838871Y-58467893D03*
D15*
X341005597Y-38979454D03*
X339838871Y-38496180D03*
X338672145Y-38979454D03*
X338188871Y-40146180D03*
X338672145Y-41312906D03*
X339838871Y-41796180D03*
X341005597Y-41312906D03*
X341488871Y-40146180D03*
D16*
X339838871Y-40146180D03*
D15*
X45490846Y-38979454D03*
X44324120Y-38496180D03*
X43157394Y-38979454D03*
X42674120Y-40146180D03*
X43157394Y-41312906D03*
X44324120Y-41796180D03*
X45490846Y-41312906D03*
X45974120Y-40146180D03*
D16*
X44324120Y-40146180D03*
D15*
X45490846Y-57301167D03*
X44324120Y-56817893D03*
X43157394Y-57301167D03*
X42674120Y-58467893D03*
X43157394Y-59634619D03*
X44324120Y-60117893D03*
X45490846Y-59634619D03*
X45974120Y-58467893D03*
D16*
X44324120Y-58467893D03*
D15*
X193250846Y-144041167D03*
X192084120Y-143557893D03*
X190917394Y-144041167D03*
X190434120Y-145207893D03*
X190917394Y-146374619D03*
X192084120Y-146857893D03*
X193250846Y-146374619D03*
X193734120Y-145207893D03*
D16*
X192084120Y-145207893D03*
D15*
X302890846Y-138231167D03*
X301724120Y-137747893D03*
X300557394Y-138231167D03*
X300074120Y-139397893D03*
X300557394Y-140564619D03*
X301724120Y-141047893D03*
X302890846Y-140564619D03*
X303374120Y-139397893D03*
D16*
X301724120Y-139397893D03*
D15*
X83600846Y-138231167D03*
X82434120Y-137747893D03*
X81267394Y-138231167D03*
X80784120Y-139397893D03*
X81267394Y-140564619D03*
X82434120Y-141047893D03*
X83600846Y-140564619D03*
X84084120Y-139397893D03*
D16*
X82434120Y-139397893D03*
D15*
X193252126Y-81381167D03*
X192085400Y-80897893D03*
X190918674Y-81381167D03*
X190435400Y-82547893D03*
X190918674Y-83714619D03*
X192085400Y-84197893D03*
X193252126Y-83714619D03*
X193735400Y-82547893D03*
D16*
X192085400Y-82547893D03*
D15*
X100790846Y-81381167D03*
X99624120Y-80897893D03*
X98457394Y-81381167D03*
X97974120Y-82547893D03*
X98457394Y-83714619D03*
X99624120Y-84197893D03*
X100790846Y-83714619D03*
X101274120Y-82547893D03*
D16*
X99624120Y-82547893D03*
D15*
X285705597Y-81381167D03*
X284538871Y-80897893D03*
X283372145Y-81381167D03*
X282888871Y-82547893D03*
X283372145Y-83714619D03*
X284538871Y-84197893D03*
X285705597Y-83714619D03*
X286188871Y-82547893D03*
D16*
X284538871Y-82547893D03*
D14*
X115876600Y-140960600D03*
X230176600Y-140960600D03*
D17*
X115876600Y-156200600D03*
X230176600Y-156200600D03*
D11*
X178868600Y-144135600D03*
X165941600Y-146675600D03*
D12*
X178106600Y-149215600D03*
X167946600Y-149215600D03*
D13*
X169216600Y-146675600D03*
D14*
X173026600Y-149215600D03*
D13*
X175566600Y-144135600D03*
D11*
X188393000Y-67940400D03*
X175466000Y-70480400D03*
D12*
X187631000Y-73020400D03*
X177471000Y-73020400D03*
D13*
X178741000Y-70480400D03*
D14*
X182551000Y-73020400D03*
D13*
X185091000Y-67940400D03*
D11*
X207441800Y-67940400D03*
X194514800Y-70480400D03*
D12*
X206679800Y-73020400D03*
X196519800Y-73020400D03*
D13*
X197789800Y-70480400D03*
D14*
X201599800Y-73020400D03*
D13*
X204139800Y-67940400D03*
D11*
X310050600Y-78100400D03*
X322977600Y-75560400D03*
D12*
X310812600Y-73020400D03*
X320972600Y-73020400D03*
D13*
X319702600Y-75560400D03*
D14*
X315892600Y-73020400D03*
D13*
X313352600Y-78100400D03*
D14*
X294430200Y-81275400D03*
X318306200Y-81275400D03*
D17*
X294430200Y-66035400D03*
X318306200Y-66035400D03*
D11*
X312210200Y-67940400D03*
D18*
G36*
X300568150Y-69180380D02*
G01*
X300577717Y-69183282D01*
X300586534Y-69187995D01*
X300594262Y-69194338D01*
X300600605Y-69202066D01*
X300605318Y-69210883D01*
X300608220Y-69220450D01*
X300609200Y-69230400D01*
X300609200Y-71730400D01*
X300608220Y-71740350D01*
X300605318Y-71749917D01*
X300600605Y-71758734D01*
X300594262Y-71766462D01*
X300586534Y-71772805D01*
X300577717Y-71777518D01*
X300568150Y-71780420D01*
X300558200Y-71781400D01*
X298683200Y-71781400D01*
X298673250Y-71780420D01*
X298663683Y-71777518D01*
X298654866Y-71772805D01*
X298647824Y-71767136D01*
X297972824Y-71117136D01*
X297966337Y-71109529D01*
X297961459Y-71100802D01*
X297958377Y-71091291D01*
X297957200Y-71080400D01*
X297957200Y-69230400D01*
X297958180Y-69220450D01*
X297961082Y-69210883D01*
X297965795Y-69202066D01*
X297972138Y-69194338D01*
X297979866Y-69187995D01*
X297988683Y-69183282D01*
X297998250Y-69180380D01*
X298008200Y-69179400D01*
X300558200Y-69179400D01*
X300568150Y-69180380D01*
G37*
D12*
X311448200Y-73020400D03*
X301288200Y-73020400D03*
D13*
X302558200Y-70480400D03*
D14*
X306368200Y-73020400D03*
D13*
X308908200Y-67940400D03*
D11*
X93149000Y-67940400D03*
X80222000Y-70480400D03*
D12*
X92387000Y-73020400D03*
X82227000Y-73020400D03*
D13*
X83497000Y-70480400D03*
D14*
X87307000Y-73020400D03*
D13*
X89847000Y-67940400D03*
D11*
X321734600Y-125086800D03*
X308807600Y-127626800D03*
D12*
X320972600Y-130166800D03*
X310812600Y-130166800D03*
D13*
X312082600Y-127626800D03*
D14*
X315892600Y-130166800D03*
D13*
X318432600Y-125086800D03*
D11*
X295542500Y-125086800D03*
X282615500Y-127626800D03*
D12*
X294780500Y-130166800D03*
X284620500Y-130166800D03*
D13*
X285890500Y-127626800D03*
D14*
X289700500Y-130166800D03*
D13*
X292240500Y-125086800D03*
D11*
X221728400Y-106038000D03*
X208801400Y-108578000D03*
D12*
X220966400Y-111118000D03*
X210806400Y-111118000D03*
D13*
X212076400Y-108578000D03*
D14*
X215886400Y-111118000D03*
D13*
X218426400Y-106038000D03*
D11*
X78862400Y-144135600D03*
X65935400Y-146675600D03*
D12*
X78100400Y-149215600D03*
X67940400Y-149215600D03*
D13*
X69210400Y-146675600D03*
D14*
X73020400Y-149215600D03*
D13*
X75560400Y-144135600D03*
D11*
X97911200Y-125086800D03*
X84984200Y-127626800D03*
D12*
X97149200Y-130166800D03*
X86989200Y-130166800D03*
D13*
X88259200Y-127626800D03*
D14*
X92069200Y-130166800D03*
D13*
X94609200Y-125086800D03*
D11*
X55051400Y-67940400D03*
X42124400Y-70480400D03*
D12*
X54289400Y-73020400D03*
X44129400Y-73020400D03*
D13*
X45399400Y-70480400D03*
D14*
X49209400Y-73020400D03*
D13*
X51749400Y-67940400D03*
D11*
X291001800Y-78100400D03*
D18*
G36*
X302643850Y-76860420D02*
G01*
X302634283Y-76857518D01*
X302625466Y-76852805D01*
X302617738Y-76846462D01*
X302611395Y-76838734D01*
X302606682Y-76829917D01*
X302603780Y-76820350D01*
X302602800Y-76810400D01*
X302602800Y-74310400D01*
X302603780Y-74300450D01*
X302606682Y-74290883D01*
X302611395Y-74282066D01*
X302617738Y-74274338D01*
X302625466Y-74267995D01*
X302634283Y-74263282D01*
X302643850Y-74260380D01*
X302653800Y-74259400D01*
X304528800Y-74259400D01*
X304538750Y-74260380D01*
X304548317Y-74263282D01*
X304557134Y-74267995D01*
X304564176Y-74273664D01*
X305239176Y-74923664D01*
X305245663Y-74931271D01*
X305250541Y-74939998D01*
X305253623Y-74949509D01*
X305254800Y-74960400D01*
X305254800Y-76810400D01*
X305253820Y-76820350D01*
X305250918Y-76829917D01*
X305246205Y-76838734D01*
X305239862Y-76846462D01*
X305232134Y-76852805D01*
X305223317Y-76857518D01*
X305213750Y-76860420D01*
X305203800Y-76861400D01*
X302653800Y-76861400D01*
X302643850Y-76860420D01*
G37*
D12*
X291763800Y-73020400D03*
X301923800Y-73020400D03*
D13*
X300653800Y-75560400D03*
D14*
X296843800Y-73020400D03*
D13*
X294303800Y-78100400D03*
D11*
X340783400Y-144135600D03*
X327856400Y-146675600D03*
D12*
X340021400Y-149215600D03*
X329861400Y-149215600D03*
D13*
X331131400Y-146675600D03*
D14*
X334941400Y-149215600D03*
D13*
X337481400Y-144135600D03*
D11*
X321734600Y-144135600D03*
X308807600Y-146675600D03*
D12*
X320972600Y-149215600D03*
X310812600Y-149215600D03*
D13*
X312082600Y-146675600D03*
D14*
X315892600Y-149215600D03*
D13*
X318432600Y-144135600D03*
D11*
X302685800Y-144135600D03*
X289758800Y-146675600D03*
D12*
X301923800Y-149215600D03*
X291763800Y-149215600D03*
D13*
X293033800Y-146675600D03*
D14*
X296843800Y-149215600D03*
D13*
X299383800Y-144135600D03*
D11*
X281255900Y-144135600D03*
X268328900Y-146675600D03*
D12*
X280493900Y-149215600D03*
X270333900Y-149215600D03*
D13*
X271603900Y-146675600D03*
D14*
X275413900Y-149215600D03*
D13*
X277953900Y-144135600D03*
D11*
X257444900Y-144135600D03*
X244517900Y-146675600D03*
D12*
X256682900Y-149215600D03*
X246522900Y-149215600D03*
D13*
X247792900Y-146675600D03*
D14*
X251602900Y-149215600D03*
D13*
X254142900Y-144135600D03*
D11*
X100292300Y-144135600D03*
X87365300Y-146675600D03*
D12*
X99530300Y-149215600D03*
X89370300Y-149215600D03*
D13*
X90640300Y-146675600D03*
D14*
X94450300Y-149215600D03*
D13*
X96990300Y-144135600D03*
D11*
X57432500Y-144135600D03*
X44505500Y-146675600D03*
D12*
X56670500Y-149215600D03*
X46510500Y-149215600D03*
D13*
X47780500Y-146675600D03*
D14*
X51590500Y-149215600D03*
D13*
X54130500Y-144135600D03*
D11*
X340783400Y-125086800D03*
X327856400Y-127626800D03*
D12*
X340021400Y-130166800D03*
X329861400Y-130166800D03*
D13*
X331131400Y-127626800D03*
D14*
X334941400Y-130166800D03*
D13*
X337481400Y-125086800D03*
D11*
X269350400Y-125086800D03*
X256423400Y-127626800D03*
D12*
X268588400Y-130166800D03*
X258428400Y-130166800D03*
D13*
X259698400Y-127626800D03*
D14*
X263508400Y-130166800D03*
D13*
X266048400Y-125086800D03*
D11*
X250301600Y-125086800D03*
X237374600Y-127626800D03*
D12*
X249539600Y-130166800D03*
X239379600Y-130166800D03*
D13*
X240649600Y-127626800D03*
D14*
X244459600Y-130166800D03*
D13*
X246999600Y-125086800D03*
D11*
X231252800Y-125086800D03*
X218325800Y-127626800D03*
D12*
X230490800Y-130166800D03*
X220330800Y-130166800D03*
D13*
X221600800Y-127626800D03*
D14*
X225410800Y-130166800D03*
D13*
X227950800Y-125086800D03*
D11*
X212204000Y-125086800D03*
X199277000Y-127626800D03*
D12*
X211442000Y-130166800D03*
X201282000Y-130166800D03*
D13*
X202552000Y-127626800D03*
D14*
X206362000Y-130166800D03*
D13*
X208902000Y-125086800D03*
D11*
X193155200Y-125086800D03*
X180228200Y-127626800D03*
D12*
X192393200Y-130166800D03*
X182233200Y-130166800D03*
D13*
X183503200Y-127626800D03*
D14*
X187313200Y-130166800D03*
D13*
X189853200Y-125086800D03*
D11*
X174106400Y-125086800D03*
X161179400Y-127626800D03*
D12*
X173344400Y-130166800D03*
X163184400Y-130166800D03*
D13*
X164454400Y-127626800D03*
D14*
X168264400Y-130166800D03*
D13*
X170804400Y-125086800D03*
D11*
X155057600Y-125086800D03*
X142130600Y-127626800D03*
D12*
X154295600Y-130166800D03*
X144135600Y-130166800D03*
D13*
X145405600Y-127626800D03*
D14*
X149215600Y-130166800D03*
D13*
X151755600Y-125086800D03*
D11*
X136008800Y-125086800D03*
X123081800Y-127626800D03*
D12*
X135246800Y-130166800D03*
X125086800Y-130166800D03*
D13*
X126356800Y-127626800D03*
D14*
X130166800Y-130166800D03*
D13*
X132706800Y-125086800D03*
D11*
X116960000Y-125086800D03*
X104033000Y-127626800D03*
D12*
X116198000Y-130166800D03*
X106038000Y-130166800D03*
D13*
X107308000Y-127626800D03*
D14*
X111118000Y-130166800D03*
D13*
X113658000Y-125086800D03*
D14*
X49176900Y-138421800D03*
X73052900Y-138421800D03*
D17*
X49176900Y-123181800D03*
X73052900Y-123181800D03*
D11*
X66956900Y-125086800D03*
X54029900Y-127626800D03*
D12*
X66194900Y-130166800D03*
X56034900Y-130166800D03*
D13*
X57304900Y-127626800D03*
D14*
X61114900Y-130166800D03*
D13*
X63654900Y-125086800D03*
D11*
X340783400Y-106038000D03*
X327856400Y-108578000D03*
D12*
X340021400Y-111118000D03*
X329861400Y-111118000D03*
D13*
X331131400Y-108578000D03*
D14*
X334941400Y-111118000D03*
D13*
X337481400Y-106038000D03*
D14*
X292049100Y-119373000D03*
X315925100Y-119373000D03*
D17*
X292049100Y-104133000D03*
X315925100Y-104133000D03*
D11*
X309829100Y-106038000D03*
X296902100Y-108578000D03*
D12*
X309067100Y-111118000D03*
X298907100Y-111118000D03*
D13*
X300177100Y-108578000D03*
D14*
X303987100Y-111118000D03*
D13*
X306527100Y-106038000D03*
D11*
X278874800Y-106038000D03*
X265947800Y-108578000D03*
D12*
X278112800Y-111118000D03*
X267952800Y-111118000D03*
D13*
X269222800Y-108578000D03*
D14*
X273032800Y-111118000D03*
D13*
X275572800Y-106038000D03*
D11*
X259826000Y-106038000D03*
X246899000Y-108578000D03*
D12*
X259064000Y-111118000D03*
X248904000Y-111118000D03*
D13*
X250174000Y-108578000D03*
D14*
X253984000Y-111118000D03*
D13*
X256524000Y-106038000D03*
D11*
X240777200Y-106038000D03*
X227850200Y-108578000D03*
D12*
X240015200Y-111118000D03*
X229855200Y-111118000D03*
D13*
X231125200Y-108578000D03*
D14*
X234935200Y-111118000D03*
D13*
X237475200Y-106038000D03*
D11*
X202679600Y-106038000D03*
X189752600Y-108578000D03*
D12*
X201917600Y-111118000D03*
X191757600Y-111118000D03*
D13*
X193027600Y-108578000D03*
D14*
X196837600Y-111118000D03*
D13*
X199377600Y-106038000D03*
D11*
X183630800Y-106038000D03*
X170703800Y-108578000D03*
D12*
X182868800Y-111118000D03*
X172708800Y-111118000D03*
D13*
X173978800Y-108578000D03*
D14*
X177788800Y-111118000D03*
D13*
X180328800Y-106038000D03*
D11*
X164582000Y-106038000D03*
X151655000Y-108578000D03*
D12*
X163820000Y-111118000D03*
X153660000Y-111118000D03*
D13*
X154930000Y-108578000D03*
D14*
X158740000Y-111118000D03*
D13*
X161280000Y-106038000D03*
D11*
X145533200Y-106038000D03*
X132606200Y-108578000D03*
D12*
X144771200Y-111118000D03*
X134611200Y-111118000D03*
D13*
X135881200Y-108578000D03*
D14*
X139691200Y-111118000D03*
D13*
X142231200Y-106038000D03*
D11*
X126484400Y-106038000D03*
X113557400Y-108578000D03*
D12*
X125722400Y-111118000D03*
X115562400Y-111118000D03*
D13*
X116832400Y-108578000D03*
D14*
X120642400Y-111118000D03*
D13*
X123182400Y-106038000D03*
D11*
X107435600Y-106038000D03*
X94508600Y-108578000D03*
D12*
X106673600Y-111118000D03*
X96513600Y-111118000D03*
D13*
X97783600Y-108578000D03*
D14*
X101593600Y-111118000D03*
D13*
X104133600Y-106038000D03*
D11*
X88386800Y-106038000D03*
X75459800Y-108578000D03*
D12*
X87624800Y-111118000D03*
X77464800Y-111118000D03*
D13*
X78734800Y-108578000D03*
D14*
X82544800Y-111118000D03*
D13*
X85084800Y-106038000D03*
D11*
X50510700Y-116198000D03*
X63437700Y-113658000D03*
D12*
X51272700Y-111118000D03*
X61432700Y-111118000D03*
D13*
X60162700Y-113658000D03*
D14*
X56352700Y-111118000D03*
D13*
X53812700Y-116198000D03*
D11*
X340783400Y-86989200D03*
X327856400Y-89529200D03*
D12*
X340021400Y-92069200D03*
X329861400Y-92069200D03*
D13*
X331131400Y-89529200D03*
D14*
X334941400Y-92069200D03*
D13*
X337481400Y-86989200D03*
D11*
X316972400Y-86989200D03*
X304045400Y-89529200D03*
D12*
X316210400Y-92069200D03*
X306050400Y-92069200D03*
D13*
X307320400Y-89529200D03*
D14*
X311130400Y-92069200D03*
D13*
X313670400Y-86989200D03*
D11*
X293161400Y-86989200D03*
X280234400Y-89529200D03*
D12*
X292399400Y-92069200D03*
X282239400Y-92069200D03*
D13*
X283509400Y-89529200D03*
D14*
X287319400Y-92069200D03*
D13*
X289859400Y-86989200D03*
D11*
X274112600Y-86989200D03*
X261185600Y-89529200D03*
D12*
X273350600Y-92069200D03*
X263190600Y-92069200D03*
D13*
X264460600Y-89529200D03*
D14*
X268270600Y-92069200D03*
D13*
X270810600Y-86989200D03*
D11*
X255063800Y-86989200D03*
X242136800Y-89529200D03*
D12*
X254301800Y-92069200D03*
X244141800Y-92069200D03*
D13*
X245411800Y-89529200D03*
D14*
X249221800Y-92069200D03*
D13*
X251761800Y-86989200D03*
D11*
X236015000Y-86989200D03*
X223088000Y-89529200D03*
D12*
X235253000Y-92069200D03*
X225093000Y-92069200D03*
D13*
X226363000Y-89529200D03*
D14*
X230173000Y-92069200D03*
D13*
X232713000Y-86989200D03*
D11*
X216966200Y-86989200D03*
X204039200Y-89529200D03*
D12*
X216204200Y-92069200D03*
X206044200Y-92069200D03*
D13*
X207314200Y-89529200D03*
D14*
X211124200Y-92069200D03*
D13*
X213664200Y-86989200D03*
D11*
X197917400Y-86989200D03*
X184990400Y-89529200D03*
D12*
X197155400Y-92069200D03*
X186995400Y-92069200D03*
D13*
X188265400Y-89529200D03*
D14*
X192075400Y-92069200D03*
D13*
X194615400Y-86989200D03*
D11*
X178868600Y-86989200D03*
X165941600Y-89529200D03*
D12*
X178106600Y-92069200D03*
X167946600Y-92069200D03*
D13*
X169216600Y-89529200D03*
D14*
X173026600Y-92069200D03*
D13*
X175566600Y-86989200D03*
D11*
X159819800Y-86989200D03*
X146892800Y-89529200D03*
D12*
X159057800Y-92069200D03*
X148897800Y-92069200D03*
D13*
X150167800Y-89529200D03*
D14*
X153977800Y-92069200D03*
D13*
X156517800Y-86989200D03*
D11*
X140771000Y-86989200D03*
X127844000Y-89529200D03*
D12*
X140009000Y-92069200D03*
X129849000Y-92069200D03*
D13*
X131119000Y-89529200D03*
D14*
X134929000Y-92069200D03*
D13*
X137469000Y-86989200D03*
D11*
X121722200Y-86989200D03*
X108795200Y-89529200D03*
D12*
X120960200Y-92069200D03*
X110800200Y-92069200D03*
D13*
X112070200Y-89529200D03*
D14*
X115880200Y-92069200D03*
D13*
X118420200Y-86989200D03*
D11*
X102673400Y-86989200D03*
X89746400Y-89529200D03*
D12*
X101911400Y-92069200D03*
X91751400Y-92069200D03*
D13*
X93021400Y-89529200D03*
D14*
X96831400Y-92069200D03*
D13*
X99371400Y-86989200D03*
D11*
X83624600Y-86989200D03*
X70697600Y-89529200D03*
D12*
X82862600Y-92069200D03*
X72702600Y-92069200D03*
D13*
X73972600Y-89529200D03*
D14*
X77782600Y-92069200D03*
D13*
X80322600Y-86989200D03*
D11*
X59813600Y-86989200D03*
X46886600Y-89529200D03*
D12*
X59051600Y-92069200D03*
X48891600Y-92069200D03*
D13*
X50161600Y-89529200D03*
D14*
X53971600Y-92069200D03*
D13*
X56511600Y-86989200D03*
D11*
X340783400Y-67940400D03*
X327856400Y-70480400D03*
D12*
X340021400Y-73020400D03*
X329861400Y-73020400D03*
D13*
X331131400Y-70480400D03*
D14*
X334941400Y-73020400D03*
D13*
X337481400Y-67940400D03*
D11*
X283637000Y-67940400D03*
X270710000Y-70480400D03*
D12*
X282875000Y-73020400D03*
X272715000Y-73020400D03*
D13*
X273985000Y-70480400D03*
D14*
X277795000Y-73020400D03*
D13*
X280335000Y-67940400D03*
D11*
X264588200Y-67940400D03*
X251661200Y-70480400D03*
D12*
X263826200Y-73020400D03*
X253666200Y-73020400D03*
D13*
X254936200Y-70480400D03*
D14*
X258746200Y-73020400D03*
D13*
X261286200Y-67940400D03*
D11*
X245539400Y-67940400D03*
X232612400Y-70480400D03*
D12*
X244777400Y-73020400D03*
X234617400Y-73020400D03*
D13*
X235887400Y-70480400D03*
D14*
X239697400Y-73020400D03*
D13*
X242237400Y-67940400D03*
D11*
X226490600Y-67940400D03*
X213563600Y-70480400D03*
D12*
X225728600Y-73020400D03*
X215568600Y-73020400D03*
D13*
X216838600Y-70480400D03*
D14*
X220648600Y-73020400D03*
D13*
X223188600Y-67940400D03*
D11*
X169344200Y-67940400D03*
X156417200Y-70480400D03*
D12*
X168582200Y-73020400D03*
X158422200Y-73020400D03*
D13*
X159692200Y-70480400D03*
D14*
X163502200Y-73020400D03*
D13*
X166042200Y-67940400D03*
D11*
X150295400Y-67940400D03*
X137368400Y-70480400D03*
D12*
X149533400Y-73020400D03*
X139373400Y-73020400D03*
D13*
X140643400Y-70480400D03*
D14*
X144453400Y-73020400D03*
D13*
X146993400Y-67940400D03*
D11*
X131246600Y-67940400D03*
X118319600Y-70480400D03*
D12*
X130484600Y-73020400D03*
X120324600Y-73020400D03*
D13*
X121594600Y-70480400D03*
D14*
X125404600Y-73020400D03*
D13*
X127944600Y-67940400D03*
D11*
X112197800Y-67940400D03*
X99270800Y-70480400D03*
D12*
X111435800Y-73020400D03*
X101275800Y-73020400D03*
D13*
X102545800Y-70480400D03*
D14*
X106355800Y-73020400D03*
D13*
X108895800Y-67940400D03*
D11*
X74100200Y-67940400D03*
X61173200Y-70480400D03*
D12*
X73338200Y-73020400D03*
X63178200Y-73020400D03*
D13*
X64448200Y-70480400D03*
D14*
X68258200Y-73020400D03*
D13*
X70798200Y-67940400D03*
D19*
X285621580Y-54635832D03*
D20*
X333881580Y-39395832D03*
X288161580Y-54635832D03*
X331341580Y-39395832D03*
X290701580Y-54635832D03*
X328801580Y-39395832D03*
X293241580Y-54635832D03*
X326261580Y-39395832D03*
X295781580Y-54635832D03*
X323721580Y-39395832D03*
X298321580Y-54635832D03*
X321181580Y-39395832D03*
X300861580Y-54635832D03*
X318641580Y-39395832D03*
X303401580Y-54635832D03*
X316101580Y-39395832D03*
X305941580Y-54635832D03*
X313561580Y-39395832D03*
X308481580Y-54635832D03*
X311021580Y-39395832D03*
X311021580Y-54635832D03*
X308481580Y-39395832D03*
X313561580Y-54635832D03*
X305941580Y-39395832D03*
X316101580Y-54635832D03*
X303401580Y-39395832D03*
X318641580Y-54635832D03*
X300861580Y-39395832D03*
X321181580Y-54635832D03*
X298321580Y-39395832D03*
X323721580Y-54635832D03*
X295781580Y-39395832D03*
X326261580Y-54635832D03*
X293241580Y-39395832D03*
X328801580Y-54635832D03*
X290701580Y-39395832D03*
X331341580Y-54635832D03*
X288161580Y-39395832D03*
X333881580Y-54635832D03*
X285621580Y-39395832D03*
D21*
X241161980Y-38597520D03*
D22*
X241161980Y-41137520D03*
X238621980Y-38597520D03*
X238621980Y-41137520D03*
X236081980Y-38597520D03*
X236081980Y-41137520D03*
D23*
X323119794Y-58502890D03*
X318239794Y-58502890D03*
D24*
X327774262Y-57752690D03*
X327774262Y-60252690D03*
X313548388Y-57752690D03*
X313548388Y-60252690D03*
X315993680Y-37172828D03*
X310993680Y-37172828D03*
X311339212Y-56963066D03*
X306339212Y-56963066D03*
D25*
X282244466Y-53892167D03*
D26*
X274624466Y-53892167D03*
D25*
X282244466Y-51398702D03*
D26*
X274624466Y-51398702D03*
D25*
X282244466Y-56385632D03*
D26*
X274624466Y-56385632D03*
D25*
X274624466Y-48826861D03*
D26*
X282244466Y-48826861D03*
D25*
X274624466Y-46307149D03*
D26*
X282244466Y-46307149D03*
D25*
X274624466Y-43813684D03*
D26*
X282244466Y-43813684D03*
D25*
X282244466Y-41319854D03*
D26*
X274624466Y-41319854D03*
D27*
X270345826Y-48651516D03*
D28*
X270345826Y-47151516D03*
D29*
X272535866Y-40217480D03*
D30*
X269995866Y-40217480D03*
D31*
X264691618Y-44637672D03*
X266391618Y-44637672D03*
X265541618Y-44637672D03*
X263841618Y-44637672D03*
X262991618Y-44637672D03*
X262141618Y-44637672D03*
X261291618Y-44637672D03*
X260441618Y-44637672D03*
X266391618Y-43312672D03*
X265536618Y-43312672D03*
X264686618Y-43312672D03*
X263836618Y-43312672D03*
X262986618Y-43312672D03*
X262136618Y-43312672D03*
X261286618Y-43312672D03*
X260436618Y-43312672D03*
D32*
X267741618Y-43657672D03*
X259091618Y-43657672D03*
D33*
X267741618Y-40277672D03*
X259091618Y-40277672D03*
D25*
X255915764Y-37597488D03*
X255915764Y-42697488D03*
D34*
X230853882Y-38082724D03*
X230853882Y-42582724D03*
X224353882Y-38082724D03*
X224353882Y-42582724D03*
X218853882Y-38082724D03*
X218853882Y-42582724D03*
X212353882Y-38082724D03*
X212353882Y-42582724D03*
D20*
X49468434Y-50802262D03*
D19*
X49468434Y-45722262D03*
D20*
X58976823Y-55762849D03*
D19*
X58976823Y-50682849D03*
D20*
X71654675Y-55762849D03*
D19*
X71654675Y-50682849D03*
D20*
X74824138Y-50802262D03*
D19*
X74824138Y-45722262D03*
D20*
X87501990Y-50802262D03*
D19*
X87501990Y-45722262D03*
D20*
X100179842Y-50802262D03*
D19*
X100179842Y-45722262D03*
D20*
X112857694Y-50802262D03*
D19*
X112857694Y-45722262D03*
D20*
X125535546Y-50802262D03*
D19*
X125535546Y-45722262D03*
D20*
X138213398Y-50802262D03*
D19*
X138213398Y-45722262D03*
D20*
X150891250Y-50802262D03*
D19*
X150891250Y-45722262D03*
D20*
X163569102Y-50802262D03*
D19*
X163569102Y-45722262D03*
D20*
X176246954Y-50802262D03*
D19*
X176246954Y-45722262D03*
D20*
X188924806Y-50802262D03*
D19*
X188924806Y-45722262D03*
D20*
X201602658Y-50802262D03*
D19*
X201602658Y-45722262D03*
D20*
X214210526Y-50802262D03*
D19*
X214210526Y-45722262D03*
D20*
X261410079Y-55762849D03*
D19*
X261410079Y-50682849D03*
D20*
X52637897Y-52455791D03*
D19*
X52637897Y-47375791D03*
D20*
X68485212Y-54109320D03*
D19*
X68485212Y-49029320D03*
D20*
X77993601Y-52455791D03*
D19*
X77993601Y-47375791D03*
D20*
X90671453Y-52455791D03*
D19*
X90671453Y-47375791D03*
D20*
X103349305Y-52455791D03*
D19*
X103349305Y-47375791D03*
D20*
X116027157Y-52455791D03*
D19*
X116027157Y-47375791D03*
D20*
X128705009Y-52455791D03*
D19*
X128705009Y-47375791D03*
D20*
X141382861Y-52455791D03*
D19*
X141382861Y-47375791D03*
D20*
X154060713Y-52455791D03*
D19*
X154060713Y-47375791D03*
D20*
X166738565Y-52455791D03*
D19*
X166738565Y-47375791D03*
D20*
X179416417Y-52455791D03*
D19*
X179416417Y-47375791D03*
D20*
X192094269Y-52455791D03*
D19*
X192094269Y-47375791D03*
D20*
X204754625Y-52455791D03*
D19*
X204754625Y-47375791D03*
D20*
X217361299Y-52455791D03*
D19*
X217361299Y-47375791D03*
D20*
X258321355Y-54109320D03*
D19*
X258321355Y-49029320D03*
D20*
X55807360Y-54109320D03*
D19*
X55807360Y-49029320D03*
D20*
X65315749Y-52455791D03*
D19*
X65315749Y-47375791D03*
D20*
X81163064Y-54109320D03*
D19*
X81163064Y-49029320D03*
D20*
X93840916Y-54109320D03*
D19*
X93840916Y-49029320D03*
D20*
X106518768Y-54109320D03*
D19*
X106518768Y-49029320D03*
D20*
X119196620Y-54109320D03*
D19*
X119196620Y-49029320D03*
D20*
X131874472Y-54109320D03*
D19*
X131874472Y-49029320D03*
D20*
X144552324Y-54109320D03*
D19*
X144552324Y-49029320D03*
D20*
X157230176Y-54109320D03*
D19*
X157230176Y-49029320D03*
D20*
X169908028Y-54109320D03*
D19*
X169908028Y-49029320D03*
D20*
X182585880Y-54109320D03*
D19*
X182585880Y-49029320D03*
D20*
X195263732Y-54109320D03*
D19*
X195263732Y-49029320D03*
D20*
X220512072Y-54109320D03*
D19*
X220512072Y-49029320D03*
D20*
X255232631Y-52455791D03*
D19*
X255232631Y-47375791D03*
D20*
X84332527Y-55762849D03*
D19*
X84332527Y-50682849D03*
D20*
X97010379Y-55762849D03*
D19*
X97010379Y-50682849D03*
D20*
X109688231Y-55762849D03*
D19*
X109688231Y-50682849D03*
D20*
X122366083Y-55762849D03*
D19*
X122366083Y-50682849D03*
D20*
X135043935Y-55762849D03*
D19*
X135043935Y-50682849D03*
D20*
X147721787Y-55762849D03*
D19*
X147721787Y-50682849D03*
D20*
X160399639Y-55762849D03*
D19*
X160399639Y-50682849D03*
D20*
X173077491Y-55762849D03*
D19*
X173077491Y-50682849D03*
D20*
X185755343Y-55762849D03*
D19*
X185755343Y-50682849D03*
D20*
X198433195Y-55762849D03*
D19*
X198433195Y-50682849D03*
D20*
X207906592Y-54109320D03*
D19*
X207906592Y-49029320D03*
D20*
X223662845Y-55762849D03*
D19*
X223662845Y-50682849D03*
D20*
X251957756Y-50802262D03*
D19*
X251957756Y-45722262D03*
D20*
X245656208Y-54109320D03*
D19*
X245656208Y-49029320D03*
D20*
X62146286Y-50802262D03*
D19*
X62146286Y-45722262D03*
D20*
X242505434Y-52455791D03*
D19*
X242505434Y-47375791D03*
D20*
X239354661Y-50802262D03*
D19*
X239354661Y-45722262D03*
D20*
X236203888Y-55762849D03*
D19*
X236203888Y-50682849D03*
D20*
X211058559Y-55762849D03*
D19*
X211058559Y-50682849D03*
D20*
X229964391Y-52455791D03*
D19*
X229964391Y-47375791D03*
D20*
X226813618Y-50802262D03*
D19*
X226813618Y-45722262D03*
D20*
X248806982Y-55762849D03*
D19*
X248806982Y-50682849D03*
D20*
X233053115Y-54109320D03*
D19*
X233053115Y-49029320D03*
D20*
X272043132Y-56488846D03*
D19*
X272043132Y-51408846D03*
D20*
X269173460Y-56488846D03*
D19*
X269173460Y-51408846D03*
M02*
