M48
; DRILL file {KiCad (5.1.5)-3} date 6/04/2020 12:51:20 PM
; FORMAT={-:-/ absolute / inch / decimal}
; #@! TF.CreationDate,2020-04-06T12:51:20+10:00
; #@! TF.GenerationSoftware,Kicad,Pcbnew,(5.1.5)-3
; #@! TF.FileFunction,Plated,1,2,PTH
FMAT,2
INCH
T1C0.0157
T2C0.0236
T3C0.0276
T4C0.0315
T5C0.0354
T6C0.0400
T7C0.0433
T8C0.0866
%
G90
G05
T1
X1.6874Y-2.9373
X1.752Y-5.8764
X1.8124Y-4.1872
X1.8165Y-2.9457
X1.8436Y-3.4373
X1.9882Y-4.1811
X2.2186Y-4.9372
X2.4061Y-2.6873
X2.6873Y-3.531
X2.6873Y-5.6559
X2.8748Y-4.281
X3.1181Y-2.6827
X3.3465Y-4.9248
X3.4479Y-3.4815
X3.4921Y-6.1732
X3.6406Y-4.1925
X3.8319Y-2.6906
X4.0964Y-4.9248
X4.1978Y-3.4815
X4.3905Y-4.1925
X4.4545Y-6.1452
X4.5806Y-2.7748
X4.6575Y-6.2047
X4.8464Y-4.9248
X4.8819Y-6.1378
X4.9478Y-3.4815
X5.1405Y-4.1925
X5.3306Y-2.7748
X5.5963Y-4.9248
X5.6977Y-3.4815
X5.8904Y-4.1925
X6.0806Y-2.7748
X6.3463Y-4.9248
X6.4477Y-3.4815
X6.5827Y-6.1614
X6.6404Y-4.1925
X6.8305Y-2.7748
X7.0963Y-4.9248
X7.1976Y-3.4815
X7.3903Y-4.1925
X7.5805Y-2.7748
X7.8462Y-4.9248
X7.9476Y-3.4815
X8.1403Y-4.1925
X8.3304Y-2.7748
X8.5354Y-6.1457
X8.5962Y-4.9248
X8.6974Y-1.7218
X8.6975Y-3.4815
X8.8166Y-1.8575
X8.874Y-6.1496
X8.8903Y-4.1925
X9.0804Y-2.7748
X9.2283Y-6.1457
X9.2548Y-1.7911
X9.2575Y-1.9168
X9.2893Y-1.8391
X9.294Y-1.7425
X9.3043Y-1.8
X9.3461Y-4.9248
X9.4475Y-3.4815
X9.5716Y-1.5983
X9.6402Y-4.1925
X9.6772Y-6.1535
X9.7705Y-1.5151
X9.7994Y-1.6763
X9.8303Y-2.7748
X9.981Y-1.5296
X10.0961Y-4.9248
X10.1464Y-1.6488
X10.1974Y-3.4815
X10.3308Y-1.8
X10.3418Y-1.5857
X10.3596Y-1.8285
X10.3902Y-4.1925
X10.421Y-1.8521
X10.5236Y-6.122
X10.5602Y-2.7748
X10.7129Y-1.7177
X10.7961Y-1.5323
X10.8472Y-1.5519
X10.9652Y-3.4
X11.1248Y-4.9256
X11.1995Y-2.2282
X11.3453Y-1.7466
X11.3931Y-2.6456
X11.4033Y-2.9965
X11.4079Y-5.8799
X11.4459Y-1.7466
X11.5464Y-1.7466
X11.5807Y-4.2752
X11.647Y-1.7466
X11.7476Y-1.7466
X11.8402Y-1.9464
X11.8482Y-1.7466
X11.8799Y-3.5252
X11.895Y-2.0453
X11.896Y-2.224
X11.9488Y-1.7466
X11.9488Y-1.9491
X12.0397Y-1.9491
X12.1181Y-3.0752
X12.1389Y-1.9491
X12.1557Y-1.624
X12.1579Y-4.9366
X12.217Y-2.7924
X12.2492Y-5.6871
X12.5646Y-2.7992
X12.8713Y-4.8909
X12.8724Y-4.1752
X12.8906Y-3.4181
X12.9054Y-2.6873
X12.9079Y-5.6913
X10.2534Y-1.7052
X10.2536Y-1.7574
X10.2869Y-1.7052
X10.2871Y-1.7574
X10.3203Y-1.7052
X10.3205Y-1.7574
X10.3538Y-1.7052
X10.354Y-1.7574
X10.3873Y-1.7052
X10.3875Y-1.7574
X10.4207Y-1.7052
X10.4209Y-1.7574
X10.4542Y-1.7052
X10.4544Y-1.7574
X10.4879Y-1.7052
X10.4879Y-1.7574
X11.8139Y-5.4881
X11.833Y-5.4422
X11.833Y-5.534
X11.8789Y-5.4231
X11.8789Y-5.5531
X11.9248Y-5.4422
X11.9248Y-5.534
X11.9439Y-5.4881
X1.6801Y-1.5806
X1.6991Y-1.5346
X1.6991Y-1.6265
X1.745Y-1.5156
X1.745Y-1.6455
X1.791Y-1.5346
X1.791Y-1.6265
X1.81Y-1.5806
X13.3145Y-2.3019
X13.3335Y-2.256
X13.3335Y-2.3478
X13.3795Y-2.2369
X13.3795Y-2.3668
X13.4254Y-2.256
X13.4254Y-2.3478
X13.4444Y-2.3019
X7.4974Y-5.7168
X7.5164Y-5.6709
X7.5164Y-5.7628
X7.5624Y-5.6519
X7.5624Y-5.7818
X7.6083Y-5.6709
X7.6083Y-5.7628
X7.6273Y-5.7168
X7.4975Y-3.2499
X7.5165Y-3.204
X7.5165Y-3.2959
X7.5624Y-3.185
X7.5624Y-3.3149
X7.6084Y-3.204
X7.6084Y-3.2959
X7.6274Y-3.2499
X11.1374Y-3.2499
X11.1564Y-3.204
X11.1564Y-3.2959
X11.2023Y-3.185
X11.2023Y-3.3149
X11.2483Y-3.204
X11.2483Y-3.2959
X11.2673Y-3.2499
X3.1805Y-5.4881
X3.1995Y-5.4422
X3.1995Y-5.534
X3.2454Y-5.4231
X3.2454Y-5.5531
X3.2914Y-5.4422
X3.2914Y-5.534
X3.3104Y-5.4881
X3.8572Y-3.2499
X3.8763Y-3.204
X3.8763Y-3.2959
X3.9222Y-3.185
X3.9222Y-3.3149
X3.9681Y-3.204
X3.9681Y-3.2959
X3.9872Y-3.2499
X13.3145Y-1.5806
X13.3335Y-1.5346
X13.3335Y-1.6265
X13.3795Y-1.5156
X13.3795Y-1.6455
X13.4254Y-1.5346
X13.4254Y-1.6265
X13.4444Y-1.5806
X1.6801Y-2.3019
X1.6991Y-2.256
X1.6991Y-2.3478
X1.745Y-2.2369
X1.745Y-2.3668
X1.791Y-2.256
X1.791Y-2.3478
X1.81Y-2.3019
T2
X10.6435Y-1.8564
X10.6435Y-1.9154
T3
X10.812Y-1.7249
X11.112Y-1.7249
X10.812Y-1.8231
X11.112Y-1.8231
X10.812Y-1.6268
X11.112Y-1.6268
X10.812Y-1.9223
X11.112Y-1.9223
X10.812Y-2.1217
X11.112Y-2.1217
X10.812Y-2.2199
X11.112Y-2.2199
X10.0754Y-1.4802
X10.0754Y-1.681
X10.812Y-2.0236
X11.112Y-2.0236
T4
X3.1954Y-1.9303
X3.1954Y-2.1303
X5.691Y-1.9303
X5.691Y-2.1303
X10.2917Y-1.9954
X10.2917Y-2.1954
X3.0706Y-1.8652
X3.0706Y-2.0652
X12.0606Y-2.2426
X12.2574Y-2.2426
X6.8141Y-1.9954
X6.8141Y-2.1954
X12.2438Y-1.4635
X12.4407Y-1.4635
X1.9476Y-1.8001
X1.9476Y-2.0001
X7.3132Y-1.9954
X7.3132Y-2.1954
X3.445Y-1.8001
X3.445Y-2.0001
X10.0485Y-1.8652
X10.0485Y-2.0652
X4.1937Y-1.9303
X4.1937Y-2.1303
X8.0612Y-1.8652
X8.0612Y-2.0652
X3.9441Y-1.8001
X3.9441Y-2.0001
X6.4397Y-1.8001
X6.4397Y-2.0001
X12.9045Y-2.2737
X12.9045Y-2.3722
X9.2994Y-1.9954
X9.2994Y-2.1954
X12.3444Y-2.2737
X12.3444Y-2.3722
X2.9458Y-1.8001
X2.9458Y-2.0001
X8.3094Y-1.9954
X8.3094Y-2.1954
X10.7104Y-2.024
X10.7104Y-2.224
X9.1753Y-1.9303
X9.1753Y-2.1303
X7.5628Y-1.8652
X7.5628Y-2.0652
X2.5715Y-1.8652
X2.5715Y-2.0652
X4.6928Y-1.9303
X4.6928Y-2.1303
X5.4415Y-1.8001
X5.4415Y-2.0001
X4.4432Y-1.8001
X4.4432Y-2.0001
X5.9406Y-1.8001
X5.9406Y-2.0001
X9.6715Y-1.9303
X9.6715Y-2.1303
X9.0537Y-1.8652
X9.0537Y-2.0652
X2.4467Y-1.8001
X2.4467Y-2.0001
X9.5475Y-1.8652
X9.5475Y-2.0652
X8.9297Y-1.8001
X8.9297Y-2.0001
X6.6893Y-1.9303
X6.6893Y-2.1303
X7.0636Y-1.8652
X7.0636Y-2.0652
X6.5645Y-1.8652
X6.5645Y-2.0652
X7.438Y-1.8001
X7.438Y-2.0001
X4.9423Y-1.8001
X4.9423Y-2.0001
X5.0671Y-1.8652
X5.0671Y-2.0652
X11.2449Y-1.551
X11.2449Y-2.151
X11.3449Y-1.551
X11.3449Y-2.151
X11.4449Y-1.551
X11.4449Y-2.151
X11.5449Y-1.551
X11.5449Y-2.151
X11.6449Y-1.551
X11.6449Y-2.151
X11.7449Y-1.551
X11.7449Y-2.151
X11.8449Y-1.551
X11.8449Y-2.151
X11.9449Y-1.551
X11.9449Y-2.151
X12.0449Y-1.551
X12.0449Y-2.151
X12.1449Y-1.551
X12.1449Y-2.151
X12.2449Y-1.551
X12.2449Y-2.151
X12.3449Y-1.551
X12.3449Y-2.151
X12.4449Y-1.551
X12.4449Y-2.151
X12.5449Y-1.551
X12.5449Y-2.151
X12.6449Y-1.551
X12.6449Y-2.151
X12.7449Y-1.551
X12.7449Y-2.151
X12.8449Y-1.551
X12.8449Y-2.151
X12.9449Y-1.551
X12.9449Y-2.151
X13.0449Y-1.551
X13.0449Y-2.151
X13.1449Y-1.551
X13.1449Y-2.151
X8.6816Y-1.9303
X8.6816Y-2.1303
X8.8056Y-1.9954
X8.8056Y-2.1954
X5.8158Y-1.9954
X5.8158Y-2.1954
X5.3167Y-1.9954
X5.3167Y-2.1954
X8.1853Y-1.9303
X8.1853Y-2.1303
X6.1902Y-1.9303
X6.1902Y-2.1303
X6.0654Y-1.8652
X6.0654Y-2.0652
X10.1701Y-1.9303
X10.1701Y-2.1303
X4.0689Y-1.8652
X4.0689Y-2.0652
X2.0724Y-1.8652
X2.0724Y-2.0652
X4.568Y-1.8652
X4.568Y-2.0652
X9.7956Y-1.9954
X9.7956Y-2.1954
X6.3149Y-1.9954
X6.3149Y-2.1954
X7.6875Y-1.9303
X7.6875Y-2.1303
X7.1884Y-1.9303
X7.1884Y-2.1303
X5.1919Y-1.9303
X5.1919Y-2.1303
X3.6945Y-1.9303
X3.6945Y-2.1303
X2.1971Y-1.9303
X2.1971Y-2.1303
X7.9371Y-1.8001
X7.9371Y-2.0001
X3.5697Y-1.8652
X3.5697Y-2.0652
X8.4335Y-1.8001
X8.4335Y-2.0001
X4.3184Y-1.9954
X4.3184Y-2.1954
X2.8211Y-1.9954
X2.8211Y-2.1954
X12.5291Y-2.3033
X12.7213Y-2.3033
X9.4234Y-1.8001
X9.4234Y-2.0001
X3.3202Y-1.9954
X3.3202Y-2.1954
X7.8123Y-1.9954
X7.8123Y-2.1954
X5.5663Y-1.8652
X5.5663Y-2.0652
X8.5575Y-1.8652
X8.5575Y-2.0652
X6.9389Y-1.8001
X6.9389Y-2.0001
X2.6963Y-1.9303
X2.6963Y-2.1303
X4.8176Y-1.9954
X4.8176Y-2.1954
X2.3219Y-1.9954
X2.3219Y-2.1954
X10.5974Y-2.024
X10.5974Y-2.224
X3.8193Y-1.9954
X3.8193Y-2.1954
X9.9196Y-1.8001
X9.9196Y-2.0001
T5
X10.6298Y-1.5834
X10.7298Y-1.5834
T6
X9.2946Y-1.5196
X9.2946Y-1.6196
X9.3946Y-1.5196
X9.3946Y-1.6196
X9.4946Y-1.5196
X9.4946Y-1.6196
T7
X8.3604Y-1.4993
X8.3604Y-1.6765
X8.6163Y-1.4993
X8.6163Y-1.6765
X8.8328Y-1.4993
X8.8328Y-1.6765
X9.0887Y-1.4993
X9.0887Y-1.6765
T8
X7.5624Y-3.2499
X3.2454Y-5.4881
X11.8789Y-5.4881
X7.5624Y-5.7168
X3.9222Y-3.2499
X13.3795Y-1.5806
X1.745Y-2.3019
X1.745Y-1.5806
X13.3795Y-2.3019
X11.2023Y-3.2499
T2
G00X10.2005Y-1.6015
M15
G01X10.2005Y-1.57
M16
G05
G00X10.2005Y-1.7483
M15
G01X10.2005Y-1.6893
M16
G05
G00X10.541Y-1.6015
M15
G01X10.541Y-1.57
M16
G05
G00X10.541Y-1.7483
M15
G01X10.541Y-1.6893
M16
G05
T0
M30
