G04 #@! TF.GenerationSoftware,KiCad,Pcbnew,(5.1.5)-3*
G04 #@! TF.CreationDate,2020-04-06T12:51:18+10:00*
G04 #@! TF.ProjectId,discipline-pcb,64697363-6970-46c6-996e-652d7063622e,rev?*
G04 #@! TF.SameCoordinates,Original*
G04 #@! TF.FileFunction,Paste,Bot*
G04 #@! TF.FilePolarity,Positive*
%FSLAX46Y46*%
G04 Gerber Fmt 4.6, Leading zero omitted, Abs format (unit mm)*
G04 Created by KiCad (PCBNEW (5.1.5)-3) date 2020-04-06 12:51:18*
%MOMM*%
%LPD*%
G04 APERTURE LIST*
%ADD10C,0.100000*%
%ADD11R,2.550000X2.500000*%
G04 APERTURE END LIST*
D10*
G36*
X100260300Y-151255600D02*
G01*
X101035300Y-150505600D01*
X102810300Y-150505600D01*
X102810300Y-153005600D01*
X100260300Y-153005600D01*
X100260300Y-151255600D01*
G37*
D11*
X88608300Y-154295600D03*
X80105400Y-151755600D03*
X67178400Y-154295600D03*
X282498900Y-151755600D03*
X269571900Y-154295600D03*
X258687900Y-151755600D03*
X245760900Y-154295600D03*
X180111600Y-151755600D03*
X167184600Y-154295600D03*
X265947800Y-146675600D03*
X278874800Y-144135600D03*
X237374600Y-146675600D03*
X250301600Y-144135600D03*
X163560500Y-146675600D03*
X176487500Y-144135600D03*
X68316500Y-146675600D03*
X81243500Y-144135600D03*
X44505500Y-108578000D03*
X57432500Y-106038000D03*
X175466000Y-70480400D03*
X188393000Y-67940400D03*
X194514800Y-70480400D03*
X207441800Y-67940400D03*
X322977600Y-75560400D03*
X310050600Y-78100400D03*
D10*
G36*
X300558200Y-71730400D02*
G01*
X298683200Y-71730400D01*
X298008200Y-71080400D01*
X298008200Y-69230400D01*
X300558200Y-69230400D01*
X300558200Y-71730400D01*
G37*
D11*
X312210200Y-67940400D03*
X80222000Y-70480400D03*
X93149000Y-67940400D03*
X308807600Y-127626800D03*
X321734600Y-125086800D03*
X282615500Y-127626800D03*
X295542500Y-125086800D03*
X208801400Y-108578000D03*
X221728400Y-106038000D03*
X84984200Y-127626800D03*
X97911200Y-125086800D03*
X42124400Y-70480400D03*
X55051400Y-67940400D03*
D10*
G36*
X302653800Y-74310400D02*
G01*
X304528800Y-74310400D01*
X305203800Y-74960400D01*
X305203800Y-76810400D01*
X302653800Y-76810400D01*
X302653800Y-74310400D01*
G37*
D11*
X291001800Y-78100400D03*
X327856400Y-146675600D03*
X340783400Y-144135600D03*
X308807600Y-146675600D03*
X321734600Y-144135600D03*
X289758800Y-146675600D03*
X302685800Y-144135600D03*
D10*
G36*
X93402500Y-147175600D02*
G01*
X92627500Y-147925600D01*
X90852500Y-147925600D01*
X90852500Y-145425600D01*
X93402500Y-145425600D01*
X93402500Y-147175600D01*
G37*
D11*
X105054500Y-144135600D03*
X44505500Y-146675600D03*
X57432500Y-144135600D03*
X327856400Y-127626800D03*
X340783400Y-125086800D03*
X256423400Y-127626800D03*
X269350400Y-125086800D03*
X237374600Y-127626800D03*
X250301600Y-125086800D03*
X218325800Y-127626800D03*
X231252800Y-125086800D03*
X199277000Y-127626800D03*
X212204000Y-125086800D03*
X180228200Y-127626800D03*
X193155200Y-125086800D03*
X161179400Y-127626800D03*
X174106400Y-125086800D03*
X142130600Y-127626800D03*
X155057600Y-125086800D03*
X123081800Y-127626800D03*
X136008800Y-125086800D03*
X104033000Y-127626800D03*
X116960000Y-125086800D03*
X54029900Y-127626800D03*
X66956900Y-125086800D03*
X327856400Y-108578000D03*
X340783400Y-106038000D03*
X296902100Y-108578000D03*
X309829100Y-106038000D03*
X265947800Y-108578000D03*
X278874800Y-106038000D03*
X246899000Y-108578000D03*
X259826000Y-106038000D03*
X227850200Y-108578000D03*
X240777200Y-106038000D03*
X189752600Y-108578000D03*
X202679600Y-106038000D03*
X170703800Y-108578000D03*
X183630800Y-106038000D03*
X151655000Y-108578000D03*
X164582000Y-106038000D03*
X132606200Y-108578000D03*
X145533200Y-106038000D03*
X113557400Y-108578000D03*
X126484400Y-106038000D03*
X94508600Y-108578000D03*
X107435600Y-106038000D03*
X75459800Y-108578000D03*
X88386800Y-106038000D03*
X63437700Y-113658000D03*
X50510700Y-116198000D03*
X327856400Y-89529200D03*
X340783400Y-86989200D03*
X304045400Y-89529200D03*
X316972400Y-86989200D03*
X280234400Y-89529200D03*
X293161400Y-86989200D03*
X261185600Y-89529200D03*
X274112600Y-86989200D03*
X242136800Y-89529200D03*
X255063800Y-86989200D03*
X223088000Y-89529200D03*
X236015000Y-86989200D03*
X204039200Y-89529200D03*
X216966200Y-86989200D03*
X184990400Y-89529200D03*
X197917400Y-86989200D03*
X165941600Y-89529200D03*
X178868600Y-86989200D03*
X146892800Y-89529200D03*
X159819800Y-86989200D03*
X127844000Y-89529200D03*
X140771000Y-86989200D03*
X108795200Y-89529200D03*
X121722200Y-86989200D03*
X89746400Y-89529200D03*
X102673400Y-86989200D03*
X70697600Y-89529200D03*
X83624600Y-86989200D03*
X46886600Y-89529200D03*
X59813600Y-86989200D03*
X327856400Y-70480400D03*
X340783400Y-67940400D03*
X270710000Y-70480400D03*
X283637000Y-67940400D03*
X251661200Y-70480400D03*
X264588200Y-67940400D03*
X232612400Y-70480400D03*
X245539400Y-67940400D03*
X213563600Y-70480400D03*
X226490600Y-67940400D03*
X156417200Y-70480400D03*
X169344200Y-67940400D03*
X137368400Y-70480400D03*
X150295400Y-67940400D03*
X118319600Y-70480400D03*
X131246600Y-67940400D03*
X99270800Y-70480400D03*
X112197800Y-67940400D03*
X61173200Y-70480400D03*
X74100200Y-67940400D03*
M02*
