M48
; DRILL file {KiCad (5.1.5)-3} date 22/03/2020 1:43:01 PM
; FORMAT={-:-/ absolute / inch / decimal}
; #@! TF.CreationDate,2020-03-22T13:43:01+11:00
; #@! TF.GenerationSoftware,Kicad,Pcbnew,(5.1.5)-3
; #@! TF.FileFunction,Plated,1,2,PTH
FMAT,2
INCH
T1C0.0157
T2C0.0236
T3C0.0866
T4C0.1693
%
G90
G05
T1
X8.3205Y-3.9193
X8.3395Y-3.8734
X8.3395Y-3.9652
X8.3854Y-3.8544
X8.3854Y-3.9843
X8.4314Y-3.8734
X8.4314Y-3.9652
X8.4504Y-3.9193
X11.9606Y-3.9193
X11.9796Y-3.8734
X11.9796Y-3.9652
X12.0255Y-3.8544
X12.0255Y-3.9843
X12.0715Y-3.8734
X12.0715Y-3.9652
X12.0905Y-3.9193
X8.3205Y-6.3861
X8.3395Y-6.3401
X8.3395Y-6.432
X8.3854Y-6.3211
X8.3854Y-6.451
X8.4314Y-6.3401
X8.4314Y-6.432
X8.4504Y-6.3861
X2.5032Y-2.9712
X2.5223Y-2.9253
X2.5223Y-3.0171
X2.5682Y-2.9063
X2.5682Y-3.0362
X2.6141Y-2.9253
X2.6141Y-3.0171
X2.6332Y-2.9712
X4.6804Y-3.9193
X4.6994Y-3.8734
X4.6994Y-3.9652
X4.7453Y-3.8544
X4.7453Y-3.9843
X4.7913Y-3.8734
X4.7913Y-3.9652
X4.8103Y-3.9193
X2.5032Y-2.2499
X2.5223Y-2.204
X2.5223Y-2.2958
X2.5682Y-2.1849
X2.5682Y-2.3148
X2.6141Y-2.204
X2.6141Y-2.2958
X2.6332Y-2.2499
X12.6373Y-6.1573
X12.6563Y-6.1113
X12.6563Y-6.2032
X12.7023Y-6.0923
X12.7023Y-6.2222
X12.7482Y-6.1113
X12.7482Y-6.2032
X12.7672Y-6.1573
X14.1377Y-2.2499
X14.1567Y-2.204
X14.1567Y-2.2958
X14.2026Y-2.1849
X14.2026Y-2.3148
X14.2486Y-2.204
X14.2486Y-2.2958
X14.2676Y-2.2499
X4.0036Y-6.1573
X4.0227Y-6.1113
X4.0227Y-6.2032
X4.0686Y-6.0923
X4.0686Y-6.2222
X4.1145Y-6.1113
X4.1145Y-6.2032
X4.1336Y-6.1573
X14.1377Y-2.9712
X14.1567Y-2.9253
X14.1567Y-3.0171
X14.2026Y-2.9063
X14.2026Y-3.0362
X14.2486Y-2.9253
X14.2486Y-3.0171
X14.2676Y-2.9712
T2
X13.1498Y-3.5988
X13.187Y-3.509
X13.187Y-3.6886
X13.2768Y-3.4718
X13.2768Y-3.7258
X13.3665Y-3.509
X13.3665Y-3.6886
X13.4037Y-3.5988
X3.3671Y-3.5988
X3.4043Y-3.509
X3.4043Y-3.6886
X3.4941Y-3.4718
X3.4941Y-3.7258
X3.5839Y-3.509
X3.5839Y-3.6886
X3.6211Y-3.5988
T3
X14.2026Y-2.9712
X8.3854Y-3.9193
X12.0255Y-3.9193
X8.3854Y-6.3861
X2.5682Y-2.9712
X4.7453Y-3.9193
X2.5682Y-2.2499
X12.7023Y-6.1573
X14.2026Y-2.2499
X4.0686Y-6.1573
T4
X13.2768Y-3.5988
X3.4941Y-3.5988
T0
M30
