G04 #@! TF.GenerationSoftware,KiCad,Pcbnew,(5.1.5)-3*
G04 #@! TF.CreationDate,2020-03-22T13:43:00+11:00*
G04 #@! TF.ProjectId,discipline-pcb,64697363-6970-46c6-996e-652d7063622e,rev?*
G04 #@! TF.SameCoordinates,Original*
G04 #@! TF.FileFunction,Soldermask,Bot*
G04 #@! TF.FilePolarity,Negative*
%FSLAX46Y46*%
G04 Gerber Fmt 4.6, Leading zero omitted, Abs format (unit mm)*
G04 Created by KiCad (PCBNEW (5.1.5)-3) date 2020-03-22 13:43:00*
%MOMM*%
%LPD*%
G04 APERTURE LIST*
%ADD10C,0.100000*%
G04 APERTURE END LIST*
D10*
G36*
X213265759Y-159965516D02*
G01*
X213646472Y-160041244D01*
X214056128Y-160210929D01*
X214424808Y-160457274D01*
X214738345Y-160770811D01*
X214984690Y-161139491D01*
X215154375Y-161549147D01*
X215240879Y-161984036D01*
X215240879Y-162427444D01*
X215154375Y-162862333D01*
X214984690Y-163271989D01*
X214738345Y-163640669D01*
X214424808Y-163954206D01*
X214056128Y-164200551D01*
X213646472Y-164370236D01*
X213265759Y-164445964D01*
X213211584Y-164456740D01*
X212768174Y-164456740D01*
X212713999Y-164445964D01*
X212333286Y-164370236D01*
X211923630Y-164200551D01*
X211554950Y-163954206D01*
X211241413Y-163640669D01*
X210995068Y-163271989D01*
X210825383Y-162862333D01*
X210738879Y-162427444D01*
X210738879Y-161984036D01*
X210825383Y-161549147D01*
X210995068Y-161139491D01*
X211241413Y-160770811D01*
X211554950Y-160457274D01*
X211923630Y-160210929D01*
X212333286Y-160041244D01*
X212713999Y-159965516D01*
X212768174Y-159954740D01*
X213211584Y-159954740D01*
X213265759Y-159965516D01*
G37*
G36*
X322913217Y-154154366D02*
G01*
X323293930Y-154230094D01*
X323703586Y-154399779D01*
X324072266Y-154646124D01*
X324385803Y-154959661D01*
X324632148Y-155328341D01*
X324801833Y-155737997D01*
X324888337Y-156172886D01*
X324888337Y-156616294D01*
X324801833Y-157051183D01*
X324632148Y-157460839D01*
X324385803Y-157829519D01*
X324072266Y-158143056D01*
X323703586Y-158389401D01*
X323293930Y-158559086D01*
X322913217Y-158634814D01*
X322859042Y-158645590D01*
X322415632Y-158645590D01*
X322361457Y-158634814D01*
X321980744Y-158559086D01*
X321571088Y-158389401D01*
X321202408Y-158143056D01*
X320888871Y-157829519D01*
X320642526Y-157460839D01*
X320472841Y-157051183D01*
X320386337Y-156616294D01*
X320386337Y-156172886D01*
X320472841Y-155737997D01*
X320642526Y-155328341D01*
X320888871Y-154959661D01*
X321202408Y-154646124D01*
X321571088Y-154399779D01*
X321980744Y-154230094D01*
X322361457Y-154154366D01*
X322415632Y-154143590D01*
X322859042Y-154143590D01*
X322913217Y-154154366D01*
G37*
G36*
X103618302Y-154154366D02*
G01*
X103999015Y-154230094D01*
X104408671Y-154399779D01*
X104777351Y-154646124D01*
X105090888Y-154959661D01*
X105337233Y-155328341D01*
X105506918Y-155737997D01*
X105593422Y-156172886D01*
X105593422Y-156616294D01*
X105506918Y-157051183D01*
X105337233Y-157460839D01*
X105090888Y-157829519D01*
X104777351Y-158143056D01*
X104408671Y-158389401D01*
X103999015Y-158559086D01*
X103618302Y-158634814D01*
X103564127Y-158645590D01*
X103120717Y-158645590D01*
X103066542Y-158634814D01*
X102685829Y-158559086D01*
X102276173Y-158389401D01*
X101907493Y-158143056D01*
X101593956Y-157829519D01*
X101347611Y-157460839D01*
X101177926Y-157051183D01*
X101091422Y-156616294D01*
X101091422Y-156172886D01*
X101177926Y-155737997D01*
X101347611Y-155328341D01*
X101593956Y-154959661D01*
X101907493Y-154646124D01*
X102276173Y-154399779D01*
X102685829Y-154230094D01*
X103066542Y-154154366D01*
X103120717Y-154143590D01*
X103564127Y-154143590D01*
X103618302Y-154154366D01*
G37*
G36*
X120807137Y-97310400D02*
G01*
X121187850Y-97386128D01*
X121597506Y-97555813D01*
X121966186Y-97802158D01*
X122279723Y-98115695D01*
X122526068Y-98484375D01*
X122695753Y-98894031D01*
X122782257Y-99328920D01*
X122782257Y-99772328D01*
X122695753Y-100207217D01*
X122526068Y-100616873D01*
X122279723Y-100985553D01*
X121966186Y-101299090D01*
X121597506Y-101545435D01*
X121187850Y-101715120D01*
X120807137Y-101790848D01*
X120752962Y-101801624D01*
X120309552Y-101801624D01*
X120255377Y-101790848D01*
X119874664Y-101715120D01*
X119465008Y-101545435D01*
X119096328Y-101299090D01*
X118782791Y-100985553D01*
X118536446Y-100616873D01*
X118366761Y-100207217D01*
X118280257Y-99772328D01*
X118280257Y-99328920D01*
X118366761Y-98894031D01*
X118536446Y-98484375D01*
X118782791Y-98115695D01*
X119096328Y-97802158D01*
X119465008Y-97555813D01*
X119874664Y-97386128D01*
X120255377Y-97310400D01*
X120309552Y-97299624D01*
X120752962Y-97299624D01*
X120807137Y-97310400D01*
G37*
G36*
X213265759Y-97310400D02*
G01*
X213646472Y-97386128D01*
X214056128Y-97555813D01*
X214424808Y-97802158D01*
X214738345Y-98115695D01*
X214984690Y-98484375D01*
X215154375Y-98894031D01*
X215240879Y-99328920D01*
X215240879Y-99772328D01*
X215154375Y-100207217D01*
X214984690Y-100616873D01*
X214738345Y-100985553D01*
X214424808Y-101299090D01*
X214056128Y-101545435D01*
X213646472Y-101715120D01*
X213265759Y-101790848D01*
X213211584Y-101801624D01*
X212768174Y-101801624D01*
X212713999Y-101790848D01*
X212333286Y-101715120D01*
X211923630Y-101545435D01*
X211554950Y-101299090D01*
X211241413Y-100985553D01*
X210995068Y-100616873D01*
X210825383Y-100207217D01*
X210738879Y-99772328D01*
X210738879Y-99328920D01*
X210825383Y-98894031D01*
X210995068Y-98484375D01*
X211241413Y-98115695D01*
X211554950Y-97802158D01*
X211923630Y-97555813D01*
X212333286Y-97386128D01*
X212713999Y-97310400D01*
X212768174Y-97299624D01*
X213211584Y-97299624D01*
X213265759Y-97310400D01*
G37*
G36*
X305724382Y-97310400D02*
G01*
X306105095Y-97386128D01*
X306514751Y-97555813D01*
X306883431Y-97802158D01*
X307196968Y-98115695D01*
X307443313Y-98484375D01*
X307612998Y-98894031D01*
X307699502Y-99328920D01*
X307699502Y-99772328D01*
X307612998Y-100207217D01*
X307443313Y-100616873D01*
X307196968Y-100985553D01*
X306883431Y-101299090D01*
X306514751Y-101545435D01*
X306105095Y-101715120D01*
X305724382Y-101790848D01*
X305670207Y-101801624D01*
X305226797Y-101801624D01*
X305172622Y-101790848D01*
X304791909Y-101715120D01*
X304382253Y-101545435D01*
X304013573Y-101299090D01*
X303700036Y-100985553D01*
X303453691Y-100616873D01*
X303284006Y-100207217D01*
X303197502Y-99772328D01*
X303197502Y-99328920D01*
X303284006Y-98894031D01*
X303453691Y-98484375D01*
X303700036Y-98115695D01*
X304013573Y-97802158D01*
X304382253Y-97555813D01*
X304791909Y-97386128D01*
X305172622Y-97310400D01*
X305226797Y-97299624D01*
X305670207Y-97299624D01*
X305724382Y-97310400D01*
G37*
G36*
X89298012Y-87082346D02*
G01*
X90018996Y-87225758D01*
X90810828Y-87553745D01*
X91523457Y-88029909D01*
X92129499Y-88635951D01*
X92605663Y-89348580D01*
X92933650Y-90140412D01*
X93100856Y-90981016D01*
X93100856Y-91838088D01*
X92933650Y-92678692D01*
X92605663Y-93470524D01*
X92129499Y-94183153D01*
X91523457Y-94789195D01*
X90810828Y-95265359D01*
X90018996Y-95593346D01*
X89298012Y-95736758D01*
X89178393Y-95760552D01*
X88321319Y-95760552D01*
X88201700Y-95736758D01*
X87480716Y-95593346D01*
X86688884Y-95265359D01*
X85976255Y-94789195D01*
X85370213Y-94183153D01*
X84894049Y-93470524D01*
X84566062Y-92678692D01*
X84398856Y-91838088D01*
X84398856Y-90981016D01*
X84566062Y-90140412D01*
X84894049Y-89348580D01*
X85370213Y-88635951D01*
X85976255Y-88029909D01*
X86688884Y-87553745D01*
X87480716Y-87225758D01*
X88201700Y-87082346D01*
X88321319Y-87058552D01*
X89178393Y-87058552D01*
X89298012Y-87082346D01*
G37*
G36*
X337778059Y-87082346D02*
G01*
X338499043Y-87225758D01*
X339290875Y-87553745D01*
X340003504Y-88029909D01*
X340609546Y-88635951D01*
X341085710Y-89348580D01*
X341413697Y-90140412D01*
X341580903Y-90981016D01*
X341580903Y-91838088D01*
X341413697Y-92678692D01*
X341085710Y-93470524D01*
X340609546Y-94183153D01*
X340003504Y-94789195D01*
X339290875Y-95265359D01*
X338499043Y-95593346D01*
X337778059Y-95736758D01*
X337658440Y-95760552D01*
X336801366Y-95760552D01*
X336681747Y-95736758D01*
X335960763Y-95593346D01*
X335168931Y-95265359D01*
X334456302Y-94789195D01*
X333850260Y-94183153D01*
X333374096Y-93470524D01*
X333046109Y-92678692D01*
X332878903Y-91838088D01*
X332878903Y-90981016D01*
X333046109Y-90140412D01*
X333374096Y-89348580D01*
X333850260Y-88635951D01*
X334456302Y-88029909D01*
X335168931Y-87553745D01*
X335960763Y-87225758D01*
X336681747Y-87082346D01*
X336801366Y-87058552D01*
X337658440Y-87058552D01*
X337778059Y-87082346D01*
G37*
G36*
X65508384Y-73228649D02*
G01*
X65889097Y-73304377D01*
X66298753Y-73474062D01*
X66667433Y-73720407D01*
X66980970Y-74033944D01*
X67227315Y-74402624D01*
X67397000Y-74812280D01*
X67483504Y-75247169D01*
X67483504Y-75690577D01*
X67397000Y-76125466D01*
X67227315Y-76535122D01*
X66980970Y-76903802D01*
X66667433Y-77217339D01*
X66298753Y-77463684D01*
X65889097Y-77633369D01*
X65508384Y-77709097D01*
X65454209Y-77719873D01*
X65010799Y-77719873D01*
X64956624Y-77709097D01*
X64575911Y-77633369D01*
X64166255Y-77463684D01*
X63797575Y-77217339D01*
X63484038Y-76903802D01*
X63237693Y-76535122D01*
X63068008Y-76125466D01*
X62981504Y-75690577D01*
X62981504Y-75247169D01*
X63068008Y-74812280D01*
X63237693Y-74402624D01*
X63484038Y-74033944D01*
X63797575Y-73720407D01*
X64166255Y-73474062D01*
X64575911Y-73304377D01*
X64956624Y-73228649D01*
X65010799Y-73217873D01*
X65454209Y-73217873D01*
X65508384Y-73228649D01*
G37*
G36*
X361023135Y-73228649D02*
G01*
X361403848Y-73304377D01*
X361813504Y-73474062D01*
X362182184Y-73720407D01*
X362495721Y-74033944D01*
X362742066Y-74402624D01*
X362911751Y-74812280D01*
X362998255Y-75247169D01*
X362998255Y-75690577D01*
X362911751Y-76125466D01*
X362742066Y-76535122D01*
X362495721Y-76903802D01*
X362182184Y-77217339D01*
X361813504Y-77463684D01*
X361403848Y-77633369D01*
X361023135Y-77709097D01*
X360968960Y-77719873D01*
X360525550Y-77719873D01*
X360471375Y-77709097D01*
X360090662Y-77633369D01*
X359681006Y-77463684D01*
X359312326Y-77217339D01*
X358998789Y-76903802D01*
X358752444Y-76535122D01*
X358582759Y-76125466D01*
X358496255Y-75690577D01*
X358496255Y-75247169D01*
X358582759Y-74812280D01*
X358752444Y-74402624D01*
X358998789Y-74033944D01*
X359312326Y-73720407D01*
X359681006Y-73474062D01*
X360090662Y-73304377D01*
X360471375Y-73228649D01*
X360525550Y-73217873D01*
X360968960Y-73217873D01*
X361023135Y-73228649D01*
G37*
G36*
X361023135Y-54906936D02*
G01*
X361403848Y-54982664D01*
X361813504Y-55152349D01*
X362182184Y-55398694D01*
X362495721Y-55712231D01*
X362742066Y-56080911D01*
X362911751Y-56490567D01*
X362998255Y-56925456D01*
X362998255Y-57368864D01*
X362911751Y-57803753D01*
X362742066Y-58213409D01*
X362495721Y-58582089D01*
X362182184Y-58895626D01*
X361813504Y-59141971D01*
X361403848Y-59311656D01*
X361023135Y-59387384D01*
X360968960Y-59398160D01*
X360525550Y-59398160D01*
X360471375Y-59387384D01*
X360090662Y-59311656D01*
X359681006Y-59141971D01*
X359312326Y-58895626D01*
X358998789Y-58582089D01*
X358752444Y-58213409D01*
X358582759Y-57803753D01*
X358496255Y-57368864D01*
X358496255Y-56925456D01*
X358582759Y-56490567D01*
X358752444Y-56080911D01*
X358998789Y-55712231D01*
X359312326Y-55398694D01*
X359681006Y-55152349D01*
X360090662Y-54982664D01*
X360471375Y-54906936D01*
X360525550Y-54896160D01*
X360968960Y-54896160D01*
X361023135Y-54906936D01*
G37*
G36*
X65508384Y-54906936D02*
G01*
X65889097Y-54982664D01*
X66298753Y-55152349D01*
X66667433Y-55398694D01*
X66980970Y-55712231D01*
X67227315Y-56080911D01*
X67397000Y-56490567D01*
X67483504Y-56925456D01*
X67483504Y-57368864D01*
X67397000Y-57803753D01*
X67227315Y-58213409D01*
X66980970Y-58582089D01*
X66667433Y-58895626D01*
X66298753Y-59141971D01*
X65889097Y-59311656D01*
X65508384Y-59387384D01*
X65454209Y-59398160D01*
X65010799Y-59398160D01*
X64956624Y-59387384D01*
X64575911Y-59311656D01*
X64166255Y-59141971D01*
X63797575Y-58895626D01*
X63484038Y-58582089D01*
X63237693Y-58213409D01*
X63068008Y-57803753D01*
X62981504Y-57368864D01*
X62981504Y-56925456D01*
X63068008Y-56490567D01*
X63237693Y-56080911D01*
X63484038Y-55712231D01*
X63797575Y-55398694D01*
X64166255Y-55152349D01*
X64575911Y-54982664D01*
X64956624Y-54906936D01*
X65010799Y-54896160D01*
X65454209Y-54896160D01*
X65508384Y-54906936D01*
G37*
M02*
