M48
; DRILL file {KiCad (5.1.5)-3} date 22/03/2020 8:54:42 AM
; FORMAT={-:-/ absolute / inch / decimal}
; #@! TF.CreationDate,2020-03-22T08:54:42+11:00
; #@! TF.GenerationSoftware,Kicad,Pcbnew,(5.1.5)-3
; #@! TF.FileFunction,Plated,1,2,PTH
FMAT,2
INCH
T1C0.0157
T2C0.0866
%
G90
G05
T1
X7.4975Y-3.2499
X7.5165Y-3.204
X7.5165Y-3.2959
X7.5624Y-3.185
X7.5624Y-3.3149
X7.6084Y-3.204
X7.6084Y-3.2959
X7.6274Y-3.2499
X3.8572Y-3.2499
X3.8763Y-3.204
X3.8763Y-3.2959
X3.9222Y-3.185
X3.9222Y-3.3149
X3.9681Y-3.204
X3.9681Y-3.2959
X3.9872Y-3.2499
X11.1374Y-3.2499
X11.1564Y-3.204
X11.1564Y-3.2959
X11.2023Y-3.185
X11.2023Y-3.3149
X11.2483Y-3.204
X11.2483Y-3.2959
X11.2673Y-3.2499
X3.1805Y-5.4881
X3.1995Y-5.4422
X3.1995Y-5.534
X3.2454Y-5.4231
X3.2454Y-5.5531
X3.2914Y-5.4422
X3.2914Y-5.534
X3.3104Y-5.4881
X7.4974Y-5.7168
X7.5164Y-5.6709
X7.5164Y-5.7628
X7.5624Y-5.6519
X7.5624Y-5.7818
X7.6083Y-5.6709
X7.6083Y-5.7628
X7.6273Y-5.7168
X11.8139Y-5.4881
X11.833Y-5.4422
X11.833Y-5.534
X11.8789Y-5.4231
X11.8789Y-5.5531
X11.9248Y-5.4422
X11.9248Y-5.534
X11.9439Y-5.4881
T2
X7.5624Y-3.2499
X3.9222Y-3.2499
X11.2023Y-3.2499
X3.2454Y-5.4881
X7.5624Y-5.7168
X11.8789Y-5.4881
T0
M30
