G04 #@! TF.GenerationSoftware,KiCad,Pcbnew,(5.1.5)-3*
G04 #@! TF.CreationDate,2020-03-22T08:54:41+11:00*
G04 #@! TF.ProjectId,discipline-pcb,64697363-6970-46c6-996e-652d7063622e,rev?*
G04 #@! TF.SameCoordinates,Original*
G04 #@! TF.FileFunction,Soldermask,Bot*
G04 #@! TF.FilePolarity,Negative*
%FSLAX46Y46*%
G04 Gerber Fmt 4.6, Leading zero omitted, Abs format (unit mm)*
G04 Created by KiCad (PCBNEW (5.1.5)-3) date 2020-03-22 08:54:41*
%MOMM*%
%LPD*%
G04 APERTURE LIST*
%ADD10C,0.100000*%
G04 APERTURE END LIST*
D10*
G36*
X192360000Y-142967669D02*
G01*
X192740713Y-143043397D01*
X193150369Y-143213082D01*
X193519049Y-143459427D01*
X193832586Y-143772964D01*
X194078931Y-144141644D01*
X194248616Y-144551300D01*
X194335120Y-144986189D01*
X194335120Y-145429597D01*
X194248616Y-145864486D01*
X194078931Y-146274142D01*
X193832586Y-146642822D01*
X193519049Y-146956359D01*
X193150369Y-147202704D01*
X192740713Y-147372389D01*
X192360000Y-147448117D01*
X192305825Y-147458893D01*
X191862415Y-147458893D01*
X191808240Y-147448117D01*
X191427527Y-147372389D01*
X191017871Y-147202704D01*
X190649191Y-146956359D01*
X190335654Y-146642822D01*
X190089309Y-146274142D01*
X189919624Y-145864486D01*
X189833120Y-145429597D01*
X189833120Y-144986189D01*
X189919624Y-144551300D01*
X190089309Y-144141644D01*
X190335654Y-143772964D01*
X190649191Y-143459427D01*
X191017871Y-143213082D01*
X191427527Y-143043397D01*
X191808240Y-142967669D01*
X191862415Y-142956893D01*
X192305825Y-142956893D01*
X192360000Y-142967669D01*
G37*
G36*
X302000000Y-137157669D02*
G01*
X302380713Y-137233397D01*
X302790369Y-137403082D01*
X303159049Y-137649427D01*
X303472586Y-137962964D01*
X303718931Y-138331644D01*
X303888616Y-138741300D01*
X303975120Y-139176189D01*
X303975120Y-139619597D01*
X303888616Y-140054486D01*
X303718931Y-140464142D01*
X303472586Y-140832822D01*
X303159049Y-141146359D01*
X302790369Y-141392704D01*
X302380713Y-141562389D01*
X302000000Y-141638117D01*
X301945825Y-141648893D01*
X301502415Y-141648893D01*
X301448240Y-141638117D01*
X301067527Y-141562389D01*
X300657871Y-141392704D01*
X300289191Y-141146359D01*
X299975654Y-140832822D01*
X299729309Y-140464142D01*
X299559624Y-140054486D01*
X299473120Y-139619597D01*
X299473120Y-139176189D01*
X299559624Y-138741300D01*
X299729309Y-138331644D01*
X299975654Y-137962964D01*
X300289191Y-137649427D01*
X300657871Y-137403082D01*
X301067527Y-137233397D01*
X301448240Y-137157669D01*
X301502415Y-137146893D01*
X301945825Y-137146893D01*
X302000000Y-137157669D01*
G37*
G36*
X82710000Y-137157669D02*
G01*
X83090713Y-137233397D01*
X83500369Y-137403082D01*
X83869049Y-137649427D01*
X84182586Y-137962964D01*
X84428931Y-138331644D01*
X84598616Y-138741300D01*
X84685120Y-139176189D01*
X84685120Y-139619597D01*
X84598616Y-140054486D01*
X84428931Y-140464142D01*
X84182586Y-140832822D01*
X83869049Y-141146359D01*
X83500369Y-141392704D01*
X83090713Y-141562389D01*
X82710000Y-141638117D01*
X82655825Y-141648893D01*
X82212415Y-141648893D01*
X82158240Y-141638117D01*
X81777527Y-141562389D01*
X81367871Y-141392704D01*
X80999191Y-141146359D01*
X80685654Y-140832822D01*
X80439309Y-140464142D01*
X80269624Y-140054486D01*
X80183120Y-139619597D01*
X80183120Y-139176189D01*
X80269624Y-138741300D01*
X80439309Y-138331644D01*
X80685654Y-137962964D01*
X80999191Y-137649427D01*
X81367871Y-137403082D01*
X81777527Y-137233397D01*
X82158240Y-137157669D01*
X82212415Y-137146893D01*
X82655825Y-137146893D01*
X82710000Y-137157669D01*
G37*
G36*
X284814751Y-80307669D02*
G01*
X285195464Y-80383397D01*
X285605120Y-80553082D01*
X285973800Y-80799427D01*
X286287337Y-81112964D01*
X286533682Y-81481644D01*
X286703367Y-81891300D01*
X286789871Y-82326189D01*
X286789871Y-82769597D01*
X286703367Y-83204486D01*
X286533682Y-83614142D01*
X286287337Y-83982822D01*
X285973800Y-84296359D01*
X285605120Y-84542704D01*
X285195464Y-84712389D01*
X284814751Y-84788117D01*
X284760576Y-84798893D01*
X284317166Y-84798893D01*
X284262991Y-84788117D01*
X283882278Y-84712389D01*
X283472622Y-84542704D01*
X283103942Y-84296359D01*
X282790405Y-83982822D01*
X282544060Y-83614142D01*
X282374375Y-83204486D01*
X282287871Y-82769597D01*
X282287871Y-82326189D01*
X282374375Y-81891300D01*
X282544060Y-81481644D01*
X282790405Y-81112964D01*
X283103942Y-80799427D01*
X283472622Y-80553082D01*
X283882278Y-80383397D01*
X284262991Y-80307669D01*
X284317166Y-80296893D01*
X284760576Y-80296893D01*
X284814751Y-80307669D01*
G37*
G36*
X99900000Y-80307669D02*
G01*
X100280713Y-80383397D01*
X100690369Y-80553082D01*
X101059049Y-80799427D01*
X101372586Y-81112964D01*
X101618931Y-81481644D01*
X101788616Y-81891300D01*
X101875120Y-82326189D01*
X101875120Y-82769597D01*
X101788616Y-83204486D01*
X101618931Y-83614142D01*
X101372586Y-83982822D01*
X101059049Y-84296359D01*
X100690369Y-84542704D01*
X100280713Y-84712389D01*
X99900000Y-84788117D01*
X99845825Y-84798893D01*
X99402415Y-84798893D01*
X99348240Y-84788117D01*
X98967527Y-84712389D01*
X98557871Y-84542704D01*
X98189191Y-84296359D01*
X97875654Y-83982822D01*
X97629309Y-83614142D01*
X97459624Y-83204486D01*
X97373120Y-82769597D01*
X97373120Y-82326189D01*
X97459624Y-81891300D01*
X97629309Y-81481644D01*
X97875654Y-81112964D01*
X98189191Y-80799427D01*
X98557871Y-80553082D01*
X98967527Y-80383397D01*
X99348240Y-80307669D01*
X99402415Y-80296893D01*
X99845825Y-80296893D01*
X99900000Y-80307669D01*
G37*
G36*
X192361280Y-80307669D02*
G01*
X192741993Y-80383397D01*
X193151649Y-80553082D01*
X193520329Y-80799427D01*
X193833866Y-81112964D01*
X194080211Y-81481644D01*
X194249896Y-81891300D01*
X194336400Y-82326189D01*
X194336400Y-82769597D01*
X194249896Y-83204486D01*
X194080211Y-83614142D01*
X193833866Y-83982822D01*
X193520329Y-84296359D01*
X193151649Y-84542704D01*
X192741993Y-84712389D01*
X192361280Y-84788117D01*
X192307105Y-84798893D01*
X191863695Y-84798893D01*
X191809520Y-84788117D01*
X191428807Y-84712389D01*
X191019151Y-84542704D01*
X190650471Y-84296359D01*
X190336934Y-83982822D01*
X190090589Y-83614142D01*
X189920904Y-83204486D01*
X189834400Y-82769597D01*
X189834400Y-82326189D01*
X189920904Y-81891300D01*
X190090589Y-81481644D01*
X190336934Y-81112964D01*
X190650471Y-80799427D01*
X191019151Y-80553082D01*
X191428807Y-80383397D01*
X191809520Y-80307669D01*
X191863695Y-80296893D01*
X192307105Y-80296893D01*
X192361280Y-80307669D01*
G37*
M02*
